<svg id="svg" version="1.1" xmlns="http://www.w3.org/2000/svg" xmlns:xlink="http://www.w3.org/1999/xlink" width="400" height="217.39130434782606" viewBox="0, 0, 400,217.39130434782606"><g id="svgg"><path id="path0" d="M178.797 48.005 C 176.732 48.774,176.260 49.205,174.581 51.852 C 174.052 52.687,172.802 54.641,171.805 56.196 C 170.808 57.750,169.245 60.196,168.332 61.630 C 167.419 63.065,166.017 65.266,165.217 66.522 C 164.418 67.777,163.039 69.943,162.153 71.334 C 161.268 72.725,159.663 75.239,158.587 76.920 C 157.511 78.601,155.956 81.033,155.132 82.325 C 154.308 83.617,152.947 85.750,152.108 87.065 C 151.268 88.380,150.255 89.969,149.856 90.594 C 149.457 91.220,149.130 91.832,149.130 91.953 C 149.130 92.096,150.821 92.174,153.911 92.174 L 158.691 92.174 159.424 91.033 C 161.502 87.798,162.740 85.841,162.935 85.482 C 163.054 85.262,163.682 84.256,164.329 83.247 C 164.977 82.238,165.979 80.655,166.557 79.728 C 168.979 75.847,169.928 74.337,171.304 72.174 C 172.103 70.918,173.277 69.060,173.914 68.043 C 176.304 64.228,177.279 62.677,178.151 61.304 C 180.948 56.901,180.696 57.071,181.777 58.859 C 182.193 59.546,183.039 60.916,183.658 61.902 C 185.852 65.402,187.020 67.291,187.408 67.975 C 187.625 68.355,188.150 69.211,188.575 69.877 C 189.000 70.542,189.690 71.623,190.109 72.279 C 190.527 72.935,190.870 73.515,190.870 73.568 C 190.870 73.621,191.265 74.261,191.749 74.989 C 192.233 75.717,192.570 76.409,192.497 76.526 C 192.414 76.661,188.320 76.739,181.400 76.739 C 174.148 76.739,170.435 76.814,170.435 76.959 C 170.435 77.080,170.859 77.838,171.379 78.644 C 171.898 79.450,172.938 81.063,173.690 82.228 L 175.057 84.348 186.522 84.348 L 197.986 84.348 198.558 85.213 C 198.873 85.688,199.130 86.135,199.130 86.206 C 199.130 86.277,199.424 86.761,199.783 87.283 C 200.141 87.804,200.435 88.293,200.435 88.370 C 200.435 88.446,200.728 88.935,201.087 89.457 C 201.446 89.978,201.739 90.475,201.739 90.562 C 201.739 90.649,201.989 91.047,202.294 91.447 L 202.848 92.174 207.737 92.174 L 212.625 92.174 211.747 90.881 C 211.265 90.171,210.870 89.542,210.870 89.484 C 210.870 89.427,210.366 88.614,209.751 87.679 C 209.135 86.744,208.322 85.489,207.943 84.891 C 207.564 84.293,206.552 82.704,205.692 81.359 C 204.833 80.014,203.430 77.813,202.573 76.467 C 201.717 75.122,200.168 72.701,199.130 71.087 C 198.093 69.473,196.528 67.027,195.652 65.652 C 194.776 64.277,193.211 61.832,192.174 60.217 C 189.666 56.315,187.440 52.833,186.290 51.014 C 184.508 48.197,181.513 46.994,178.797 48.005 M371.413 48.092 C 367.524 49.470,366.857 54.704,370.298 56.832 C 375.252 59.895,380.422 53.454,376.310 49.342 C 374.924 47.956,373.106 47.492,371.413 48.092 M42.283 48.190 C 22.092 49.454,14.522 75.807,30.870 87.917 C 36.295 91.935,37.761 92.175,56.848 92.166 C 75.528 92.157,76.411 92.029,81.739 88.560 C 99.006 77.319,92.224 50.239,71.642 48.246 C 69.863 48.074,44.898 48.026,42.283 48.190 M96.458 48.180 C 96.373 48.264,96.304 58.197,96.304 70.254 L 96.304 92.174 100.434 92.174 L 104.563 92.174 104.618 74.076 L 104.674 55.978 119.900 55.978 L 135.126 55.978 136.392 56.739 C 140.784 59.378,141.384 64.510,137.727 68.160 C 135.701 70.184,136.494 70.082,122.120 70.163 C 114.008 70.209,109.565 70.310,109.565 70.450 C 109.565 70.568,109.929 70.980,110.374 71.365 C 110.819 71.750,112.067 72.834,113.146 73.774 C 114.226 74.713,115.353 75.694,115.652 75.954 C 115.951 76.213,118.261 78.232,120.784 80.441 C 123.308 82.650,126.233 85.190,127.283 86.087 C 128.334 86.984,129.693 88.170,130.303 88.722 C 130.914 89.275,132.060 90.278,132.851 90.951 L 134.288 92.174 140.188 92.174 C 143.432 92.174,146.087 92.122,146.087 92.059 C 146.087 91.925,145.221 91.153,142.994 89.301 C 142.125 88.578,140.929 87.583,140.336 87.091 C 139.744 86.598,138.570 85.606,137.728 84.885 C 135.392 82.887,131.100 79.288,130.518 78.841 C 129.428 78.002,129.798 77.826,132.663 77.823 C 150.581 77.800,154.415 53.607,137.293 48.610 C 135.727 48.154,96.894 47.744,96.458 48.180 M228.152 48.261 C 208.925 49.978,201.452 75.586,216.739 87.374 C 222.559 91.862,224.240 92.172,242.739 92.173 L 256.674 92.174 257.943 90.272 C 259.671 87.681,261.304 85.009,261.304 84.774 C 261.304 84.663,254.237 84.554,244.728 84.519 L 228.152 84.456 226.558 83.874 C 213.261 79.017,213.486 61.050,226.903 56.357 C 227.808 56.040,229.653 55.982,241.953 55.878 L 255.971 55.761 256.756 54.565 C 259.983 49.650,260.825 48.289,260.711 48.175 C 260.527 47.991,230.277 48.071,228.152 48.261 M265.802 48.184 C 265.550 48.435,265.626 88.265,265.879 89.178 C 266.169 90.220,267.011 91.212,268.062 91.749 C 268.872 92.162,269.473 92.174,288.794 92.174 L 308.693 92.174 309.920 90.272 C 310.594 89.226,311.671 87.563,312.312 86.578 C 312.954 85.593,313.478 84.738,313.478 84.677 C 313.478 84.617,304.601 84.543,293.750 84.512 L 274.022 84.457 273.913 66.304 L 273.804 48.152 269.878 48.093 C 267.718 48.061,265.884 48.101,265.802 48.184 M332.283 48.190 C 311.077 49.518,304.390 78.010,322.682 89.095 C 327.451 91.985,328.814 92.165,346.005 92.170 L 360.162 92.174 361.522 90.054 C 362.270 88.889,363.310 87.276,363.832 86.470 C 364.355 85.664,364.783 84.906,364.783 84.785 C 364.783 84.639,359.453 84.564,348.859 84.561 C 331.069 84.557,331.281 84.573,328.180 83.066 C 325.159 81.599,322.108 78.309,321.124 75.457 C 320.536 73.752,318.666 73.913,339.013 73.913 L 357.156 73.913 357.757 72.880 C 358.088 72.313,359.122 70.694,360.055 69.283 C 360.989 67.873,361.695 66.626,361.624 66.512 C 361.544 66.383,353.826 66.304,341.183 66.304 L 320.870 66.304 320.870 65.846 C 320.870 63.688,324.991 58.832,328.126 57.296 C 331.000 55.887,331.021 55.886,345.893 55.877 L 359.286 55.870 361.245 52.880 C 363.356 49.659,364.130 48.398,364.130 48.181 C 364.130 48.047,334.435 48.055,332.283 48.190 M374.297 49.032 C 377.217 50.252,377.818 53.604,375.486 55.658 C 372.861 57.968,368.921 56.094,368.914 52.533 C 368.909 50.038,371.959 48.055,374.297 49.032 M371.197 50.272 C 370.836 51.316,371.213 55.111,371.685 55.178 C 372.131 55.242,372.174 55.160,372.174 54.254 C 372.174 52.889,372.780 52.882,373.575 54.239 C 374.469 55.765,375.342 55.670,374.542 54.135 C 374.114 53.314,374.107 53.220,374.433 52.722 C 374.906 52.002,374.881 50.809,374.385 50.360 C 373.892 49.913,371.345 49.843,371.197 50.272 M373.493 50.877 C 374.110 51.208,374.023 51.926,373.332 52.188 C 372.491 52.508,372.174 52.298,372.174 51.420 C 372.174 50.589,372.615 50.407,373.493 50.877 M71.981 56.086 C 82.749 58.071,87.170 71.909,79.577 79.862 C 75.234 84.410,74.473 84.566,56.645 84.561 C 39.517 84.557,38.648 84.402,34.716 80.662 C 26.485 72.833,30.193 58.579,41.087 56.170 C 42.609 55.834,70.205 55.758,71.981 56.086 " stroke="none" fill="#e32027" fill-rule="evenodd"></path><path id="path1" d="M307.826 139.007 C 301.357 140.180,297.640 144.161,298.127 149.397 C 298.481 153.204,302.743 156.330,308.913 157.307 C 309.332 157.373,309.918 157.506,310.217 157.602 C 310.516 157.697,311.201 157.902,311.739 158.056 C 316.167 159.323,316.095 163.963,311.627 165.319 C 307.698 166.511,304.304 164.694,303.923 161.196 L 303.804 160.109 300.652 160.109 L 297.500 160.109 297.435 161.488 C 297.273 164.917,299.652 168.369,302.930 169.460 C 305.648 170.364,310.782 170.797,312.218 170.242 C 312.493 170.136,313.255 169.928,313.913 169.780 C 318.906 168.658,321.821 165.295,321.825 160.652 C 321.828 156.454,319.671 154.137,314.421 152.701 C 313.723 152.510,312.810 152.258,312.391 152.141 C 311.973 152.024,311.199 151.837,310.671 151.725 C 306.389 150.817,305.095 149.770,305.120 147.234 C 305.168 142.439,313.490 142.170,314.620 146.928 L 314.886 148.043 317.986 148.043 L 321.087 148.043 321.086 147.228 C 321.077 141.559,314.894 137.726,307.826 139.007 M22.663 139.589 C 22.276 139.989,22.265 169.135,22.652 169.522 C 23.204 170.074,35.444 169.784,38.370 169.150 C 45.492 167.607,49.615 159.076,47.625 150.000 C 46.862 146.522,43.767 141.739,42.280 141.739 C 42.199 141.739,41.873 141.555,41.555 141.330 C 40.937 140.891,39.533 140.364,37.609 139.848 C 35.928 139.397,23.065 139.174,22.663 139.589 M79.441 139.514 C 79.191 139.686,78.237 141.975,77.608 143.913 C 77.218 145.116,76.641 146.693,76.295 147.500 C 76.193 147.739,75.966 148.375,75.792 148.913 C 75.468 149.915,74.886 151.507,74.559 152.283 C 74.459 152.522,74.170 153.353,73.917 154.130 C 73.664 154.908,73.365 155.713,73.251 155.921 C 73.137 156.129,73.043 156.448,73.043 156.630 C 73.043 156.813,72.953 157.132,72.843 157.340 C 72.733 157.548,72.430 158.304,72.170 159.022 C 71.910 159.739,71.615 160.522,71.515 160.761 C 71.415 161.000,71.026 162.076,70.651 163.152 C 70.275 164.228,69.913 165.255,69.846 165.435 C 69.158 167.276,68.484 169.292,68.481 169.511 C 68.479 169.715,69.203 169.783,71.386 169.783 C 74.685 169.783,74.488 169.884,75.194 167.826 C 75.460 167.049,75.761 166.217,75.863 165.978 C 75.964 165.739,76.211 165.104,76.413 164.566 C 76.918 163.216,76.663 163.268,82.772 163.264 C 89.235 163.260,88.733 163.055,89.720 166.105 C 90.085 167.231,90.536 168.519,90.724 168.967 L 91.065 169.783 94.107 169.783 C 95.779 169.783,97.201 169.696,97.267 169.591 C 97.377 169.413,96.746 167.172,96.310 166.196 C 95.923 165.328,94.783 162.027,94.783 161.775 C 94.783 161.632,94.688 161.346,94.573 161.138 C 94.457 160.931,94.061 159.832,93.692 158.696 C 93.322 157.560,92.933 156.435,92.827 156.196 C 92.526 155.520,91.490 152.574,91.298 151.848 C 91.204 151.489,90.622 149.777,90.006 148.043 C 89.390 146.310,88.543 143.864,88.123 142.609 C 86.944 139.077,87.353 139.347,83.202 139.351 C 81.261 139.353,79.569 139.426,79.441 139.514 M113.498 139.650 C 113.333 139.850,113.266 140.698,113.307 142.097 L 113.370 144.239 117.603 144.298 C 119.931 144.331,121.915 144.437,122.012 144.534 C 122.109 144.630,122.183 150.217,122.178 156.948 C 122.170 165.791,122.236 169.269,122.415 169.485 C 122.744 169.882,128.259 169.915,128.652 169.522 C 128.849 169.325,128.913 166.261,128.913 157.065 C 128.913 147.870,128.977 144.805,129.174 144.609 C 129.359 144.424,130.659 144.348,133.638 144.348 L 137.840 144.348 137.779 141.902 L 137.717 139.457 125.735 139.400 C 115.655 139.353,113.712 139.393,113.498 139.650 M165.515 139.514 C 165.379 139.602,165.117 140.114,164.931 140.652 C 164.746 141.190,164.285 142.462,163.908 143.478 C 163.531 144.495,163.145 145.571,163.051 145.870 C 162.958 146.168,162.536 147.342,162.115 148.478 C 161.694 149.614,161.040 151.424,160.660 152.500 C 160.281 153.576,159.886 154.652,159.783 154.891 C 159.679 155.130,159.288 156.207,158.913 157.283 C 158.538 158.359,158.147 159.435,158.043 159.674 C 157.940 159.913,157.549 160.989,157.174 162.065 C 156.799 163.141,156.407 164.217,156.303 164.457 C 156.199 164.696,155.903 165.527,155.647 166.304 C 155.390 167.082,155.103 167.867,155.009 168.051 C 154.915 168.234,154.769 168.699,154.684 169.083 L 154.531 169.783 157.428 169.779 C 160.905 169.775,160.632 169.936,161.493 167.391 C 161.878 166.255,162.286 165.156,162.400 164.949 C 162.515 164.741,162.609 164.378,162.609 164.141 C 162.609 163.904,162.798 163.610,163.029 163.486 C 163.521 163.223,174.313 163.176,174.721 163.435 C 174.866 163.528,175.440 164.920,175.996 166.530 C 177.209 170.040,176.853 169.775,180.368 169.779 C 183.789 169.783,183.879 169.692,182.823 167.283 C 182.718 167.043,182.328 165.918,181.957 164.783 C 181.585 163.647,181.195 162.522,181.090 162.283 C 180.693 161.379,179.565 158.110,179.565 157.862 C 179.565 157.719,179.472 157.433,179.357 157.225 C 179.243 157.018,178.848 155.918,178.480 154.783 C 178.113 153.647,177.723 152.522,177.614 152.283 C 177.323 151.644,176.281 148.691,176.080 147.935 C 175.878 147.175,174.420 142.920,174.142 142.283 C 174.039 142.043,173.789 141.408,173.588 140.870 C 173.387 140.332,173.121 139.769,172.997 139.620 C 172.748 139.318,165.964 139.223,165.515 139.514 M204.883 139.620 C 204.825 139.769,204.804 146.592,204.835 154.783 L 204.891 169.674 212.500 169.666 C 221.790 169.657,223.612 169.249,226.376 166.564 C 230.271 162.778,228.146 155.170,222.953 154.308 C 222.240 154.190,222.331 153.745,223.148 153.357 C 229.808 150.197,227.858 141.282,220.159 139.691 C 217.975 139.240,205.051 139.179,204.883 139.620 M259.274 139.511 C 259.134 139.742,257.990 142.798,257.179 145.109 C 256.801 146.185,256.408 147.261,256.304 147.500 C 256.201 147.739,255.810 148.815,255.435 149.891 C 255.060 150.967,254.669 152.043,254.565 152.283 C 254.462 152.522,254.070 153.598,253.696 154.674 C 253.321 155.750,252.928 156.826,252.822 157.065 C 252.717 157.304,252.488 157.940,252.314 158.478 C 251.990 159.480,251.407 161.072,251.081 161.848 C 250.980 162.087,250.691 162.918,250.439 163.696 C 250.186 164.473,249.886 165.279,249.772 165.486 C 249.658 165.694,249.565 165.993,249.565 166.152 C 249.565 166.310,249.378 166.827,249.150 167.300 C 248.921 167.773,248.666 168.525,248.582 168.971 L 248.430 169.783 251.362 169.783 C 254.687 169.783,254.488 169.885,255.194 167.826 C 255.460 167.049,255.764 166.217,255.868 165.978 C 255.973 165.739,256.182 165.152,256.334 164.674 C 256.791 163.235,256.673 163.261,262.813 163.264 C 269.087 163.268,268.722 163.182,269.223 164.783 C 269.428 165.440,269.679 166.174,269.781 166.413 C 269.882 166.652,270.198 167.484,270.482 168.261 L 270.999 169.674 274.015 169.735 C 275.674 169.768,277.121 169.705,277.231 169.595 C 277.407 169.419,276.937 167.717,276.293 166.196 C 276.074 165.680,274.667 161.604,273.704 158.696 C 273.328 157.560,272.932 156.435,272.825 156.196 C 272.609 155.714,271.283 151.888,270.226 148.696 C 269.850 147.560,269.452 146.435,269.342 146.196 C 269.232 145.957,268.698 144.449,268.155 142.845 C 267.612 141.241,267.059 139.798,266.927 139.638 C 266.662 139.319,259.464 139.199,259.274 139.511 M344.094 154.128 C 344.074 162.260,344.050 169.084,344.040 169.293 C 344.023 169.651,344.651 169.674,354.348 169.674 L 364.674 169.674 364.735 167.228 L 364.797 164.783 357.888 164.779 C 354.087 164.777,350.854 164.697,350.701 164.600 C 350.490 164.466,350.439 163.500,350.484 160.527 L 350.543 156.630 357.018 156.573 L 363.492 156.515 363.431 154.073 L 363.370 151.630 356.957 151.522 L 350.543 151.413 350.483 148.060 C 350.438 145.523,350.491 144.664,350.701 144.531 C 350.853 144.434,353.990 144.353,357.670 144.351 L 364.362 144.348 364.301 141.902 L 364.239 139.457 354.185 139.400 L 344.130 139.343 344.094 154.128 M34.015 144.575 C 39.436 145.359,41.679 149.339,40.921 156.831 C 40.342 162.558,37.589 164.747,30.932 164.776 C 29.599 164.782,29.329 164.719,29.138 164.362 C 28.829 163.786,28.829 145.345,29.138 144.768 C 29.402 144.276,31.395 144.197,34.015 144.575 M218.563 144.853 C 221.322 146.052,221.374 150.093,218.644 151.194 C 217.649 151.595,212.918 151.919,211.875 151.657 L 211.304 151.513 211.304 148.057 C 211.304 145.503,211.375 144.570,211.576 144.480 C 212.217 144.192,217.718 144.487,218.563 144.853 M83.730 147.735 C 84.049 148.682,84.815 151.071,85.433 153.043 C 86.050 155.016,86.646 156.855,86.756 157.130 C 87.217 158.277,87.273 158.261,82.826 158.261 C 78.345 158.261,78.231 158.224,78.905 157.008 C 79.020 156.800,79.525 155.359,80.027 153.804 C 80.530 152.250,81.005 150.880,81.083 150.761 C 81.161 150.641,81.561 149.492,81.971 148.207 C 82.842 145.479,82.960 145.448,83.730 147.735 M169.565 146.748 C 169.565 146.962,169.743 147.562,169.961 148.080 C 170.179 148.598,170.586 149.853,170.866 150.870 C 171.146 151.886,171.439 152.815,171.518 152.935 C 171.596 153.054,171.789 153.592,171.946 154.130 C 172.104 154.668,172.415 155.653,172.638 156.319 C 173.337 158.404,173.611 158.261,168.913 158.261 C 165.434 158.261,164.783 158.211,164.783 157.943 C 164.783 157.643,165.456 155.627,165.874 154.674 C 165.979 154.435,166.600 152.625,167.254 150.652 C 168.923 145.621,168.858 145.771,169.243 146.090 C 169.420 146.237,169.565 146.533,169.565 146.748 M263.501 147.083 C 263.695 147.671,264.463 150.060,265.208 152.391 C 265.952 154.723,266.650 156.855,266.759 157.130 C 267.213 158.278,267.272 158.261,262.826 158.261 C 258.039 158.261,258.348 158.481,259.318 155.761 C 259.659 154.804,260.154 153.386,260.418 152.609 C 260.682 151.832,260.981 151.000,261.082 150.761 C 261.344 150.141,262.405 146.942,262.545 146.350 C 262.723 145.596,263.107 145.890,263.501 147.083 M219.153 156.959 C 222.123 157.784,222.461 162.920,219.628 164.173 C 218.540 164.654,213.148 165.020,211.870 164.699 L 211.304 164.557 211.304 160.648 L 211.304 156.739 214.837 156.740 C 216.780 156.741,218.722 156.840,219.153 156.959 " stroke="none" fill="#3a3739" fill-rule="evenodd"></path><path id="path2" d="M0.000 108.696 L 0.000 217.391 200.000 217.391 L 400.000 217.391 400.000 108.696 L 400.000 0.000 200.000 0.000 L 0.000 0.000 0.000 108.696 M183.370 47.914 C 185.247 48.808,185.199 48.746,190.896 57.640 C 192.017 59.391,193.547 61.788,194.294 62.966 C 195.042 64.145,196.530 66.478,197.600 68.152 C 198.671 69.826,200.309 72.390,201.241 73.849 C 202.173 75.308,203.582 77.509,204.372 78.740 C 205.163 79.971,206.649 82.299,207.675 83.913 C 208.701 85.527,210.280 87.985,211.183 89.374 C 213.473 92.895,213.779 92.617,207.772 92.470 C 201.819 92.324,202.761 92.847,199.906 88.101 C 198.844 86.336,197.869 84.819,197.738 84.732 C 197.607 84.644,192.396 84.570,186.158 84.569 L 174.817 84.565 174.202 83.593 C 173.864 83.058,172.780 81.388,171.793 79.882 C 170.807 78.375,170.000 77.003,170.000 76.832 C 170.000 76.567,171.609 76.522,180.965 76.522 C 186.996 76.522,191.983 76.437,192.047 76.334 C 192.111 76.231,191.739 75.473,191.221 74.649 C 190.418 73.374,186.251 66.677,183.350 62.000 C 182.882 61.246,182.158 60.080,181.739 59.407 C 180.682 57.708,180.809 57.620,178.129 61.903 C 176.802 64.025,174.416 67.815,172.829 70.326 C 171.242 72.837,169.678 75.332,169.353 75.870 C 169.029 76.408,168.198 77.728,167.505 78.804 C 166.311 80.661,165.768 81.522,163.044 85.870 C 162.408 86.886,161.205 88.769,160.370 90.054 L 158.854 92.391 156.220 92.392 C 154.772 92.393,152.486 92.457,151.141 92.534 C 148.077 92.711,148.085 92.745,150.380 89.190 C 151.307 87.756,152.701 85.582,153.478 84.360 C 155.435 81.285,157.627 77.847,159.630 74.716 C 160.562 73.258,162.165 70.745,163.192 69.130 C 164.219 67.516,165.665 65.266,166.406 64.130 C 167.147 62.995,167.883 61.822,168.042 61.526 C 168.200 61.229,169.035 59.908,169.897 58.591 C 170.759 57.273,172.298 54.875,173.316 53.261 C 176.867 47.636,179.665 46.148,183.370 47.914 M375.671 48.376 C 379.972 51.439,378.146 57.826,372.968 57.826 C 367.996 57.826,365.905 52.141,369.623 48.731 C 371.055 47.418,374.076 47.240,375.671 48.376 M72.893 48.048 C 89.095 50.353,97.228 69.000,88.031 82.751 C 84.460 88.090,78.983 91.415,72.283 92.313 C 69.328 92.708,43.062 92.589,40.140 92.167 C 32.061 91.000,24.174 83.853,22.394 76.087 C 22.243 75.429,22.013 74.600,21.883 74.245 C 21.400 72.926,21.622 67.086,22.245 64.719 C 24.517 56.093,31.548 49.529,40.000 48.145 C 42.101 47.801,70.566 47.717,72.893 48.048 M137.717 48.325 C 149.052 52.393,152.308 65.543,144.020 73.775 C 141.019 76.756,138.044 77.955,132.963 78.230 L 130.382 78.370 132.631 80.217 C 133.867 81.234,135.387 82.505,136.007 83.043 C 136.628 83.582,137.789 84.560,138.587 85.217 C 139.385 85.875,140.553 86.853,141.182 87.391 C 141.811 87.929,142.903 88.863,143.609 89.467 C 144.314 90.070,145.258 90.840,145.707 91.177 C 147.281 92.362,147.148 92.391,140.252 92.391 L 133.982 92.391 132.351 90.924 C 129.642 88.487,121.341 81.246,120.372 80.473 C 119.873 80.076,118.967 79.294,118.358 78.734 C 117.749 78.175,116.288 76.886,115.112 75.870 C 113.936 74.853,112.373 73.484,111.638 72.826 C 110.904 72.168,109.990 71.361,109.608 71.031 C 109.226 70.701,108.913 70.334,108.913 70.216 C 108.913 70.076,113.199 69.999,121.141 69.997 C 134.789 69.995,134.844 69.989,136.936 68.539 C 141.326 65.496,140.360 58.424,135.296 56.529 C 134.151 56.101,133.661 56.087,119.557 56.087 L 105.000 56.087 105.000 73.895 C 105.000 83.690,104.941 91.858,104.868 92.047 C 104.754 92.345,104.154 92.391,100.412 92.391 L 96.087 92.391 96.087 70.101 L 96.087 47.811 116.359 47.873 C 135.216 47.930,136.706 47.962,137.717 48.325 M261.087 48.161 C 261.087 48.345,260.905 48.761,260.683 49.085 C 260.460 49.409,259.338 51.114,258.189 52.874 L 256.099 56.075 242.235 56.135 L 228.370 56.196 226.716 56.788 C 221.487 58.663,218.714 61.851,217.188 67.743 C 215.777 73.191,219.409 80.121,225.109 82.857 C 228.139 84.311,228.535 84.339,246.141 84.344 C 259.359 84.347,261.739 84.394,261.739 84.652 C 261.739 84.819,261.148 85.871,260.424 86.989 C 259.701 88.107,258.622 89.785,258.025 90.718 L 256.941 92.415 241.568 92.331 C 224.243 92.237,225.175 92.323,221.178 90.450 C 207.027 83.822,203.740 65.391,214.746 54.385 C 218.334 50.797,222.335 48.801,227.609 47.971 C 229.539 47.667,261.087 47.846,261.087 48.161 M274.348 66.087 L 274.457 84.239 294.208 84.295 C 311.288 84.343,313.942 84.392,313.839 84.663 C 313.773 84.835,312.868 86.277,311.828 87.868 C 310.788 89.459,309.705 91.129,309.420 91.579 L 308.903 92.398 288.528 92.340 L 268.152 92.283 267.329 91.653 C 266.876 91.307,266.290 90.720,266.025 90.349 L 265.543 89.674 265.485 69.027 C 265.453 57.671,265.475 48.253,265.534 48.098 C 265.618 47.878,266.581 47.830,269.941 47.876 L 274.239 47.935 274.348 66.087 M364.348 48.227 C 364.348 48.576,363.424 50.109,360.298 54.946 L 359.561 56.087 346.139 56.095 C 331.754 56.103,331.739 56.104,328.955 57.244 C 325.494 58.662,322.290 62.117,321.210 65.598 L 321.058 66.087 341.616 66.087 C 354.296 66.087,362.174 66.165,362.174 66.291 C 362.174 66.522,360.282 69.587,358.377 72.446 L 357.109 74.348 339.206 74.348 C 319.060 74.348,320.889 74.173,321.728 76.022 C 322.952 78.716,325.455 81.310,328.158 82.683 C 331.321 84.289,330.414 84.218,348.750 84.296 C 366.812 84.373,365.793 84.289,364.774 85.618 C 364.531 85.936,363.430 87.588,362.329 89.290 L 360.326 92.385 345.978 92.384 C 329.026 92.382,328.225 92.302,324.022 90.181 C 304.878 80.519,308.977 51.973,330.058 48.150 C 332.900 47.635,364.348 47.706,364.348 48.227 M371.646 49.322 C 371.581 49.427,372.112 49.556,372.826 49.607 C 374.977 49.763,375.819 51.071,374.823 52.710 C 374.439 53.343,375.043 55.217,375.630 55.217 C 376.483 55.217,376.779 51.967,376.027 50.853 C 375.076 49.441,372.195 48.435,371.646 49.322 M370.011 50.579 C 369.761 50.897,369.501 51.411,369.434 51.720 C 369.366 52.029,369.277 52.398,369.234 52.538 C 368.629 54.534,371.959 57.071,374.043 56.201 L 374.882 55.850 374.344 55.582 C 374.048 55.435,373.578 54.901,373.300 54.396 C 372.647 53.212,372.431 53.238,372.349 54.511 C 372.285 55.499,372.254 55.543,371.630 55.543 L 370.978 55.543 370.917 52.772 C 370.854 49.869,370.756 49.632,370.011 50.579 M372.470 51.196 C 372.237 51.802,372.551 52.220,373.040 51.958 C 373.564 51.678,373.612 51.185,373.134 51.002 C 372.652 50.817,372.611 50.829,372.470 51.196 M41.413 56.407 C 26.196 60.216,27.229 81.899,42.733 84.125 C 45.884 84.578,70.857 84.322,72.609 83.820 C 86.885 79.724,86.413 59.900,71.957 56.393 C 70.285 55.987,43.039 56.000,41.413 56.407 M364.740 115.731 C 364.790 116.694,364.715 117.105,364.436 117.414 C 364.074 117.814,360.245 117.822,193.391 117.770 L 22.717 117.717 22.654 116.032 L 22.590 114.348 193.632 114.402 L 364.674 114.457 364.740 115.731 M315.323 139.288 C 318.671 140.450,321.062 143.471,321.264 146.793 L 321.353 148.261 318.063 148.261 C 314.355 148.261,314.780 148.469,314.106 146.324 C 312.963 142.690,306.053 143.161,305.300 146.924 C 304.817 149.337,306.464 150.513,312.065 151.757 C 313.261 152.022,314.332 152.323,314.446 152.424 C 314.559 152.526,314.770 152.609,314.913 152.609 C 315.772 152.609,318.970 154.250,319.959 155.198 C 323.240 158.344,322.938 163.924,319.304 167.288 C 314.026 172.175,302.240 171.781,298.675 166.600 C 297.326 164.640,296.471 160.790,297.217 160.043 C 297.548 159.713,303.319 159.682,303.927 160.008 C 304.248 160.179,304.348 160.466,304.348 161.212 C 304.348 163.909,305.882 165.109,309.331 165.109 C 315.954 165.109,317.013 159.449,310.652 158.050 C 299.937 155.692,296.340 152.180,298.240 145.931 C 300.014 140.098,308.336 136.862,315.323 139.288 M36.630 139.452 C 39.395 139.963,39.894 140.120,41.458 140.972 C 49.699 145.459,50.930 160.838,43.531 166.865 C 40.223 169.560,37.933 170.044,28.913 169.956 L 22.283 169.891 22.226 154.783 C 22.195 146.473,22.217 139.552,22.274 139.402 C 22.434 138.983,34.312 139.024,36.630 139.452 M88.181 141.957 C 88.703 143.451,89.469 145.652,89.883 146.848 C 90.297 148.043,91.332 151.027,92.181 153.478 C 93.031 155.929,94.348 159.745,95.108 161.957 C 95.868 164.168,96.786 166.801,97.149 167.807 C 97.511 168.813,97.757 169.718,97.696 169.818 C 97.504 170.128,90.922 170.043,90.727 169.728 C 90.634 169.579,90.142 168.235,89.634 166.741 C 88.434 163.216,89.000 163.478,82.573 163.478 L 77.185 163.478 76.884 164.076 C 76.718 164.405,76.268 165.603,75.884 166.739 C 75.500 167.875,75.071 169.073,74.931 169.402 L 74.676 170.000 71.462 170.000 C 67.716 170.000,67.773 170.039,68.567 168.020 C 68.868 167.256,69.744 164.870,70.514 162.717 C 71.285 160.565,72.067 158.413,72.252 157.935 C 72.437 157.457,73.964 153.250,75.644 148.587 C 77.325 143.924,78.814 139.886,78.954 139.615 C 79.207 139.125,79.241 139.122,83.221 139.180 L 87.233 139.239 88.181 141.957 M138.036 139.551 C 138.378 140.190,138.327 144.240,137.973 144.534 C 137.791 144.685,136.128 144.795,133.462 144.832 L 129.239 144.891 129.130 157.391 L 129.022 169.891 125.669 169.952 C 123.132 169.997,122.273 169.944,122.139 169.734 C 122.042 169.581,121.962 163.907,121.960 157.124 L 121.957 144.792 117.554 144.733 L 113.152 144.674 113.090 142.187 C 113.056 140.820,113.078 139.572,113.138 139.415 C 113.344 138.877,137.746 139.010,138.036 139.551 M173.505 139.728 C 173.779 140.430,176.545 148.337,177.289 150.543 C 177.571 151.380,178.285 153.437,178.876 155.113 C 179.468 156.789,180.250 159.039,180.616 160.113 C 180.981 161.187,181.835 163.630,182.513 165.543 C 184.227 170.379,184.472 169.891,180.326 169.891 L 176.848 169.891 176.132 167.826 C 175.739 166.690,175.249 165.272,175.045 164.674 L 174.674 163.587 168.919 163.587 L 163.164 163.587 162.346 165.870 C 161.896 167.125,161.372 168.568,161.181 169.076 L 160.834 170.000 157.591 170.000 C 153.588 170.000,153.743 170.757,156.305 163.696 C 156.804 162.321,157.603 160.120,158.080 158.804 C 158.558 157.489,159.223 155.630,159.560 154.674 C 160.150 152.994,160.750 151.332,162.937 145.326 C 163.503 143.772,164.154 141.962,164.382 141.304 C 165.211 138.921,164.739 139.130,169.281 139.130 L 173.272 139.130 173.505 139.728 M220.462 139.487 C 227.983 141.160,230.068 150.074,223.709 153.363 C 222.842 153.811,222.837 153.803,224.293 154.538 C 231.717 158.286,229.648 167.601,220.930 169.684 C 218.704 170.216,204.866 170.127,204.573 169.580 C 204.424 169.302,204.348 164.209,204.348 154.565 C 204.348 144.921,204.424 139.829,204.573 139.551 C 204.890 138.959,217.853 138.906,220.462 139.487 M267.166 139.446 C 267.310 139.620,267.559 140.183,267.719 140.696 C 267.880 141.210,268.516 143.049,269.134 144.783 C 269.751 146.516,270.536 148.766,270.877 149.783 C 271.219 150.799,272.002 153.049,272.616 154.783 C 273.230 156.516,274.008 158.766,274.344 159.783 C 274.680 160.799,275.463 163.049,276.082 164.783 C 277.672 169.229,277.685 169.271,277.537 169.655 C 277.363 170.109,271.010 170.178,270.719 169.728 C 270.623 169.579,270.097 168.136,269.551 166.522 L 268.558 163.587 262.873 163.529 L 257.189 163.471 256.885 164.072 C 256.718 164.403,256.157 165.872,255.638 167.337 L 254.694 170.000 251.471 170.000 C 247.715 170.000,247.774 170.040,248.564 168.020 C 248.864 167.256,250.328 163.255,251.819 159.130 C 253.310 155.005,254.724 151.092,254.962 150.435 C 255.199 149.777,255.803 148.114,256.302 146.739 C 256.802 145.364,257.502 143.413,257.859 142.403 C 258.216 141.393,258.643 140.243,258.808 139.848 L 259.108 139.130 263.006 139.130 C 266.150 139.130,266.954 139.192,267.166 139.446 M364.520 141.522 C 364.555 142.777,364.528 144.024,364.461 144.293 L 364.340 144.783 357.550 144.782 L 350.761 144.782 350.801 147.989 L 350.840 151.196 357.105 151.252 C 364.495 151.317,363.913 151.069,363.913 154.156 C 363.913 157.179,364.463 156.957,356.995 156.957 L 350.761 156.957 350.761 160.652 L 350.761 164.348 357.764 164.348 C 365.938 164.348,365.217 164.075,365.217 167.174 C 365.217 170.321,366.450 170.000,354.363 170.000 C 346.227 170.000,343.943 169.941,343.882 169.728 C 343.839 169.579,343.831 162.632,343.863 154.291 L 343.922 139.126 354.189 139.183 L 364.457 139.239 364.520 141.522 M29.230 145.054 C 29.173 145.204,29.151 149.582,29.182 154.783 L 29.239 164.239 31.825 164.301 C 37.537 164.437,40.063 162.324,40.668 156.902 C 41.413 150.228,39.508 146.110,35.175 145.036 C 33.755 144.683,29.367 144.697,29.230 145.054 M211.739 148.043 L 211.739 151.304 214.837 151.301 C 218.995 151.296,220.435 150.458,220.435 148.043 C 220.435 145.629,218.995 144.791,214.837 144.786 L 211.739 144.783 211.739 148.043 M82.425 147.663 C 82.183 148.410,81.293 151.015,80.449 153.451 C 79.604 155.887,78.913 157.917,78.913 157.962 C 78.913 158.007,80.674 158.043,82.826 158.043 C 84.978 158.043,86.739 158.016,86.739 157.983 C 86.739 157.950,86.308 156.605,85.781 154.994 C 85.255 153.383,84.415 150.769,83.916 149.185 C 82.856 145.820,82.982 145.949,82.425 147.663 M262.618 146.983 C 262.469 147.387,262.266 148.011,262.166 148.370 C 261.900 149.324,259.895 155.076,259.741 155.328 C 259.669 155.447,259.496 155.965,259.358 156.481 C 259.220 156.997,259.052 157.559,258.986 157.731 C 258.885 157.995,259.455 158.043,262.694 158.043 C 267.306 158.043,267.052 158.840,264.705 151.743 C 262.922 146.350,262.883 146.262,262.618 146.983 M168.631 147.436 C 168.439 147.949,167.939 149.397,167.521 150.652 C 167.103 151.908,166.365 154.060,165.882 155.435 L 165.004 157.935 168.837 157.994 C 173.351 158.064,173.009 158.234,172.328 156.261 C 172.026 155.388,171.221 152.913,170.539 150.761 C 169.102 146.224,169.091 146.205,168.631 147.436 M211.630 160.652 L 211.630 164.348 215.109 164.343 C 220.071 164.336,221.304 163.612,221.304 160.707 C 221.304 157.732,220.046 156.986,215.000 156.968 L 211.630 156.957 211.630 160.652 " stroke="none" fill="#fcfcfc" fill-rule="evenodd"></path><path id="path3" d="M177.905 48.049 C 176.275 48.840,175.682 49.514,173.316 53.261 C 172.298 54.875,170.759 57.273,169.897 58.591 C 169.035 59.908,168.200 61.229,168.042 61.526 C 167.883 61.822,167.147 62.995,166.406 64.130 C 165.665 65.266,164.219 67.516,163.192 69.130 C 162.165 70.745,160.562 73.258,159.630 74.716 C 157.627 77.847,155.435 81.285,153.478 84.360 C 152.701 85.582,151.307 87.756,150.380 89.190 C 148.085 92.745,148.077 92.711,151.141 92.534 C 152.486 92.457,154.772 92.393,156.220 92.392 L 158.854 92.391 160.370 90.054 C 161.205 88.769,162.408 86.886,163.044 85.870 C 165.768 81.522,166.311 80.661,167.505 78.804 C 168.198 77.728,169.029 76.408,169.353 75.870 C 169.678 75.332,171.242 72.837,172.829 70.326 C 174.416 67.815,176.802 64.025,178.129 61.903 C 180.809 57.620,180.682 57.708,181.739 59.407 C 182.158 60.080,182.882 61.246,183.350 62.000 C 186.251 66.677,190.418 73.374,191.221 74.649 C 191.739 75.473,192.111 76.231,192.047 76.334 C 191.983 76.437,186.996 76.522,180.965 76.522 C 171.609 76.522,170.000 76.567,170.000 76.832 C 170.000 77.003,170.807 78.375,171.793 79.882 C 172.780 81.388,173.864 83.058,174.202 83.593 L 174.817 84.565 186.158 84.569 C 192.396 84.570,197.607 84.644,197.738 84.732 C 197.869 84.819,198.844 86.336,199.906 88.101 C 202.761 92.847,201.819 92.324,207.772 92.470 C 213.779 92.617,213.473 92.895,211.183 89.374 C 210.280 87.985,208.701 85.527,207.675 83.913 C 206.649 82.299,205.163 79.971,204.372 78.740 C 203.582 77.509,202.173 75.308,201.241 73.849 C 200.309 72.390,198.671 69.826,197.600 68.152 C 196.530 66.478,195.042 64.145,194.294 62.966 C 185.364 48.893,185.331 48.849,183.370 47.914 C 181.743 47.139,179.677 47.190,177.905 48.049 M182.966 48.083 C 184.372 48.690,185.385 49.583,186.290 51.014 C 187.440 52.833,189.666 56.315,192.174 60.217 C 193.211 61.832,194.776 64.277,195.652 65.652 C 196.528 67.027,198.093 69.473,199.130 71.087 C 200.168 72.701,201.717 75.122,202.573 76.467 C 203.430 77.813,204.833 80.014,205.692 81.359 C 206.552 82.704,207.564 84.293,207.943 84.891 C 208.322 85.489,209.135 86.744,209.751 87.679 C 210.366 88.614,210.870 89.427,210.870 89.484 C 210.870 89.542,211.265 90.171,211.747 90.881 L 212.625 92.174 207.737 92.174 L 202.848 92.174 202.294 91.447 C 201.989 91.047,201.739 90.649,201.739 90.562 C 201.739 90.475,201.446 89.978,201.087 89.457 C 200.728 88.935,200.435 88.446,200.435 88.370 C 200.435 88.293,200.141 87.804,199.783 87.283 C 199.424 86.761,199.130 86.277,199.130 86.206 C 199.130 86.135,198.873 85.688,198.558 85.213 L 197.986 84.348 186.522 84.348 L 175.057 84.348 173.690 82.228 C 172.938 81.063,171.898 79.450,171.379 78.644 C 170.859 77.838,170.435 77.080,170.435 76.959 C 170.435 76.814,174.148 76.739,181.400 76.739 C 188.320 76.739,192.414 76.661,192.497 76.526 C 192.570 76.409,192.233 75.717,191.749 74.989 C 191.265 74.261,190.870 73.621,190.870 73.568 C 190.870 73.515,190.527 72.935,190.109 72.279 C 189.690 71.623,189.000 70.542,188.575 69.877 C 188.150 69.211,187.625 68.355,187.408 67.975 C 187.020 67.291,185.852 65.402,183.658 61.902 C 183.039 60.916,182.193 59.546,181.777 58.859 C 180.850 57.325,180.695 57.316,179.778 58.750 C 177.993 61.542,177.079 62.991,173.914 68.043 C 173.277 69.060,172.103 70.918,171.304 72.174 C 169.928 74.337,168.979 75.847,166.557 79.728 C 165.979 80.655,164.977 82.238,164.329 83.247 C 163.682 84.256,163.054 85.262,162.935 85.482 C 162.740 85.841,161.502 87.798,159.424 91.033 L 158.691 92.174 153.911 92.174 C 150.821 92.174,149.130 92.096,149.130 91.953 C 149.130 91.832,149.457 91.220,149.856 90.594 C 150.255 89.969,151.268 88.380,152.108 87.065 C 152.947 85.750,154.308 83.617,155.132 82.325 C 155.956 81.033,157.511 78.601,158.587 76.920 C 159.663 75.239,161.268 72.725,162.153 71.334 C 163.039 69.943,164.418 67.777,165.217 66.522 C 166.017 65.266,167.419 63.065,168.332 61.630 C 169.245 60.196,170.808 57.750,171.805 56.196 C 172.802 54.641,174.052 52.687,174.581 51.852 C 176.260 49.205,176.732 48.774,178.797 48.005 C 179.994 47.560,181.835 47.594,182.966 48.083 M371.012 47.914 C 368.314 48.913,367.001 52.380,368.285 55.112 C 369.764 58.257,374.257 58.875,376.656 56.264 C 380.351 52.242,376.142 46.016,371.012 47.914 M40.000 48.145 C 31.548 49.529,24.517 56.093,22.245 64.719 C 21.622 67.086,21.400 72.926,21.883 74.245 C 22.013 74.600,22.243 75.429,22.394 76.087 C 24.174 83.853,32.061 91.000,40.140 92.167 C 43.062 92.589,69.328 92.708,72.283 92.313 C 97.838 88.891,98.351 51.670,72.893 48.048 C 70.566 47.717,42.101 47.801,40.000 48.145 M96.087 70.101 L 96.087 92.391 100.412 92.391 C 104.154 92.391,104.754 92.345,104.868 92.047 C 104.941 91.858,105.000 83.690,105.000 73.895 L 105.000 56.087 119.557 56.087 C 133.661 56.087,134.151 56.101,135.296 56.529 C 140.360 58.424,141.326 65.496,136.936 68.539 C 134.844 69.989,134.789 69.995,121.141 69.997 C 113.199 69.999,108.913 70.076,108.913 70.216 C 108.913 70.334,109.226 70.701,109.608 71.031 C 109.990 71.361,110.904 72.168,111.638 72.826 C 112.373 73.484,113.936 74.853,115.112 75.870 C 116.288 76.886,117.749 78.175,118.358 78.734 C 118.967 79.294,119.873 80.076,120.372 80.473 C 121.341 81.246,129.642 88.487,132.351 90.924 L 133.982 92.391 140.252 92.391 C 147.148 92.391,147.281 92.362,145.707 91.177 C 145.258 90.840,144.314 90.070,143.609 89.467 C 142.903 88.863,141.811 87.929,141.182 87.391 C 140.553 86.853,139.385 85.875,138.587 85.217 C 137.789 84.560,136.628 83.582,136.007 83.043 C 135.387 82.505,133.867 81.234,132.631 80.217 L 130.382 78.370 132.963 78.230 C 138.044 77.955,141.019 76.756,144.020 73.775 C 151.504 66.341,149.525 53.986,140.109 49.356 C 137.003 47.830,138.794 47.941,116.359 47.873 L 96.087 47.811 96.087 70.101 M227.609 47.971 C 207.303 51.169,201.036 77.104,217.808 88.529 C 223.214 92.212,223.340 92.232,241.568 92.331 L 256.941 92.415 258.025 90.718 C 258.622 89.785,259.701 88.107,260.424 86.989 C 261.148 85.871,261.739 84.819,261.739 84.652 C 261.739 84.394,259.359 84.347,246.141 84.344 C 228.535 84.339,228.139 84.311,225.109 82.857 C 219.409 80.121,215.777 73.191,217.188 67.743 C 218.714 61.851,221.487 58.663,226.716 56.788 L 228.370 56.196 242.235 56.135 L 256.099 56.075 258.189 52.874 C 259.338 51.114,260.460 49.409,260.683 49.085 C 261.606 47.740,262.695 47.823,244.620 47.856 C 235.563 47.872,227.908 47.924,227.609 47.971 M265.534 48.098 C 265.475 48.253,265.453 57.671,265.485 69.027 L 265.543 89.674 266.025 90.349 C 266.290 90.720,266.876 91.307,267.329 91.653 L 268.152 92.283 288.528 92.340 L 308.903 92.398 309.420 91.579 C 309.705 91.129,310.788 89.459,311.828 87.868 C 312.868 86.277,313.773 84.835,313.839 84.663 C 313.942 84.392,311.288 84.343,294.208 84.295 L 274.457 84.239 274.348 66.087 L 274.239 47.935 269.941 47.876 C 266.581 47.830,265.618 47.878,265.534 48.098 M330.058 48.150 C 308.977 51.973,304.878 80.519,324.022 90.181 C 328.225 92.302,329.026 92.382,345.978 92.384 L 360.326 92.385 362.329 89.290 C 363.430 87.588,364.531 85.936,364.774 85.618 C 365.793 84.289,366.812 84.373,348.750 84.296 C 330.414 84.218,331.321 84.289,328.158 82.683 C 325.455 81.310,322.952 78.716,321.728 76.022 C 320.889 74.173,319.060 74.348,339.206 74.348 L 357.109 74.348 358.377 72.446 C 360.282 69.587,362.174 66.522,362.174 66.291 C 362.174 66.165,354.296 66.087,341.616 66.087 L 321.058 66.087 321.210 65.598 C 322.290 62.117,325.494 58.662,328.955 57.244 C 331.739 56.104,331.754 56.103,346.139 56.095 L 359.561 56.087 360.298 54.946 C 363.424 50.109,364.348 48.576,364.348 48.227 C 364.348 47.706,332.900 47.635,330.058 48.150 M374.431 48.092 C 375.608 48.441,377.211 50.044,377.560 51.221 C 379.249 56.907,371.389 60.231,368.630 54.997 C 366.595 51.135,370.206 46.837,374.431 48.092 M71.642 48.246 C 92.224 50.239,99.006 77.319,81.739 88.560 C 76.411 92.029,75.528 92.157,56.848 92.166 C 37.761 92.175,36.295 91.935,30.870 87.917 C 14.522 75.807,22.092 49.454,42.283 48.190 C 44.898 48.026,69.863 48.074,71.642 48.246 M137.293 48.610 C 154.415 53.607,150.581 77.800,132.663 77.823 C 129.798 77.826,129.428 78.002,130.518 78.841 C 131.100 79.288,135.392 82.887,137.728 84.885 C 138.570 85.606,139.744 86.598,140.336 87.091 C 140.929 87.583,142.125 88.578,142.994 89.301 C 145.221 91.153,146.087 91.925,146.087 92.059 C 146.087 92.122,143.432 92.174,140.188 92.174 L 134.288 92.174 132.851 90.951 C 132.060 90.278,130.914 89.275,130.303 88.722 C 129.693 88.170,128.334 86.984,127.283 86.087 C 126.233 85.190,123.308 82.650,120.784 80.441 C 118.261 78.232,115.951 76.213,115.652 75.954 C 115.353 75.694,114.226 74.713,113.146 73.774 C 112.067 72.834,110.819 71.750,110.374 71.365 C 109.929 70.980,109.565 70.568,109.565 70.450 C 109.565 70.310,114.008 70.209,122.120 70.163 C 136.494 70.082,135.701 70.184,137.727 68.160 C 141.384 64.510,140.784 59.378,136.392 56.739 L 135.126 55.978 119.900 55.978 L 104.674 55.978 104.618 74.076 L 104.563 92.174 100.434 92.174 L 96.304 92.174 96.304 70.254 C 96.304 58.197,96.373 48.264,96.458 48.180 C 96.894 47.744,135.727 48.154,137.293 48.610 M260.711 48.175 C 260.825 48.289,259.983 49.650,256.756 54.565 L 255.971 55.761 241.953 55.878 C 229.653 55.982,227.808 56.040,226.903 56.357 C 213.486 61.050,213.261 79.017,226.558 83.874 L 228.152 84.456 244.728 84.519 C 254.237 84.554,261.304 84.663,261.304 84.774 C 261.304 85.009,259.671 87.681,257.943 90.272 L 256.674 92.174 242.739 92.173 C 231.912 92.172,228.392 92.105,226.957 91.871 C 212.308 89.487,204.310 73.958,210.776 60.452 C 214.009 53.698,220.827 48.915,228.152 48.261 C 230.277 48.071,260.527 47.991,260.711 48.175 M273.913 66.304 L 274.022 84.457 293.750 84.512 C 304.601 84.543,313.478 84.617,313.478 84.677 C 313.478 84.738,312.954 85.593,312.312 86.578 C 311.671 87.563,310.594 89.226,309.920 90.272 L 308.693 92.174 288.794 92.174 C 269.473 92.174,268.872 92.162,268.062 91.749 C 267.011 91.212,266.169 90.220,265.879 89.178 C 265.626 88.265,265.550 48.435,265.802 48.184 C 265.884 48.101,267.718 48.061,269.878 48.093 L 273.804 48.152 273.913 66.304 M364.130 48.181 C 364.130 48.398,363.356 49.659,361.245 52.880 L 359.286 55.870 345.893 55.877 C 331.021 55.886,331.000 55.887,328.126 57.296 C 324.991 58.832,320.870 63.688,320.870 65.846 L 320.870 66.304 341.183 66.304 C 353.826 66.304,361.544 66.383,361.624 66.512 C 361.695 66.626,360.989 67.873,360.055 69.283 C 359.122 70.694,358.088 72.313,357.757 72.880 L 357.156 73.913 339.013 73.913 C 318.666 73.913,320.536 73.752,321.124 75.457 C 322.108 78.309,325.159 81.599,328.180 83.066 C 331.281 84.573,331.069 84.557,348.859 84.561 C 359.453 84.564,364.783 84.639,364.783 84.785 C 364.783 84.906,364.355 85.664,363.832 86.470 C 363.310 87.276,362.270 88.889,361.522 90.054 L 360.162 92.174 346.005 92.170 C 328.814 92.165,327.451 91.985,322.682 89.095 C 304.390 78.010,311.077 49.518,332.283 48.190 C 334.435 48.055,364.130 48.047,364.130 48.181 M371.644 48.962 C 368.857 49.974,368.067 53.429,370.147 55.509 C 373.195 58.557,378.491 54.932,376.543 51.133 C 375.546 49.188,373.508 48.285,371.644 48.962 M374.800 49.625 C 376.438 50.729,376.991 52.696,376.155 54.449 C 375.688 55.429,375.583 55.415,374.952 54.287 C 374.441 53.374,374.439 53.343,374.823 52.710 C 375.819 51.071,374.977 49.763,372.826 49.607 C 371.247 49.493,371.314 49.130,372.915 49.130 C 373.752 49.130,374.266 49.265,374.800 49.625 M370.917 52.772 L 370.978 55.543 371.630 55.543 C 372.254 55.543,372.285 55.499,372.349 54.511 C 372.431 53.238,372.647 53.212,373.300 54.396 C 373.578 54.901,374.048 55.435,374.344 55.582 L 374.882 55.850 374.043 56.201 C 371.959 57.071,368.629 54.534,369.234 52.538 C 369.277 52.398,369.366 52.029,369.434 51.720 C 369.568 51.101,370.354 50.000,370.661 50.000 C 370.769 50.000,370.884 51.247,370.917 52.772 M374.385 50.360 C 374.881 50.809,374.906 52.002,374.433 52.722 C 374.107 53.220,374.114 53.314,374.542 54.135 C 375.342 55.670,374.469 55.765,373.575 54.239 C 372.780 52.882,372.174 52.889,372.174 54.254 C 372.174 55.160,372.131 55.242,371.685 55.178 C 371.213 55.111,370.836 51.316,371.197 50.272 C 371.345 49.843,373.892 49.913,374.385 50.360 M372.174 51.420 C 372.174 52.298,372.491 52.508,373.332 52.188 C 374.395 51.784,373.873 50.652,372.623 50.652 C 372.254 50.652,372.174 50.789,372.174 51.420 M373.134 51.002 C 373.612 51.185,373.564 51.678,373.040 51.958 C 372.551 52.220,372.237 51.802,372.470 51.196 C 372.611 50.829,372.652 50.817,373.134 51.002 M41.087 56.170 C 30.193 58.579,26.485 72.833,34.716 80.662 C 38.648 84.402,39.517 84.557,56.645 84.561 C 74.473 84.566,75.234 84.410,79.577 79.862 C 87.170 71.909,82.749 58.071,71.981 56.086 C 70.205 55.758,42.609 55.834,41.087 56.170 M71.957 56.393 C 86.413 59.900,86.885 79.724,72.609 83.820 C 70.857 84.322,45.884 84.578,42.733 84.125 C 27.229 81.899,26.196 60.216,41.413 56.407 C 43.039 56.000,70.285 55.987,71.957 56.393 M364.635 115.870 C 364.635 116.647,364.674 116.965,364.722 116.576 C 364.771 116.187,364.771 115.552,364.722 115.163 C 364.674 114.774,364.635 115.092,364.635 115.870 M63.098 117.772 C 85.307 117.802,121.649 117.802,143.859 117.772 C 166.068 117.741,147.897 117.716,103.478 117.716 C 59.060 117.716,40.889 117.741,63.098 117.772 M220.380 117.772 C 239.899 117.802,271.840 117.802,291.359 117.772 C 310.878 117.741,294.908 117.716,255.870 117.716 C 216.832 117.716,200.861 117.741,220.380 117.772 M336.685 117.772 C 341.736 117.804,350.003 117.804,355.054 117.772 C 360.106 117.739,355.973 117.713,345.870 117.713 C 335.766 117.713,331.633 117.739,336.685 117.772 M138.122 141.739 C 138.122 142.875,138.158 143.340,138.203 142.772 C 138.248 142.204,138.248 141.274,138.203 140.707 C 138.158 140.139,138.122 140.603,138.122 141.739 M204.451 154.565 C 204.451 162.755,204.478 166.106,204.511 162.011 C 204.544 157.916,204.544 151.215,204.511 147.120 C 204.478 143.024,204.451 146.375,204.451 154.565 M211.608 148.043 C 211.608 149.777,211.642 150.486,211.683 149.620 C 211.724 148.753,211.724 147.334,211.683 146.467 C 211.642 145.601,211.608 146.310,211.608 148.043 M350.736 148.043 C 350.736 149.538,350.771 150.149,350.813 149.402 C 350.856 148.655,350.856 147.432,350.813 146.685 C 350.771 145.938,350.736 146.549,350.736 148.043 M363.776 154.130 C 363.776 155.386,363.812 155.899,363.856 155.272 C 363.900 154.644,363.900 153.617,363.856 152.989 C 363.812 152.361,363.776 152.875,363.776 154.130 M211.608 160.652 C 211.608 162.386,211.642 163.095,211.683 162.228 C 211.724 161.361,211.724 159.943,211.683 159.076 C 211.642 158.209,211.608 158.918,211.608 160.652 M350.739 160.652 C 350.739 162.386,350.772 163.095,350.814 162.228 C 350.855 161.361,350.855 159.943,350.814 159.076 C 350.772 158.209,350.739 158.918,350.739 160.652 M297.026 161.522 C 297.026 162.299,297.066 162.617,297.114 162.228 C 297.162 161.840,297.162 161.204,297.114 160.815 C 297.066 160.427,297.026 160.745,297.026 161.522 M365.080 167.174 C 365.080 168.429,365.116 168.943,365.160 168.315 C 365.204 167.687,365.204 166.660,365.160 166.033 C 365.116 165.405,365.080 165.918,365.080 167.174 M308.641 165.375 C 309.030 165.423,309.666 165.423,310.054 165.375 C 310.443 165.326,310.125 165.287,309.348 165.287 C 308.571 165.287,308.253 165.326,308.641 165.375 M34.946 169.936 C 35.215 169.988,35.655 169.988,35.924 169.936 C 36.193 169.884,35.973 169.842,35.435 169.842 C 34.897 169.842,34.677 169.884,34.946 169.936 " stroke="none" fill="#ec9c94" fill-rule="evenodd"></path><path id="path4" d="M22.609 115.978 L 22.609 117.609 193.533 117.554 L 364.457 117.500 364.520 115.924 L 364.584 114.348 193.596 114.348 L 22.609 114.348 22.609 115.978 M308.152 138.673 C 306.749 138.883,305.141 139.344,305.290 139.492 C 305.353 139.556,305.730 139.507,306.127 139.382 C 308.537 138.625,312.048 138.576,314.377 139.268 C 315.832 139.700,315.984 139.506,314.556 139.039 C 313.299 138.628,309.790 138.427,308.152 138.673 M22.274 139.402 C 22.217 139.552,22.195 146.473,22.226 154.783 L 22.283 169.891 27.717 169.955 C 35.805 170.049,38.333 169.747,41.223 168.343 C 43.961 167.013,46.770 163.689,47.271 161.188 C 47.396 160.565,47.393 160.561,47.163 161.087 C 44.723 166.669,41.618 168.935,35.543 169.567 C 32.700 169.863,22.959 169.829,22.652 169.522 C 22.221 169.091,22.281 139.927,22.713 139.569 C 22.957 139.366,24.651 139.320,29.702 139.379 C 33.368 139.422,35.987 139.389,35.521 139.306 C 33.904 139.019,22.388 139.102,22.274 139.402 M78.958 139.615 C 78.534 140.449,77.778 142.633,77.879 142.734 C 77.931 142.786,78.250 142.119,78.588 141.251 C 79.372 139.238,79.087 139.355,83.202 139.351 C 87.378 139.347,86.915 139.010,88.254 143.030 C 89.113 145.608,89.549 146.670,89.554 146.196 C 89.556 146.076,89.034 144.462,88.395 142.609 L 87.234 139.239 83.221 139.180 C 79.240 139.122,79.207 139.125,78.958 139.615 M113.139 139.414 C 113.078 139.571,113.056 140.820,113.090 142.187 L 113.152 144.674 117.562 144.783 L 121.971 144.891 121.960 156.905 C 121.954 163.512,122.011 169.164,122.087 169.464 L 122.224 170.011 125.623 169.951 L 129.022 169.891 129.130 157.391 L 129.239 144.891 133.510 144.832 C 138.568 144.763,138.212 145.005,138.055 141.739 L 137.935 139.239 125.592 139.183 C 115.532 139.137,113.228 139.180,113.139 139.414 M165.066 139.615 C 164.940 139.886,164.525 140.989,164.144 142.065 C 163.762 143.141,163.371 144.217,163.274 144.457 C 163.177 144.696,162.786 145.772,162.405 146.848 C 162.023 147.924,161.628 149.000,161.525 149.239 C 161.423 149.478,161.193 150.114,161.014 150.652 C 160.836 151.190,160.279 152.755,159.778 154.130 C 158.200 158.463,157.815 159.627,157.926 159.737 C 157.985 159.796,158.077 159.709,158.131 159.542 C 158.422 158.641,159.621 155.264,159.783 154.891 C 159.886 154.652,160.281 153.576,160.660 152.500 C 161.040 151.424,161.694 149.614,162.115 148.478 C 162.536 147.342,162.958 146.168,163.051 145.870 C 163.145 145.571,163.531 144.495,163.908 143.478 C 164.285 142.462,164.746 141.190,164.931 140.652 C 165.388 139.328,165.299 139.355,169.267 139.351 C 173.206 139.347,173.041 139.283,173.669 141.066 C 174.038 142.114,174.365 142.703,174.334 142.264 C 174.326 142.155,174.102 141.429,173.836 140.652 L 173.352 139.239 169.324 139.180 C 165.321 139.121,165.294 139.124,165.066 139.615 M204.665 139.402 C 204.608 139.552,204.587 146.473,204.618 154.783 L 204.674 169.891 211.196 169.956 C 217.293 170.017,221.233 169.809,222.127 169.381 C 222.332 169.282,223.185 168.877,224.022 168.479 C 227.138 167.001,229.168 163.964,228.765 161.384 C 228.200 157.759,226.939 155.880,224.107 154.445 C 223.026 153.897,222.982 153.844,223.381 153.561 C 223.614 153.395,224.296 152.880,224.898 152.416 C 229.629 148.761,227.041 140.382,220.960 139.667 L 220.109 139.567 221.087 139.858 C 228.082 141.938,229.374 150.403,223.148 153.357 C 222.331 153.745,222.240 154.190,222.953 154.308 C 228.146 155.170,230.271 162.778,226.376 166.564 C 223.612 169.249,221.790 169.657,212.500 169.666 L 204.891 169.674 204.891 154.565 L 204.891 139.457 212.439 139.457 C 216.590 139.457,219.818 139.390,219.613 139.309 C 218.877 139.018,204.778 139.106,204.665 139.402 M258.845 139.837 C 258.366 140.847,257.778 142.633,257.889 142.744 C 257.940 142.795,258.269 142.077,258.619 141.147 L 259.255 139.457 262.966 139.397 C 267.357 139.327,266.849 138.989,268.157 142.845 C 268.701 144.449,269.194 145.897,269.252 146.064 C 269.310 146.230,269.404 146.321,269.460 146.265 C 269.550 146.175,268.966 144.326,267.723 140.761 C 267.129 139.056,267.342 139.130,263.042 139.130 L 259.180 139.130 258.845 139.837 M343.966 154.076 L 344.019 169.022 344.076 154.183 L 344.133 139.343 354.186 139.400 L 364.239 139.457 364.301 141.902 L 364.362 144.348 357.670 144.351 C 353.990 144.353,350.853 144.434,350.701 144.531 C 350.491 144.664,350.438 145.523,350.483 148.060 L 350.543 151.413 356.957 151.522 L 363.370 151.630 363.431 154.073 L 363.492 156.515 357.018 156.573 L 350.543 156.630 350.484 160.527 C 350.439 163.500,350.490 164.466,350.701 164.600 C 350.854 164.697,354.087 164.777,357.888 164.779 L 364.797 164.783 364.735 167.228 L 364.674 169.674 354.293 169.674 C 348.584 169.674,343.913 169.748,343.913 169.839 C 343.913 169.930,348.633 169.979,354.402 169.948 L 364.891 169.891 364.891 167.174 L 364.891 164.457 357.772 164.399 L 350.652 164.342 350.652 160.649 L 350.652 156.957 356.930 156.957 C 364.372 156.957,363.733 157.249,363.649 153.882 L 363.587 151.413 357.174 151.304 L 350.761 151.196 350.701 147.989 L 350.641 144.783 357.471 144.783 C 363.499 144.783,364.317 144.742,364.433 144.439 C 364.605 143.992,364.605 139.922,364.433 139.474 C 364.316 139.168,363.202 139.130,354.107 139.130 L 343.913 139.130 343.966 154.076 M137.779 141.902 L 137.840 144.348 133.638 144.348 C 130.659 144.348,129.359 144.424,129.174 144.609 C 128.977 144.805,128.913 147.870,128.913 157.065 C 128.913 166.261,128.849 169.325,128.652 169.522 C 128.259 169.915,122.744 169.882,122.415 169.485 C 122.236 169.269,122.170 165.791,122.178 156.948 C 122.183 150.217,122.109 144.630,122.012 144.534 C 121.915 144.437,119.931 144.331,117.603 144.298 L 113.370 144.239 113.307 142.097 C 113.218 139.033,111.827 139.335,125.735 139.400 L 137.717 139.457 137.779 141.902 M37.717 139.889 C 39.437 140.326,40.929 140.886,41.555 141.330 C 41.873 141.555,42.199 141.739,42.280 141.739 C 43.155 141.739,46.001 145.200,46.732 147.154 C 47.007 147.890,47.281 148.444,47.340 148.384 C 47.509 148.216,46.495 145.857,45.839 144.891 C 43.994 142.176,39.542 139.469,37.116 139.589 C 36.849 139.602,37.120 139.738,37.717 139.889 M303.073 140.279 C 300.883 141.386,298.232 144.561,298.271 146.030 C 298.277 146.241,298.457 145.964,298.672 145.415 C 299.565 143.131,301.185 141.469,303.696 140.258 C 304.473 139.883,304.962 139.577,304.783 139.578 C 304.603 139.579,303.834 139.894,303.073 140.279 M315.870 139.664 C 315.870 139.718,316.236 139.934,316.685 140.144 C 318.992 141.224,321.082 144.588,321.086 147.228 L 321.087 148.043 317.986 148.043 L 314.886 148.043 314.620 146.928 C 314.110 144.780,312.854 143.780,310.386 143.557 C 308.091 143.350,305.211 144.879,305.219 146.300 C 305.221 146.482,305.464 146.226,305.760 145.732 C 307.558 142.732,313.669 143.422,314.259 146.691 C 314.551 148.308,314.437 148.261,318.051 148.261 L 321.304 148.261 321.301 147.120 C 321.295 145.034,320.353 142.994,318.651 141.384 C 317.384 140.186,315.870 139.249,315.870 139.664 M174.348 142.691 C 174.348 142.776,174.699 143.844,175.127 145.064 C 175.556 146.284,175.985 147.576,176.080 147.935 C 176.176 148.293,176.516 149.321,176.836 150.217 C 177.157 151.114,177.464 151.984,177.519 152.151 C 177.574 152.317,177.664 152.409,177.719 152.354 C 177.834 152.238,177.225 150.309,175.679 145.897 C 174.687 143.065,174.348 142.249,174.348 142.691 M77.009 144.825 C 76.168 147.164,75.994 147.754,76.204 147.555 C 76.363 147.405,76.683 146.583,77.528 144.164 C 77.709 143.645,77.813 143.175,77.758 143.120 C 77.703 143.065,77.366 143.833,77.009 144.825 M257.122 144.510 C 256.325 146.609,256.070 147.447,256.190 147.566 C 256.247 147.624,256.338 147.535,256.392 147.368 C 256.446 147.202,256.799 146.202,257.178 145.147 C 257.985 142.898,257.937 142.358,257.122 144.510 M29.138 144.768 C 28.829 145.345,28.829 163.786,29.138 164.362 C 29.398 164.849,31.287 164.927,34.062 164.566 C 39.382 163.875,41.677 159.772,40.921 152.300 C 40.348 146.629,37.509 144.370,30.932 144.352 C 29.601 144.348,29.329 144.412,29.138 144.768 M211.576 144.480 C 211.375 144.570,211.304 145.503,211.304 148.057 L 211.304 151.513 211.875 151.657 C 215.019 152.446,220.435 150.977,220.435 149.336 C 220.435 149.188,220.211 149.399,219.938 149.805 C 219.070 151.096,218.246 151.325,214.719 151.256 L 211.630 151.196 211.630 148.043 L 211.630 144.891 214.719 144.831 C 218.246 144.762,219.070 144.991,219.938 146.282 C 220.211 146.688,220.435 146.884,220.435 146.717 C 220.434 146.212,219.461 145.244,218.563 144.853 C 217.718 144.487,212.217 144.192,211.576 144.480 M35.239 145.018 C 37.455 145.725,39.033 146.934,39.679 148.418 C 39.876 148.870,40.128 149.412,40.239 149.622 C 40.681 150.458,40.930 154.500,40.683 156.842 C 40.101 162.354,37.584 164.455,31.739 164.304 L 29.239 164.239 29.182 154.783 C 29.151 149.582,29.173 145.204,29.230 145.054 C 29.364 144.706,34.170 144.677,35.239 145.018 M82.062 147.876 C 81.270 150.326,81.178 150.817,81.725 149.674 C 81.954 149.196,82.149 148.632,82.158 148.421 C 82.167 148.210,82.262 147.868,82.369 147.660 C 82.476 147.452,82.657 147.040,82.770 146.743 C 82.950 146.269,83.078 146.522,83.808 148.803 C 84.267 150.232,84.676 151.297,84.719 151.170 C 84.833 150.828,83.190 146.019,82.932 145.937 C 82.810 145.899,82.419 146.771,82.062 147.876 M168.681 146.444 C 168.131 147.872,167.801 148.960,167.890 149.049 C 167.942 149.102,168.206 148.554,168.476 147.833 C 168.978 146.490,169.240 146.231,169.415 146.902 C 169.494 147.204,169.520 147.187,169.540 146.820 C 169.585 145.993,168.960 145.720,168.681 146.444 M262.609 146.190 C 262.609 146.387,262.702 146.490,262.815 146.420 C 262.929 146.349,263.137 146.710,263.278 147.222 C 263.675 148.670,264.183 150.020,264.290 149.912 C 264.386 149.817,264.324 149.596,263.535 147.191 C 263.161 146.054,262.609 145.457,262.609 146.190 M89.572 146.586 C 89.568 146.681,89.916 147.757,90.345 148.977 C 90.773 150.197,91.202 151.489,91.298 151.848 C 91.393 152.207,91.733 153.234,92.054 154.130 C 92.374 155.027,92.681 155.897,92.736 156.064 C 92.791 156.230,92.881 156.322,92.936 156.267 C 93.046 156.157,92.508 154.438,90.974 150.000 C 90.019 147.239,89.587 146.187,89.572 146.586 M269.572 146.605 C 269.565 146.794,270.096 148.400,271.772 153.261 C 272.246 154.636,272.679 155.897,272.735 156.064 C 272.791 156.230,272.882 156.321,272.938 156.265 C 272.994 156.209,272.712 155.192,272.311 154.005 C 269.880 146.817,269.591 146.036,269.572 146.605 M297.958 146.866 C 297.780 147.329,297.818 150.012,298.009 150.495 C 298.093 150.708,298.160 149.901,298.157 148.702 C 298.152 146.345,298.153 146.357,297.958 146.866 M262.116 147.658 C 261.520 149.292,261.258 150.243,261.372 150.357 C 261.432 150.418,261.546 150.240,261.624 149.962 C 261.702 149.684,261.845 149.261,261.940 149.022 C 262.327 148.053,262.643 146.918,262.551 146.827 C 262.498 146.773,262.302 147.147,262.116 147.658 M305.050 147.391 C 305.050 147.810,305.095 147.981,305.150 147.772 C 305.205 147.563,305.205 147.220,305.150 147.011 C 305.095 146.802,305.050 146.973,305.050 147.391 M220.494 148.043 C 220.494 148.582,220.536 148.802,220.588 148.533 C 220.640 148.264,220.640 147.823,220.588 147.554 C 220.536 147.285,220.494 147.505,220.494 148.043 M169.583 147.476 C 169.553 147.798,171.133 152.635,171.235 152.534 C 171.286 152.482,171.090 151.621,170.799 150.622 C 170.268 148.799,169.616 147.114,169.583 147.476 M75.270 149.608 C 74.429 151.946,74.255 152.537,74.465 152.338 C 74.623 152.187,74.944 151.366,75.789 148.947 C 75.970 148.427,76.073 147.957,76.019 147.903 C 75.964 147.848,75.627 148.615,75.270 149.608 M255.382 149.292 C 254.586 151.392,254.331 152.229,254.450 152.349 C 254.508 152.406,254.599 152.317,254.653 152.151 C 254.707 151.984,255.060 150.985,255.439 149.930 C 256.246 147.680,256.198 147.141,255.382 149.292 M305.217 148.564 C 305.217 149.806,307.292 151.008,310.671 151.725 C 311.199 151.837,311.973 152.024,312.391 152.141 C 312.810 152.258,313.723 152.510,314.421 152.701 C 319.671 154.137,321.828 156.454,321.825 160.652 C 321.821 165.295,318.908 168.657,313.913 169.781 C 312.313 170.141,311.552 170.484,312.717 170.319 C 317.420 169.655,321.209 166.494,321.976 162.597 C 322.912 157.840,320.894 154.726,315.652 152.839 C 315.234 152.688,314.696 152.488,314.457 152.393 C 314.217 152.299,313.043 152.000,311.848 151.729 C 307.872 150.828,305.652 149.859,305.652 149.024 C 305.652 148.857,305.554 148.661,305.435 148.587 C 305.315 148.513,305.217 148.503,305.217 148.564 M47.510 149.348 C 48.227 153.580,48.227 155.550,47.510 159.783 C 47.417 160.330,47.435 160.421,47.576 160.109 C 48.524 158.000,48.524 151.130,47.576 149.022 C 47.435 148.709,47.417 148.801,47.510 149.348 M166.877 151.710 C 166.442 153.018,166.094 154.171,166.103 154.272 C 166.133 154.613,166.924 152.723,166.940 152.272 C 166.949 152.027,167.038 151.733,167.137 151.620 C 167.372 151.351,167.885 149.551,167.761 149.428 C 167.709 149.376,167.311 150.403,166.877 151.710 M264.348 150.417 C 264.348 150.526,264.886 152.260,265.543 154.269 C 266.201 156.278,266.739 157.949,266.739 157.982 C 266.739 158.016,264.968 158.043,262.803 158.043 C 259.469 158.043,258.885 157.996,258.986 157.731 C 259.052 157.559,259.217 157.008,259.352 156.507 C 259.487 156.005,259.686 155.436,259.794 155.243 C 260.110 154.677,261.305 150.798,261.196 150.689 C 261.142 150.635,261.053 150.726,260.999 150.893 C 260.733 151.715,259.871 154.209,259.318 155.761 C 258.348 158.481,258.039 158.261,262.826 158.261 C 267.273 158.261,267.216 158.277,266.757 157.130 C 266.647 156.855,266.096 155.188,265.532 153.424 C 264.593 150.488,264.348 149.864,264.348 150.417 M80.995 150.893 C 80.939 151.059,80.594 152.059,80.229 153.115 C 79.587 154.973,79.427 155.645,79.693 155.380 C 79.906 155.167,81.308 150.801,81.199 150.692 C 81.143 150.636,81.051 150.726,80.995 150.893 M298.261 151.194 C 298.261 151.783,300.244 154.348,300.699 154.348 C 300.817 154.348,300.414 153.802,299.804 153.135 C 299.195 152.467,298.696 151.788,298.696 151.626 C 298.696 151.463,298.598 151.270,298.478 151.196 C 298.359 151.122,298.261 151.121,298.261 151.194 M84.783 151.715 C 84.783 151.822,85.222 153.265,85.760 154.922 C 86.298 156.579,86.738 157.959,86.738 157.989 C 86.739 158.019,84.978 158.043,82.826 158.043 C 80.674 158.043,78.913 158.012,78.913 157.974 C 78.913 157.935,79.071 157.441,79.264 156.875 C 79.456 156.309,79.555 155.787,79.482 155.714 C 79.410 155.642,79.289 155.894,79.213 156.274 C 79.137 156.654,78.989 157.018,78.885 157.083 C 78.781 157.147,78.696 157.438,78.696 157.730 L 78.696 158.261 82.826 158.261 C 87.273 158.261,87.216 158.277,86.756 157.130 C 86.646 156.855,86.193 155.481,85.749 154.076 C 85.010 151.741,84.783 151.184,84.783 151.715 M73.854 153.528 C 73.668 154.039,73.207 155.337,72.830 156.413 C 72.453 157.489,72.060 158.565,71.957 158.804 C 71.853 159.043,71.462 160.120,71.087 161.196 C 70.712 162.272,70.324 163.348,70.225 163.587 C 69.701 164.847,69.520 165.462,69.640 165.582 C 69.713 165.655,69.816 165.578,69.870 165.412 C 70.128 164.613,71.355 161.145,71.515 160.761 C 71.615 160.522,71.910 159.739,72.170 159.022 C 72.430 158.304,72.733 157.548,72.843 157.340 C 72.953 157.132,73.043 156.813,73.043 156.630 C 73.043 156.448,73.137 156.129,73.251 155.921 C 73.589 155.305,74.396 152.802,74.290 152.696 C 74.237 152.643,74.041 153.017,73.854 153.528 M177.833 152.667 C 177.829 152.758,178.126 153.737,178.493 154.841 C 178.860 155.945,179.205 156.984,179.259 157.151 C 179.313 157.317,179.412 157.399,179.478 157.333 C 179.544 157.267,179.286 156.300,178.905 155.183 C 178.240 153.235,177.847 152.312,177.833 152.667 M253.531 154.391 C 252.589 157.012,252.523 157.252,252.803 157.080 C 252.935 156.998,253.043 156.821,253.043 156.688 C 253.043 156.554,253.346 155.623,253.716 154.619 C 254.086 153.615,254.341 152.747,254.284 152.690 C 254.227 152.633,253.888 153.398,253.531 154.391 M171.382 153.118 C 171.460 153.338,171.582 153.779,171.653 154.096 C 171.724 154.414,172.029 155.388,172.329 156.261 C 173.009 158.234,173.348 158.064,168.856 157.994 L 165.040 157.935 165.555 156.313 C 165.838 155.422,166.026 154.650,165.974 154.598 C 165.922 154.546,165.836 154.639,165.783 154.806 C 165.729 154.972,165.483 155.675,165.234 156.367 C 164.504 158.401,164.232 158.261,168.913 158.261 C 173.611 158.261,173.337 158.404,172.638 156.319 C 172.415 155.653,172.104 154.668,171.948 154.130 C 171.791 153.592,171.568 153.054,171.452 152.935 C 171.314 152.793,171.289 152.856,171.382 153.118 M301.362 154.744 C 302.056 155.578,305.145 156.712,309.463 157.718 C 314.808 158.964,316.568 161.846,313.424 164.203 C 309.850 166.882,304.656 165.190,304.279 161.223 C 304.146 159.826,304.056 159.790,300.724 159.786 C 297.006 159.782,297.174 159.694,297.174 161.646 C 297.174 166.142,300.635 169.857,305.247 170.311 C 306.371 170.421,306.382 170.417,305.543 170.204 C 299.925 168.774,297.227 165.875,297.435 161.488 L 297.500 160.109 300.652 160.109 L 303.804 160.109 303.923 161.196 C 304.304 164.694,307.698 166.511,311.627 165.319 C 315.972 164.001,316.182 159.402,311.957 158.116 C 310.599 157.703,306.681 156.718,305.818 156.573 C 305.490 156.518,304.300 156.019,303.172 155.465 C 302.045 154.910,301.230 154.586,301.362 154.744 M93.050 156.605 C 93.041 156.875,94.320 160.683,94.573 161.138 C 94.688 161.346,94.783 161.632,94.783 161.775 C 94.783 161.917,95.083 162.872,95.451 163.897 C 95.818 164.922,96.163 165.897,96.217 166.064 C 96.271 166.230,96.364 166.317,96.425 166.256 C 96.485 166.196,96.136 164.984,95.648 163.562 C 95.161 162.141,94.473 160.114,94.120 159.057 C 93.503 157.209,93.064 156.203,93.050 156.605 M273.050 156.605 C 273.044 156.794,273.574 158.400,275.250 163.261 C 275.724 164.636,276.157 165.897,276.213 166.064 C 276.269 166.230,276.360 166.321,276.417 166.265 C 276.473 166.209,276.171 165.143,275.747 163.897 C 275.322 162.650,274.630 160.605,274.209 159.352 C 273.476 157.169,273.064 156.194,273.050 156.605 M211.304 160.648 L 211.304 164.557 211.870 164.699 C 213.148 165.020,218.540 164.654,219.628 164.173 C 221.319 163.425,222.065 160.851,221.194 158.767 C 220.467 157.026,219.576 156.742,214.837 156.740 L 211.304 156.739 211.304 160.648 M219.176 157.244 C 221.047 157.896,221.888 160.289,220.996 162.424 C 220.313 164.059,219.408 164.348,214.968 164.348 L 211.522 164.348 211.522 160.652 L 211.522 156.957 214.946 156.960 C 217.174 156.962,218.651 157.061,219.176 157.244 M251.792 159.173 C 250.951 161.512,250.777 162.102,250.987 161.903 C 251.145 161.753,251.466 160.931,252.310 158.512 C 252.492 157.993,252.595 157.523,252.540 157.468 C 252.486 157.413,252.149 158.181,251.792 159.173 M179.565 157.828 C 179.565 157.989,179.866 158.959,180.233 159.984 C 180.601 161.009,180.946 161.984,180.999 162.151 C 181.053 162.317,181.143 162.408,181.199 162.352 C 181.308 162.242,179.906 157.877,179.693 157.664 C 179.623 157.594,179.565 157.668,179.565 157.828 M157.122 161.466 C 156.325 163.566,156.070 164.403,156.190 164.523 C 156.247 164.580,156.338 164.491,156.392 164.325 C 156.446 164.158,156.799 163.159,157.178 162.103 C 157.985 159.854,157.937 159.315,157.122 161.466 M250.029 164.010 C 249.153 166.431,248.994 167.066,249.316 166.867 C 249.453 166.783,249.565 166.522,249.565 166.289 C 249.565 166.055,249.658 165.694,249.772 165.486 C 250.121 164.850,250.916 162.365,250.806 162.255 C 250.748 162.198,250.399 162.987,250.029 164.010 M181.311 162.692 C 181.307 162.797,181.604 163.775,181.970 164.866 C 182.336 165.956,182.680 166.984,182.736 167.151 C 182.791 167.317,182.884 167.406,182.942 167.348 C 183.000 167.290,182.744 166.322,182.373 165.197 C 181.726 163.232,181.325 162.287,181.311 162.692 M77.035 163.427 C 76.763 163.603,76.080 165.127,76.099 165.516 C 76.106 165.651,76.345 165.247,76.631 164.620 L 77.149 163.478 82.651 163.482 C 85.677 163.483,88.264 163.557,88.401 163.645 C 88.539 163.732,89.081 165.077,89.606 166.632 C 90.131 168.187,90.636 169.581,90.728 169.729 C 90.850 169.926,91.814 170.000,94.276 170.000 L 97.657 170.000 97.512 169.185 C 97.341 168.219,96.715 166.473,96.586 166.602 C 96.537 166.652,96.696 167.302,96.940 168.046 C 97.526 169.830,97.604 169.783,94.107 169.783 L 91.065 169.783 90.724 168.967 C 90.536 168.519,90.085 167.231,89.720 166.105 C 88.733 163.055,89.235 163.260,82.772 163.264 C 79.753 163.266,77.171 163.339,77.035 163.427 M162.989 163.496 C 162.780 163.618,162.613 163.933,162.617 164.196 C 162.625 164.636,162.652 164.627,162.952 164.072 L 163.279 163.471 168.976 163.529 L 174.674 163.587 175.045 164.674 C 175.249 165.272,175.742 166.690,176.140 167.826 L 176.864 169.891 180.284 169.951 C 184.170 170.019,184.197 170.007,183.483 168.464 C 183.147 167.739,183.072 167.662,183.179 168.152 C 183.531 169.758,183.688 169.668,180.435 169.728 C 176.853 169.795,177.214 170.055,175.996 166.530 C 175.440 164.920,174.866 163.528,174.721 163.435 C 174.318 163.179,163.436 163.235,162.989 163.496 M256.980 163.459 C 256.813 163.565,256.545 164.028,256.385 164.489 C 255.927 165.805,256.061 165.874,256.632 164.616 L 257.153 163.471 262.860 163.529 L 268.567 163.587 268.988 164.843 C 269.219 165.534,269.454 166.054,269.509 165.998 C 269.663 165.844,268.881 163.608,268.609 163.427 C 268.266 163.199,257.343 163.229,256.980 163.459 M155.223 166.673 C 154.840 167.726,154.474 168.905,154.409 169.293 L 154.291 170.000 157.580 170.000 C 159.389 170.000,160.870 169.975,160.870 169.945 C 160.870 169.914,161.121 169.205,161.428 168.369 C 162.440 165.611,162.641 164.960,162.521 164.840 C 162.455 164.774,162.357 164.857,162.302 165.023 C 160.605 170.209,161.050 169.775,157.428 169.779 L 154.531 169.783 154.684 169.083 C 154.769 168.699,154.915 168.234,155.009 168.051 C 155.352 167.382,156.121 164.961,156.021 164.862 C 155.965 164.806,155.606 165.621,155.223 166.673 M69.048 166.867 C 68.835 167.454,68.576 168.130,68.470 168.370 C 68.269 168.825,68.192 169.272,68.235 169.728 C 68.254 169.932,69.061 170.000,71.469 170.000 L 74.676 170.000 74.932 169.402 C 75.396 168.317,76.089 166.017,75.983 165.911 C 75.926 165.854,75.835 165.944,75.781 166.110 C 74.480 170.083,74.840 169.783,71.386 169.783 C 68.053 169.783,68.203 169.914,69.030 167.715 C 69.334 166.908,69.549 166.147,69.508 166.024 C 69.467 165.901,69.260 166.280,69.048 166.867 M255.781 166.110 C 254.480 170.083,254.840 169.783,251.386 169.783 C 248.125 169.783,248.208 169.834,248.804 168.160 C 249.145 167.203,249.054 166.782,248.702 167.687 C 248.579 168.003,248.383 168.505,248.267 168.802 C 247.829 169.926,248.029 170.000,251.507 170.000 L 254.708 170.000 255.400 168.010 C 255.780 166.915,256.044 165.972,255.986 165.913 C 255.928 165.855,255.835 165.944,255.781 166.110 M269.607 166.522 C 269.666 166.701,269.887 167.386,270.100 168.043 C 270.747 170.044,270.412 169.891,274.154 169.891 L 277.500 169.891 277.449 169.048 C 277.421 168.584,277.312 168.095,277.207 167.961 C 277.102 167.827,276.949 167.437,276.867 167.094 C 276.785 166.751,276.660 166.529,276.589 166.600 C 276.518 166.671,276.675 167.319,276.938 168.039 C 277.580 169.800,277.607 169.783,274.125 169.783 C 270.722 169.783,271.024 169.938,270.314 167.826 C 270.093 167.168,269.820 166.533,269.707 166.413 C 269.574 166.272,269.539 166.311,269.607 166.522 M307.880 170.595 C 308.568 170.639,309.693 170.639,310.380 170.595 C 311.068 170.552,310.505 170.517,309.130 170.517 C 307.755 170.517,307.193 170.552,307.880 170.595 " stroke="none" fill="#9c9c9c" fill-rule="evenodd"></path></g></svg>