<svg id="svg" version="1.1" xmlns="http://www.w3.org/2000/svg" xmlns:xlink="http://www.w3.org/1999/xlink" width="400" height="420.95238095238096" viewBox="0, 0, 400,420.95238095238096"><g id="svgg"><path id="path0" d="M208.934 20.314 C 207.798 20.721,206.088 21.642,205.134 22.361 C 203.564 23.545,190.538 32.202,166.581 47.985 C 161.752 51.167,149.880 59.011,140.200 65.415 C 130.520 71.820,117.470 80.448,111.200 84.589 C 88.236 99.755,89.647 98.743,89.365 100.247 C 89.225 100.993,89.202 143.317,89.314 194.301 C 89.521 289.017,89.558 291.274,90.944 295.608 C 91.048 295.934,91.234 296.664,91.357 297.231 C 91.638 298.528,91.661 298.538,103.800 302.808 C 109.300 304.742,118.750 308.076,124.800 310.216 C 130.850 312.356,137.240 314.603,139.000 315.210 C 140.760 315.816,146.880 317.970,152.600 319.997 C 165.442 324.547,176.712 328.511,181.200 330.056 C 183.070 330.700,185.770 331.658,187.200 332.184 C 188.630 332.710,191.600 333.771,193.800 334.540 C 197.518 335.841,211.705 340.832,225.800 345.799 C 229.100 346.962,233.150 348.395,234.800 348.983 C 236.450 349.570,240.050 350.831,242.800 351.783 C 250.160 354.333,260.228 357.887,263.200 358.985 C 264.630 359.513,266.610 360.216,267.600 360.546 C 268.590 360.877,272.010 362.068,275.200 363.192 C 278.390 364.317,282.586 365.791,284.524 366.467 L 288.048 367.696 290.724 366.488 C 292.196 365.824,303.271 360.917,315.335 355.585 C 327.400 350.253,337.074 345.769,336.833 345.620 C 336.068 345.147,89.978 99.089,90.124 98.943 C 90.471 98.596,276.102 98.841,279.418 99.193 C 283.206 99.594,288.565 100.614,289.344 101.081 C 289.680 101.282,289.684 101.202,289.359 100.777 C 289.116 100.460,286.866 94.298,284.359 87.084 L 279.800 73.968 256.400 50.664 C 230.718 25.088,229.230 23.810,222.072 21.179 C 217.568 19.524,212.140 19.167,208.934 20.314 M291.700 102.282 C 290.469 102.519,290.379 102.114,293.758 111.492 C 294.331 113.083,294.800 114.643,294.800 114.959 C 294.800 115.275,294.935 115.593,295.100 115.667 C 295.265 115.740,295.828 117.150,296.351 118.800 C 296.875 120.450,297.528 122.340,297.804 123.000 C 298.080 123.660,298.522 124.920,298.787 125.800 C 299.052 126.680,299.504 127.940,299.791 128.600 C 300.573 130.401,304.464 141.652,304.701 142.800 C 304.814 143.350,305.034 143.980,305.189 144.200 C 305.344 144.420,306.238 146.850,307.174 149.600 C 308.111 152.350,309.041 154.960,309.241 155.400 C 309.440 155.840,310.128 157.730,310.768 159.600 C 311.408 161.470,312.680 165.070,313.594 167.600 C 314.509 170.130,316.423 175.530,317.849 179.600 C 319.276 183.670,320.990 188.530,321.659 190.400 C 322.327 192.270,323.211 194.790,323.621 196.000 C 324.032 197.210,325.109 200.270,326.016 202.800 C 326.922 205.330,327.940 208.300,328.277 209.400 C 328.615 210.500,329.051 211.571,329.246 211.780 C 329.440 211.989,329.600 212.463,329.600 212.834 C 329.600 213.205,329.869 214.024,330.198 214.654 C 330.526 215.284,330.796 216.104,330.798 216.476 C 330.799 216.848,330.980 217.264,331.200 217.400 C 331.420 217.536,331.600 217.993,331.600 218.416 C 331.600 219.062,332.677 222.146,334.039 225.400 C 334.223 225.840,335.030 228.180,335.831 230.600 C 336.633 233.020,337.518 235.540,337.798 236.200 C 338.079 236.860,338.532 238.120,338.806 239.000 C 339.081 239.880,339.550 241.230,339.850 242.000 C 340.593 243.908,342.580 249.481,343.986 253.600 C 344.624 255.470,345.891 259.070,346.801 261.600 C 347.711 264.130,348.724 267.100,349.052 268.200 C 349.381 269.300,349.884 270.740,350.170 271.400 C 350.456 272.060,351.101 273.860,351.603 275.400 C 352.105 276.940,352.739 278.740,353.012 279.400 C 353.285 280.060,353.732 281.320,354.005 282.200 C 354.279 283.080,354.687 284.250,354.913 284.800 C 355.513 286.262,357.927 293.088,358.639 295.337 C 359.224 297.184,359.212 297.361,358.369 299.137 C 357.882 300.162,357.053 301.990,356.526 303.200 C 355.999 304.410,355.313 305.940,355.001 306.600 C 354.689 307.260,353.773 309.330,352.964 311.200 C 352.156 313.070,350.888 315.909,350.147 317.509 C 349.406 319.109,348.800 320.546,348.800 320.702 C 348.800 320.859,348.360 321.890,347.822 322.994 C 347.284 324.097,346.448 325.900,345.964 327.000 C 345.480 328.100,344.644 329.990,344.105 331.200 C 343.566 332.410,342.805 334.120,342.414 335.000 C 342.023 335.880,341.033 338.100,340.214 339.933 C 338.275 344.275,337.881 345.621,338.635 345.331 C 338.946 345.212,339.200 344.934,339.200 344.714 C 339.200 344.494,339.470 344.418,339.800 344.545 C 340.130 344.671,340.400 344.586,340.400 344.354 C 340.400 344.123,340.623 344.008,340.896 344.099 C 341.169 344.190,341.648 344.009,341.960 343.698 C 342.271 343.386,342.942 343.210,343.449 343.307 C 343.957 343.404,344.431 343.308,344.502 343.093 C 344.574 342.878,345.315 342.648,346.150 342.581 C 347.014 342.513,347.885 342.163,348.174 341.768 C 348.474 341.358,348.995 341.158,349.452 341.277 C 349.876 341.388,350.450 341.236,350.728 340.939 C 351.005 340.643,351.955 340.400,352.839 340.400 C 353.724 340.400,354.353 340.247,354.237 340.060 C 354.122 339.874,354.578 339.705,355.251 339.686 C 355.924 339.667,356.701 339.342,356.977 338.963 C 357.296 338.527,357.789 338.356,358.325 338.496 C 358.809 338.623,359.371 338.476,359.640 338.152 C 359.898 337.841,360.489 337.618,360.954 337.656 C 362.535 337.784,363.252 337.607,362.974 337.157 C 362.787 336.855,362.987 336.805,363.600 337.000 C 364.271 337.213,364.420 337.157,364.188 336.780 C 363.965 336.420,364.098 336.332,364.649 336.476 C 365.075 336.588,365.666 336.420,365.962 336.102 C 366.258 335.785,366.919 335.606,367.430 335.704 C 367.963 335.806,368.444 335.662,368.557 335.367 C 368.666 335.084,369.291 334.867,369.946 334.886 C 370.601 334.905,371.450 334.607,371.832 334.225 C 372.240 333.817,372.907 333.604,373.449 333.707 C 373.957 333.804,374.438 333.685,374.519 333.443 C 374.600 333.200,375.281 332.970,376.033 332.932 C 378.819 332.789,378.665 332.832,378.000 332.376 C 377.505 332.036,377.539 331.983,378.200 332.072 C 378.640 332.131,379.225 332.039,379.500 331.866 C 379.775 331.694,380.000 331.666,380.000 331.805 C 380.000 331.944,380.298 331.759,380.663 331.394 C 381.028 331.029,381.712 330.805,382.184 330.895 C 382.656 330.985,383.265 330.821,383.537 330.529 C 384.104 329.923,384.967 329.806,384.610 330.384 C 384.469 330.612,384.867 330.596,385.586 330.345 C 386.254 330.112,386.800 329.740,386.800 329.518 C 386.800 329.296,387.079 329.222,387.421 329.353 C 387.823 329.507,387.942 329.430,387.758 329.132 C 387.566 328.821,387.751 328.746,388.337 328.900 C 389.005 329.074,389.200 328.947,389.200 328.339 C 389.200 327.907,389.345 327.643,389.523 327.753 C 389.882 327.975,389.933 287.236,389.574 286.600 C 389.450 286.380,389.499 282.953,389.684 278.984 C 389.868 275.015,389.879 268.625,389.709 264.784 C 389.539 260.943,389.511 254.920,389.646 251.400 C 390.115 239.186,390.048 228.801,389.500 228.794 C 389.125 228.789,389.118 228.713,389.471 228.488 C 390.046 228.122,390.130 184.000,389.556 184.000 C 389.360 184.000,389.200 183.809,389.200 183.576 C 389.200 183.343,389.425 183.276,389.700 183.428 C 389.975 183.579,382.018 175.496,372.017 165.467 C 362.017 155.438,353.754 147.313,353.654 147.412 C 353.384 147.683,352.381 146.755,352.586 146.423 C 352.683 146.266,351.656 145.072,350.303 143.769 C 348.951 142.466,348.105 141.760,348.422 142.200 C 348.955 142.937,348.946 142.957,348.304 142.455 C 347.922 142.155,347.691 141.776,347.792 141.613 C 347.979 141.310,346.072 139.319,345.768 139.500 C 345.675 139.555,345.645 139.513,345.700 139.406 C 345.867 139.084,336.276 129.629,335.973 129.817 C 335.818 129.913,335.445 129.678,335.145 129.296 C 334.642 128.653,334.661 128.645,335.400 129.188 C 336.003 129.631,335.964 129.511,335.242 128.700 C 334.715 128.109,334.085 127.738,333.842 127.876 C 333.599 128.015,333.539 127.975,333.709 127.788 C 334.111 127.347,330.791 123.958,330.272 124.279 C 330.054 124.414,329.986 124.346,330.120 124.130 C 330.254 123.913,329.381 122.767,328.182 121.582 C 326.982 120.397,326.000 119.563,326.000 119.728 C 326.000 119.893,325.635 119.833,325.189 119.594 C 324.743 119.355,324.471 119.009,324.584 118.825 C 324.698 118.641,324.489 118.245,324.119 117.945 C 323.559 117.492,323.501 117.491,323.772 117.941 C 323.988 118.300,323.745 118.251,323.053 117.798 C 322.477 117.421,322.124 116.907,322.268 116.656 C 322.411 116.405,322.382 116.332,322.204 116.494 C 322.025 116.655,321.652 116.477,321.374 116.097 C 321.096 115.717,320.538 115.404,320.134 115.403 C 319.730 115.401,319.443 115.181,319.495 114.914 C 319.548 114.644,319.340 114.525,319.026 114.645 C 318.704 114.769,318.267 114.500,318.011 114.020 C 317.763 113.557,317.408 113.272,317.222 113.386 C 317.036 113.501,316.776 113.315,316.645 112.972 C 316.511 112.625,316.201 112.476,315.942 112.636 C 315.687 112.793,315.252 112.613,314.976 112.234 C 314.699 111.856,314.366 111.559,314.236 111.573 C 313.434 111.664,313.183 111.552,313.400 111.200 C 313.536 110.980,313.457 110.778,313.224 110.750 C 312.991 110.722,312.620 110.655,312.400 110.600 C 312.180 110.545,311.809 110.478,311.576 110.450 C 311.343 110.422,311.281 110.192,311.438 109.938 C 311.606 109.666,311.549 109.584,311.298 109.739 C 310.690 110.115,309.554 109.599,309.868 109.090 C 310.033 108.823,309.883 108.759,309.466 108.919 C 309.100 109.060,308.800 108.990,308.800 108.764 C 308.800 108.538,308.620 108.464,308.400 108.600 C 308.180 108.736,308.000 108.663,308.000 108.438 C 308.000 108.212,307.618 107.824,307.152 107.574 C 306.556 107.255,306.384 107.251,306.575 107.560 C 306.725 107.802,306.651 108.000,306.411 108.000 C 306.171 108.000,305.876 107.741,305.754 107.425 C 305.627 107.094,305.265 106.954,304.901 107.093 C 304.449 107.267,304.362 107.185,304.596 106.806 C 304.815 106.452,304.769 106.372,304.459 106.564 C 304.203 106.722,303.720 106.577,303.385 106.242 C 303.051 105.908,302.483 105.747,302.123 105.885 C 301.685 106.053,301.565 105.981,301.758 105.668 C 301.917 105.411,301.902 105.185,301.724 105.168 C 301.546 105.150,300.873 105.097,300.228 105.051 C 299.583 105.005,298.987 104.760,298.902 104.506 C 298.817 104.252,298.490 104.144,298.174 104.265 C 297.858 104.386,297.600 104.292,297.600 104.055 C 297.600 103.818,297.301 103.740,296.934 103.881 C 296.487 104.052,296.364 103.983,296.558 103.668 C 296.852 103.192,296.727 103.151,294.627 103.029 C 293.982 102.991,293.382 102.745,293.293 102.480 C 293.205 102.216,293.013 102.025,292.867 102.054 C 292.720 102.084,292.195 102.187,291.700 102.282 M327.425 121.300 L 328.600 122.600 327.300 121.425 C 326.585 120.779,326.000 120.194,326.000 120.125 C 326.000 119.816,326.330 120.088,327.425 121.300 M332.225 126.100 L 333.400 127.400 332.100 126.225 C 330.888 125.130,330.616 124.800,330.925 124.800 C 330.994 124.800,331.579 125.385,332.225 126.100 M364.800 158.600 C 365.995 159.810,366.883 160.800,366.773 160.800 C 366.663 160.800,365.595 159.810,364.400 158.600 C 363.205 157.390,362.317 156.400,362.427 156.400 C 362.537 156.400,363.605 157.390,364.800 158.600 M372.200 166.000 C 374.833 168.640,376.897 170.800,376.787 170.800 C 376.677 170.800,374.433 168.640,371.800 166.000 C 369.167 163.360,367.103 161.200,367.213 161.200 C 367.323 161.200,369.567 163.360,372.200 166.000 M379.600 173.400 C 380.795 174.610,381.683 175.600,381.573 175.600 C 381.463 175.600,380.395 174.610,379.200 173.400 C 378.005 172.190,377.117 171.200,377.227 171.200 C 377.337 171.200,378.405 172.190,379.600 173.400 M384.600 178.400 C 385.906 179.720,386.885 180.800,386.775 180.800 C 386.665 180.800,385.506 179.720,384.200 178.400 C 382.894 177.080,381.915 176.000,382.025 176.000 C 382.135 176.000,383.294 177.080,384.600 178.400 " stroke="none" fill="#04c9be" fill-rule="evenodd"></path><path id="path1" d="M152.700 98.701 C 118.215 98.757,90.000 98.869,90.000 98.950 C 90.000 99.645,336.597 345.400,337.294 345.400 C 337.868 345.400,338.232 345.066,338.419 344.366 C 338.571 343.798,339.372 341.818,340.199 339.966 C 341.026 338.115,342.023 335.880,342.414 335.000 C 342.805 334.120,343.566 332.410,344.105 331.200 C 344.644 329.990,345.480 328.100,345.964 327.000 C 346.448 325.900,347.284 324.097,347.822 322.994 C 348.360 321.890,348.800 320.859,348.800 320.702 C 348.800 320.546,349.406 319.109,350.147 317.509 C 350.888 315.909,352.156 313.070,352.964 311.200 C 353.773 309.330,354.689 307.260,355.001 306.600 C 355.313 305.940,355.999 304.410,356.526 303.200 C 357.053 301.990,357.882 300.162,358.369 299.137 C 359.212 297.361,359.224 297.184,358.639 295.337 C 357.927 293.088,355.513 286.262,354.913 284.800 C 354.687 284.250,354.279 283.080,354.005 282.200 C 353.732 281.320,353.285 280.060,353.012 279.400 C 352.739 278.740,352.105 276.940,351.603 275.400 C 351.101 273.860,350.456 272.060,350.170 271.400 C 349.884 270.740,349.381 269.300,349.052 268.200 C 348.724 267.100,347.711 264.130,346.801 261.600 C 345.891 259.070,344.624 255.470,343.986 253.600 C 342.580 249.481,340.593 243.908,339.850 242.000 C 339.550 241.230,339.081 239.880,338.806 239.000 C 338.532 238.120,338.079 236.860,337.798 236.200 C 337.518 235.540,336.633 233.020,335.831 230.600 C 335.030 228.180,334.223 225.840,334.039 225.400 C 332.677 222.146,331.600 219.062,331.600 218.416 C 331.600 217.993,331.420 217.536,331.200 217.400 C 330.980 217.264,330.799 216.848,330.798 216.476 C 330.796 216.104,330.526 215.284,330.198 214.654 C 329.869 214.024,329.600 213.205,329.600 212.834 C 329.600 212.463,329.440 211.989,329.246 211.780 C 329.051 211.571,328.615 210.500,328.277 209.400 C 327.940 208.300,326.922 205.330,326.016 202.800 C 325.109 200.270,324.032 197.210,323.621 196.000 C 323.211 194.790,322.327 192.270,321.659 190.400 C 320.990 188.530,319.276 183.670,317.849 179.600 C 316.423 175.530,314.509 170.130,313.594 167.600 C 312.680 165.070,311.408 161.470,310.768 159.600 C 310.128 157.730,309.440 155.840,309.241 155.400 C 309.041 154.960,308.111 152.350,307.174 149.600 C 306.238 146.850,305.344 144.420,305.189 144.200 C 305.034 143.980,304.814 143.350,304.701 142.800 C 304.464 141.652,300.573 130.401,299.791 128.600 C 299.504 127.940,299.052 126.680,298.787 125.800 C 298.522 124.920,298.080 123.660,297.804 123.000 C 297.528 122.340,296.875 120.450,296.351 118.800 C 295.828 117.150,295.265 115.740,295.100 115.667 C 294.935 115.593,294.800 115.275,294.800 114.959 C 294.800 114.643,294.331 113.083,293.758 111.492 C 290.383 102.127,290.447 102.407,291.700 102.381 C 293.274 102.349,288.852 100.809,284.800 99.979 C 278.183 98.623,267.161 98.516,152.700 98.701 M75.477 119.900 C 67.936 131.285,55.743 149.685,48.383 160.790 C 41.022 171.894,30.828 187.284,25.730 194.990 C 20.631 202.695,15.344 210.599,13.980 212.554 C 8.089 221.000,8.914 229.973,16.506 240.048 C 19.325 243.788,63.951 288.702,65.355 289.212 C 68.798 290.463,81.748 294.993,84.200 295.804 C 85.740 296.313,87.968 297.112,89.152 297.580 C 91.774 298.615,91.690 298.695,91.019 295.783 C 89.436 288.912,89.433 288.740,89.416 192.300 C 89.407 141.095,89.353 99.200,89.295 99.200 C 89.237 99.200,83.019 108.515,75.477 119.900 M299.200 104.800 C 299.530 105.013,300.070 105.188,300.400 105.188 C 300.933 105.188,300.933 105.145,300.400 104.800 C 300.070 104.587,299.530 104.412,299.200 104.412 C 298.667 104.412,298.667 104.455,299.200 104.800 M309.600 109.285 C 310.102 109.820,312.400 110.781,312.400 110.457 C 312.400 110.257,312.085 110.003,311.700 109.892 C 311.315 109.781,310.640 109.552,310.200 109.382 C 309.760 109.212,309.490 109.168,309.600 109.285 M318.000 114.137 C 318.000 114.223,318.765 114.798,319.700 115.415 C 320.661 116.049,321.152 116.234,320.829 115.842 C 320.287 115.182,318.000 113.804,318.000 114.137 M321.600 116.559 C 321.600 116.661,322.185 117.156,322.900 117.657 C 323.822 118.304,324.035 118.364,323.633 117.863 C 323.060 117.150,321.600 116.213,321.600 116.559 M324.433 118.932 C 324.525 119.004,325.500 119.852,326.600 120.815 L 328.600 122.566 326.817 120.683 C 325.836 119.647,324.861 118.800,324.650 118.800 C 324.439 118.800,324.342 118.859,324.433 118.932 M330.800 124.925 C 330.800 124.994,331.385 125.579,332.100 126.225 L 333.400 127.400 332.225 126.100 C 331.130 124.888,330.800 124.616,330.800 124.925 M364.400 158.600 C 365.595 159.810,366.663 160.800,366.773 160.800 C 366.883 160.800,365.995 159.810,364.800 158.600 C 363.605 157.390,362.537 156.400,362.427 156.400 C 362.317 156.400,363.205 157.390,364.400 158.600 M371.800 166.000 C 374.433 168.640,376.677 170.800,376.787 170.800 C 376.897 170.800,374.833 168.640,372.200 166.000 C 369.567 163.360,367.323 161.200,367.213 161.200 C 367.103 161.200,369.167 163.360,371.800 166.000 M379.200 173.400 C 380.395 174.610,381.463 175.600,381.573 175.600 C 381.683 175.600,380.795 174.610,379.600 173.400 C 378.405 172.190,377.337 171.200,377.227 171.200 C 377.117 171.200,378.005 172.190,379.200 173.400 M384.200 178.400 C 385.506 179.720,386.665 180.800,386.775 180.800 C 386.885 180.800,385.906 179.720,384.600 178.400 C 383.294 177.080,382.135 176.000,382.025 176.000 C 381.915 176.000,382.894 177.080,384.200 178.400 M388.201 182.398 C 388.860 183.167,389.445 183.872,389.500 183.965 C 389.555 184.057,389.687 184.046,389.794 183.939 C 389.901 183.833,389.316 183.128,388.495 182.373 L 387.002 181.000 388.201 182.398 M389.744 204.800 C 389.744 206.890,389.812 207.745,389.894 206.700 C 389.976 205.655,389.976 203.945,389.894 202.900 C 389.812 201.855,389.744 202.710,389.744 204.800 M389.521 252.100 C 389.454 255.235,389.499 259.960,389.620 262.600 C 389.782 266.146,389.860 264.658,389.920 256.900 C 389.964 251.125,389.919 246.400,389.821 246.400 C 389.722 246.400,389.587 248.965,389.521 252.100 M389.524 281.300 C 389.456 283.995,389.535 286.371,389.700 286.580 C 389.865 286.789,390.000 284.584,390.000 281.680 C 390.000 275.036,389.688 274.787,389.524 281.300 M389.753 299.800 C 389.753 302.440,389.818 303.468,389.897 302.084 C 389.975 300.701,389.974 298.541,389.895 297.284 C 389.816 296.028,389.752 297.160,389.753 299.800 M389.734 321.600 C 389.734 323.250,389.805 323.925,389.891 323.100 C 389.978 322.275,389.978 320.925,389.891 320.100 C 389.805 319.275,389.734 319.950,389.734 321.600 M380.800 331.200 C 380.005 331.714,381.004 331.714,382.200 331.200 L 383.000 330.856 382.200 330.834 C 381.760 330.822,381.130 330.987,380.800 331.200 M374.800 333.200 C 374.005 333.714,375.004 333.714,376.200 333.200 L 377.000 332.856 376.200 332.834 C 375.760 332.822,375.130 332.987,374.800 333.200 M372.000 334.000 C 371.205 334.514,372.204 334.514,373.400 334.000 L 374.200 333.656 373.400 333.634 C 372.960 333.622,372.330 333.787,372.000 334.000 M366.000 336.000 C 365.205 336.514,366.204 336.514,367.400 336.000 L 368.200 335.656 367.400 335.634 C 366.960 335.622,366.330 335.787,366.000 336.000 M357.000 338.800 C 356.708 339.273,357.099 339.273,358.200 338.800 C 358.971 338.469,358.969 338.455,358.124 338.428 C 357.642 338.413,357.136 338.580,357.000 338.800 M350.800 340.800 C 350.036 341.294,350.858 341.294,352.400 340.800 L 353.400 340.480 352.400 340.446 C 351.850 340.427,351.130 340.587,350.800 340.800 M348.200 341.600 C 347.908 342.073,348.299 342.073,349.400 341.600 C 350.171 341.269,350.169 341.255,349.324 341.228 C 348.842 341.213,348.336 341.380,348.200 341.600 M342.000 343.600 C 341.205 344.114,342.204 344.114,343.400 343.600 L 344.200 343.256 343.400 343.234 C 342.960 343.222,342.330 343.387,342.000 343.600 " stroke="none" fill="#047db7" fill-rule="evenodd"></path><path id="path2" d="M212.707 19.490 C 213.426 19.579,214.506 19.577,215.107 19.486 C 215.708 19.395,215.120 19.322,213.800 19.324 C 212.480 19.326,211.988 19.401,212.707 19.490 M197.560 27.055 C 188.319 33.228,184.699 35.760,186.800 34.581 C 187.930 33.946,204.141 23.133,205.389 22.181 C 206.074 21.658,207.257 20.961,208.018 20.631 C 208.778 20.301,209.112 20.024,208.760 20.016 C 208.409 20.007,203.369 23.175,197.560 27.055 M221.586 21.002 C 223.008 21.530,224.236 21.898,224.314 21.820 C 224.502 21.632,220.107 19.994,219.485 20.021 C 219.218 20.032,220.164 20.474,221.586 21.002 M226.433 22.960 C 226.525 23.048,228.040 24.078,229.800 25.248 C 232.734 27.198,241.735 35.963,279.833 73.967 C 279.925 74.058,280.000 74.033,280.000 73.910 C 280.000 73.570,235.256 29.091,233.200 27.387 C 231.106 25.651,226.975 22.800,226.555 22.800 C 226.397 22.800,226.342 22.872,226.433 22.960 M184.481 35.772 C 182.623 37.085,182.362 37.461,183.931 36.562 C 184.663 36.143,185.450 35.575,185.680 35.300 C 186.271 34.593,185.993 34.702,184.481 35.772 M180.881 38.172 C 179.023 39.485,178.762 39.861,180.331 38.962 C 181.063 38.543,181.850 37.975,182.080 37.700 C 182.671 36.993,182.393 37.102,180.881 38.172 M177.093 40.614 C 175.581 41.642,175.013 42.366,176.300 41.625 C 177.243 41.083,179.052 39.620,178.793 39.609 C 178.679 39.604,177.914 40.056,177.093 40.614 M171.596 44.251 C 168.440 46.343,166.539 47.790,168.000 46.988 C 168.910 46.488,174.547 42.739,174.980 42.345 C 175.891 41.518,174.759 42.155,171.596 44.251 M162.294 50.358 C 159.706 52.060,157.366 53.685,157.094 53.970 C 156.472 54.624,165.989 48.528,166.786 47.763 C 167.791 46.797,167.142 47.172,162.294 50.358 M150.998 57.850 C 146.346 60.938,143.880 62.736,145.600 61.786 C 146.541 61.267,155.756 55.137,156.180 54.748 C 157.163 53.848,155.785 54.672,150.998 57.850 M141.492 64.165 C 138.567 66.158,137.060 67.341,138.400 66.593 C 139.741 65.845,144.800 62.363,144.800 62.188 C 144.800 61.909,144.840 61.885,141.492 64.165 M134.693 68.614 C 133.872 69.172,133.200 69.706,133.200 69.801 C 133.200 70.060,135.969 68.374,136.225 67.960 C 136.567 67.406,136.309 67.516,134.693 68.614 M131.544 70.823 C 130.650 71.602,130.646 71.623,131.478 71.220 C 131.960 70.987,132.466 70.617,132.601 70.398 C 132.995 69.762,132.563 69.935,131.544 70.823 M123.798 75.850 C 119.146 78.938,116.680 80.736,118.400 79.786 C 119.341 79.267,128.556 73.137,128.980 72.748 C 129.963 71.848,128.585 72.672,123.798 75.850 M280.499 76.100 C 280.600 76.375,280.998 77.557,281.382 78.726 C 281.767 79.895,282.152 80.781,282.238 80.695 C 282.441 80.493,280.792 75.600,280.520 75.600 C 280.407 75.600,280.397 75.825,280.499 76.100 M116.081 80.972 C 114.223 82.285,113.962 82.661,115.531 81.762 C 116.263 81.343,117.050 80.775,117.280 80.500 C 117.871 79.793,117.593 79.902,116.081 80.972 M110.771 84.435 C 107.962 86.360,106.211 87.764,107.600 86.978 C 108.812 86.292,114.000 82.708,114.000 82.556 C 114.000 82.253,113.714 82.419,110.771 84.435 M283.299 84.100 C 283.400 84.375,283.798 85.557,284.182 86.726 C 284.567 87.895,284.952 88.781,285.038 88.695 C 285.241 88.493,283.592 83.600,283.320 83.600 C 283.207 83.600,283.197 83.825,283.299 84.100 M103.196 89.451 C 100.034 91.547,97.754 93.316,100.000 91.930 C 104.679 89.043,107.289 87.200,106.696 87.200 C 106.639 87.200,105.064 88.213,103.196 89.451 M285.699 90.900 C 285.800 91.175,286.198 92.357,286.582 93.526 C 286.967 94.695,287.352 95.581,287.438 95.495 C 287.641 95.293,285.992 90.400,285.720 90.400 C 285.607 90.400,285.597 90.625,285.699 90.900 M95.492 94.565 C 92.567 96.558,91.060 97.741,92.400 96.993 C 93.741 96.245,98.800 92.763,98.800 92.588 C 98.800 92.309,98.840 92.285,95.492 94.565 M89.767 98.629 L 88.200 100.058 89.900 98.762 C 91.453 97.578,91.832 97.200,91.467 97.200 C 91.393 97.200,90.628 97.843,89.767 98.629 M288.618 99.300 C 288.768 99.795,289.055 100.376,289.256 100.591 C 289.457 100.806,289.419 100.401,289.172 99.691 C 288.665 98.238,288.197 97.908,288.618 99.300 M302.800 105.800 C 303.350 106.114,303.980 106.372,304.200 106.372 C 304.420 106.372,304.150 106.114,303.600 105.800 C 303.050 105.486,302.420 105.228,302.200 105.228 C 301.980 105.228,302.250 105.486,302.800 105.800 M313.000 110.607 C 313.440 110.966,314.160 111.435,314.600 111.651 L 315.400 112.044 314.600 111.393 C 314.160 111.034,313.440 110.565,313.000 110.349 L 312.200 109.956 313.000 110.607 M317.000 113.007 C 317.440 113.366,318.160 113.835,318.600 114.051 L 319.400 114.444 318.600 113.793 C 318.160 113.434,317.440 112.965,317.000 112.749 L 316.200 112.356 317.000 113.007 M349.600 143.000 C 362.469 155.870,373.087 166.400,373.197 166.400 C 373.307 166.400,362.869 155.870,350.000 143.000 C 337.131 130.130,326.513 119.600,326.403 119.600 C 326.293 119.600,336.731 130.130,349.600 143.000 M373.600 166.925 C 373.600 166.994,374.185 167.579,374.900 168.225 L 376.200 169.400 375.025 168.100 C 373.930 166.888,373.600 166.616,373.600 166.925 M378.600 172.000 C 379.906 173.320,381.065 174.400,381.175 174.400 C 381.285 174.400,380.306 173.320,379.000 172.000 C 377.694 170.680,376.535 169.600,376.425 169.600 C 376.315 169.600,377.294 170.680,378.600 172.000 M387.800 181.200 C 388.883 182.300,389.860 183.200,389.970 183.200 C 390.080 183.200,389.283 182.300,388.200 181.200 C 387.117 180.100,386.140 179.200,386.030 179.200 C 385.920 179.200,386.717 180.100,387.800 181.200 M390.194 234.800 C 390.194 263.070,390.242 274.635,390.300 260.500 C 390.358 246.365,390.358 223.235,390.300 209.100 C 390.242 194.965,390.194 206.530,390.194 234.800 M29.400 254.000 C 35.117 259.720,39.884 264.400,39.994 264.400 C 40.104 264.400,35.517 259.720,29.800 254.000 C 24.083 248.280,19.316 243.600,19.206 243.600 C 19.096 243.600,23.683 248.280,29.400 254.000 M42.783 267.300 C 43.764 268.345,44.619 269.200,44.683 269.200 C 44.984 269.200,44.666 268.841,42.900 267.183 L 41.000 265.400 42.783 267.300 M390.153 299.800 C 390.153 302.440,390.218 303.468,390.297 302.084 C 390.375 300.701,390.374 298.541,390.295 297.284 C 390.216 296.028,390.152 297.160,390.153 299.800 M91.839 298.825 C 92.080 299.141,92.781 301.020,93.397 303.000 C 98.031 317.902,105.251 330.098,115.418 340.200 C 116.969 341.740,131.369 356.074,147.418 372.053 L 176.600 401.106 202.600 401.293 C 216.900 401.396,248.895 401.517,273.699 401.561 L 318.798 401.642 319.171 400.721 C 319.377 400.215,320.570 396.560,321.823 392.600 C 323.076 388.640,324.862 383.060,325.794 380.200 C 326.725 377.340,328.334 372.300,329.369 369.000 C 330.404 365.700,331.501 362.370,331.808 361.600 C 332.115 360.830,332.753 358.850,333.227 357.200 C 333.977 354.587,336.047 348.186,336.651 346.612 C 336.812 346.193,302.099 361.222,290.341 366.663 L 288.082 367.708 284.541 366.473 C 282.593 365.794,278.390 364.317,275.200 363.192 C 272.010 362.068,268.590 360.877,267.600 360.546 C 266.610 360.216,264.630 359.513,263.200 358.985 C 260.228 357.887,250.160 354.333,242.800 351.783 C 240.050 350.831,236.450 349.570,234.800 348.983 C 233.150 348.395,229.100 346.962,225.800 345.799 C 211.705 340.832,197.518 335.841,193.800 334.540 C 191.600 333.771,188.630 332.710,187.200 332.184 C 185.770 331.658,183.070 330.700,181.200 330.056 C 176.712 328.511,165.442 324.547,152.600 319.997 C 146.880 317.970,140.760 315.817,139.000 315.211 C 127.421 311.227,94.428 299.503,92.200 298.581 C 91.544 298.310,91.479 298.353,91.839 298.825 M390.101 315.800 C 390.105 316.680,390.187 316.993,390.283 316.495 C 390.379 315.998,390.375 315.278,390.275 314.895 C 390.175 314.513,390.096 314.920,390.101 315.800 M379.400 332.186 C 377.855 332.893,378.574 332.903,380.400 332.200 C 381.170 331.903,381.530 331.655,381.200 331.648 C 380.870 331.642,380.060 331.883,379.400 332.186 M371.275 334.673 C 370.326 335.009,369.621 335.354,369.707 335.441 C 369.890 335.623,373.600 334.405,373.600 334.162 C 373.600 333.912,373.145 334.012,371.275 334.673 M340.400 344.600 C 339.630 344.897,339.270 345.145,339.600 345.152 C 339.930 345.158,340.740 344.917,341.400 344.614 C 342.945 343.907,342.226 343.897,340.400 344.600 " stroke="none" fill="#54dbcb" fill-rule="evenodd"></path><path id="path3" d="M0.000 210.400 L 0.000 420.800 200.000 420.800 L 400.000 420.800 400.000 210.400 L 400.000 0.000 200.000 0.000 L 0.000 0.000 0.000 210.400 M218.435 19.435 C 228.029 21.617,228.344 21.871,257.816 51.183 L 280.231 73.477 281.689 77.439 C 282.491 79.617,283.531 82.660,283.999 84.200 C 284.468 85.740,285.176 87.720,285.572 88.600 C 285.969 89.480,287.070 92.556,288.019 95.435 L 289.744 100.670 293.572 101.788 C 303.489 104.685,317.256 111.670,324.271 117.366 C 325.332 118.227,340.690 133.404,358.400 151.093 L 390.600 183.254 390.600 247.727 C 390.600 283.187,390.510 316.054,390.400 320.765 L 390.200 329.330 386.600 330.475 C 384.620 331.105,378.590 333.047,373.200 334.790 C 367.810 336.534,359.890 339.064,355.600 340.413 C 343.330 344.271,337.827 346.089,337.476 346.400 C 337.103 346.731,335.597 351.133,331.795 363.000 C 327.462 376.522,323.726 388.122,321.423 395.200 L 319.276 401.800 250.738 401.863 C 213.042 401.898,180.901 401.808,179.314 401.663 L 176.428 401.400 144.955 370.200 C 127.645 353.040,111.984 337.324,110.153 335.275 C 103.491 327.822,95.625 312.983,92.766 302.477 C 91.739 298.703,91.830 298.784,86.800 297.169 C 82.251 295.708,70.065 291.438,66.692 290.123 C 64.026 289.084,63.647 288.728,41.638 266.634 C 18.567 243.472,18.071 242.954,15.247 239.088 C 10.049 231.974,8.155 221.689,11.046 216.276 C 11.651 215.143,28.458 189.764,37.983 175.600 C 39.093 173.950,44.102 166.390,49.115 158.800 C 54.127 151.210,58.492 144.611,58.814 144.135 C 63.033 137.904,69.531 128.083,84.751 104.938 C 88.726 98.893,89.181 98.357,91.800 96.639 C 93.340 95.628,94.780 94.661,95.000 94.489 C 95.220 94.317,97.560 92.762,100.200 91.035 C 113.936 82.045,138.480 65.848,141.000 64.110 C 142.100 63.351,144.800 61.551,147.000 60.109 C 149.200 58.667,153.343 55.938,156.208 54.044 C 159.072 52.150,161.715 50.420,162.080 50.200 C 162.446 49.980,164.693 48.499,167.073 46.908 C 169.453 45.317,176.620 40.570,183.000 36.358 C 199.513 25.457,204.083 22.380,205.047 21.518 C 207.616 19.219,213.478 18.308,218.435 19.435 " stroke="none" fill="#f3f4f4" fill-rule="evenodd"></path><path id="path4" d="M209.800 19.407 L 208.200 19.952 209.800 19.676 C 211.839 19.324,215.629 19.322,218.200 19.672 L 220.200 19.944 218.200 19.410 C 215.608 18.719,211.823 18.717,209.800 19.407 M205.331 21.336 C 204.709 21.850,202.535 23.385,200.500 24.746 C 198.465 26.107,196.800 27.311,196.800 27.421 C 196.800 27.531,198.465 26.503,200.500 25.136 C 205.740 21.618,207.384 20.400,206.891 20.400 C 206.655 20.400,205.953 20.821,205.331 21.336 M224.569 21.789 C 225.652 22.342,226.614 22.719,226.706 22.627 C 226.922 22.411,224.900 21.379,223.600 21.042 C 223.050 20.899,223.486 21.235,224.569 21.789 M227.200 22.924 C 227.200 23.017,227.965 23.598,228.900 24.215 C 229.835 24.832,230.389 25.080,230.131 24.768 C 229.634 24.167,227.200 22.636,227.200 22.924 M230.800 25.288 C 230.800 25.366,231.655 26.133,232.700 26.992 C 233.745 27.851,234.240 28.140,233.800 27.634 C 233.022 26.739,230.800 25.002,230.800 25.288 M186.755 33.854 C 179.533 38.685,176.499 40.838,178.400 39.785 C 179.361 39.252,194.561 29.136,194.980 28.750 C 196.154 27.668,194.061 28.967,186.755 33.854 M234.800 28.454 C 234.800 28.557,244.281 38.082,255.868 49.621 C 267.456 61.159,276.801 70.368,276.635 70.084 C 276.422 69.719,246.086 39.395,234.969 28.433 C 234.876 28.342,234.800 28.351,234.800 28.454 M167.935 46.231 C 165.441 47.899,163.130 49.541,162.800 49.881 C 162.233 50.465,171.773 44.288,172.580 43.548 C 173.669 42.550,171.996 43.517,167.935 46.231 M157.054 53.391 C 152.369 56.561,150.266 58.293,154.190 55.749 C 158.596 52.893,162.146 50.400,161.771 50.425 C 161.567 50.439,159.444 51.773,157.054 53.391 M146.171 60.631 C 143.327 62.518,140.730 64.340,140.400 64.680 C 139.833 65.264,150.574 58.288,151.380 57.549 C 152.416 56.598,150.875 57.510,146.171 60.631 M135.670 67.618 C 133.652 68.948,132.000 70.127,132.000 70.238 C 132.000 70.349,132.225 70.295,132.500 70.119 C 138.847 66.045,140.045 65.200,139.470 65.200 C 139.399 65.200,137.689 66.288,135.670 67.618 M130.081 71.372 C 128.223 72.685,127.962 73.061,129.531 72.162 C 130.263 71.743,131.050 71.175,131.280 70.900 C 131.871 70.193,131.593 70.302,130.081 71.372 M277.762 71.542 C 278.609 72.495,278.800 72.582,278.800 72.014 C 278.800 71.802,278.395 71.416,277.900 71.156 C 277.005 70.686,277.004 70.688,277.762 71.542 M126.293 73.814 C 125.472 74.372,124.800 74.915,124.800 75.020 C 124.800 75.125,125.520 74.735,126.400 74.153 C 127.797 73.228,128.270 72.800,127.893 72.800 C 127.834 72.800,127.114 73.256,126.293 73.814 M280.295 74.804 C 280.641 75.687,280.997 76.336,281.086 76.248 C 281.278 76.055,280.123 73.200,279.853 73.200 C 279.749 73.200,279.948 73.922,280.295 74.804 M281.278 77.200 C 281.390 77.530,281.978 79.296,282.583 81.125 C 283.188 82.954,283.771 84.363,283.878 84.255 C 284.093 84.040,281.742 77.190,281.328 76.826 C 281.188 76.701,281.165 76.870,281.278 77.200 M119.093 78.614 C 118.272 79.172,117.600 79.715,117.600 79.820 C 117.600 79.925,118.320 79.535,119.200 78.953 C 120.597 78.028,121.070 77.600,120.693 77.600 C 120.634 77.600,119.914 78.056,119.093 78.614 M115.100 81.208 C 113.082 82.476,112.421 83.305,114.326 82.180 C 115.660 81.392,117.485 80.018,117.200 80.016 C 117.090 80.016,116.145 80.552,115.100 81.208 M109.563 84.855 C 106.646 86.877,105.167 88.063,106.400 87.390 C 107.103 87.006,112.025 83.614,112.580 83.131 C 113.654 82.196,112.190 83.033,109.563 84.855 M100.311 90.900 C 97.516 92.715,95.223 94.339,95.215 94.508 C 95.202 94.780,104.408 88.839,105.380 87.948 C 106.329 87.079,105.027 87.837,100.311 90.900 M285.424 89.274 C 285.576 89.755,285.957 90.700,286.270 91.374 C 286.941 92.819,286.744 91.358,286.007 89.418 C 285.535 88.176,285.036 88.053,285.424 89.274 M286.878 93.200 C 286.991 93.530,287.488 95.026,287.983 96.526 C 288.477 98.025,288.953 99.180,289.040 99.093 C 289.234 98.899,287.307 93.162,286.938 92.835 C 286.792 92.706,286.765 92.870,286.878 93.200 M91.704 96.642 C 90.175 97.655,88.608 99.050,88.222 99.742 L 87.522 101.000 88.545 99.757 C 89.108 99.074,90.745 97.748,92.184 96.810 C 94.538 95.276,95.121 94.800,94.643 94.800 C 94.556 94.800,93.234 95.629,91.704 96.642 M292.400 101.800 C 293.170 102.097,294.070 102.339,294.400 102.339 C 294.730 102.339,294.370 102.097,293.600 101.800 C 292.830 101.503,291.930 101.261,291.600 101.261 C 291.270 101.261,291.630 101.503,292.400 101.800 M299.174 104.016 C 300.810 104.659,302.213 105.121,302.291 105.042 C 302.488 104.846,297.313 102.794,296.696 102.823 C 296.423 102.836,297.538 103.373,299.174 104.016 M84.535 105.300 C 82.945 107.551,82.511 108.469,83.681 107.106 C 84.671 105.953,86.154 103.600,85.890 103.600 C 85.805 103.600,85.195 104.365,84.535 105.300 M304.400 106.075 C 304.950 106.338,307.155 107.421,309.300 108.480 C 311.445 109.540,313.200 110.317,313.200 110.207 C 313.200 109.921,305.594 106.156,304.400 105.851 L 303.400 105.596 304.400 106.075 M80.674 111.100 C 78.417 114.640,78.324 114.800,78.520 114.800 C 78.667 114.800,79.821 113.128,82.177 109.500 C 82.570 108.895,82.780 108.400,82.643 108.400 C 82.507 108.400,81.620 109.615,80.674 111.100 M314.200 111.011 C 314.640 111.369,315.540 111.926,316.200 112.250 C 317.322 112.801,317.348 112.797,316.600 112.189 C 316.160 111.831,315.260 111.274,314.600 110.950 C 313.478 110.399,313.452 110.403,314.200 111.011 M317.600 112.883 C 318.085 113.468,324.000 117.536,323.995 117.283 C 323.993 117.127,323.048 116.352,321.895 115.561 C 319.379 113.832,317.325 112.551,317.600 112.883 M74.882 119.900 C 72.279 123.795,71.662 124.817,72.288 124.200 C 72.925 123.571,77.644 116.400,77.421 116.400 C 77.311 116.400,76.168 117.975,74.882 119.900 M324.400 117.619 C 324.511 117.719,333.691 126.797,344.800 137.793 L 365.000 157.785 346.600 139.267 C 336.480 129.082,327.300 120.004,326.200 119.093 C 325.100 118.183,324.290 117.520,324.400 117.619 M66.940 131.900 C 66.495 132.505,65.909 133.450,65.638 134.000 L 65.146 135.000 65.930 134.026 C 66.831 132.908,68.117 130.800,67.898 130.800 C 67.817 130.800,67.386 131.295,66.940 131.900 M61.693 139.900 C 60.657 141.396,60.321 142.000,60.523 142.000 C 60.617 142.000,61.170 141.280,61.753 140.400 C 62.936 138.612,62.884 138.179,61.693 139.900 M59.537 143.100 C 58.709 144.088,57.545 146.000,57.772 146.000 C 57.876 146.000,58.519 145.190,59.200 144.200 C 60.447 142.388,60.627 141.801,59.537 143.100 M56.953 146.900 C 55.576 149.236,55.486 149.435,56.187 148.600 C 57.000 147.632,57.700 146.400,57.438 146.400 C 57.333 146.400,57.115 146.625,56.953 146.900 M51.280 155.500 C 47.889 160.584,47.237 161.642,47.889 161.000 C 48.527 160.374,54.840 150.800,54.616 150.800 C 54.506 150.800,53.005 152.915,51.280 155.500 M368.600 161.600 C 370.571 163.580,372.273 165.200,372.383 165.200 C 372.493 165.200,370.971 163.580,369.000 161.600 C 367.029 159.620,365.327 158.000,365.217 158.000 C 365.107 158.000,366.629 159.620,368.600 161.600 M46.493 162.700 C 45.457 164.196,45.121 164.800,45.323 164.800 C 45.417 164.800,45.970 164.080,46.553 163.200 C 47.736 161.412,47.684 160.979,46.493 162.700 M44.093 166.300 C 43.057 167.796,42.721 168.400,42.923 168.400 C 43.017 168.400,43.570 167.680,44.153 166.800 C 45.336 165.012,45.284 164.579,44.093 166.300 M373.020 166.109 C 373.128 166.388,373.617 166.862,374.108 167.161 C 374.959 167.680,374.955 167.656,374.030 166.653 C 372.948 165.477,372.734 165.362,373.020 166.109 M375.688 168.792 C 375.960 169.228,376.452 169.688,376.782 169.814 C 377.112 169.941,376.949 169.584,376.421 169.022 C 375.269 167.797,375.017 167.717,375.688 168.792 M41.693 169.900 C 40.520 171.593,40.234 172.314,41.177 171.200 C 42.153 170.046,42.913 168.800,42.641 168.800 C 42.539 168.800,42.112 169.295,41.693 169.900 M379.440 172.550 C 380.518 173.732,381.670 174.822,382.000 174.971 C 382.330 175.120,381.526 174.153,380.213 172.821 C 377.254 169.821,376.809 169.665,379.440 172.550 M38.800 174.400 C 38.330 175.060,38.036 175.600,38.146 175.600 C 38.256 175.600,38.730 175.060,39.200 174.400 C 39.670 173.740,39.964 173.200,39.854 173.200 C 39.744 173.200,39.270 173.740,38.800 174.400 M382.800 175.669 C 382.800 176.066,384.406 177.727,384.601 177.532 C 384.709 177.425,384.348 176.914,383.798 176.399 C 383.249 175.883,382.800 175.554,382.800 175.669 M36.893 177.100 C 35.595 178.974,35.359 179.471,36.023 178.931 C 36.657 178.415,38.162 176.000,37.850 176.000 C 37.742 176.000,37.312 176.495,36.893 177.100 M385.420 178.509 C 385.528 178.788,386.017 179.262,386.508 179.561 C 387.359 180.080,387.355 180.056,386.430 179.053 C 385.348 177.877,385.134 177.762,385.420 178.509 M34.153 181.300 C 32.776 183.636,32.686 183.835,33.387 183.000 C 34.200 182.032,34.900 180.800,34.638 180.800 C 34.533 180.800,34.315 181.025,34.153 181.300 M389.029 182.038 C 389.673 182.829,390.281 183.408,390.379 183.325 C 390.478 183.242,389.951 182.595,389.209 181.887 L 387.858 180.600 389.029 182.038 M31.693 185.100 C 30.657 186.596,30.321 187.200,30.523 187.200 C 30.617 187.200,31.170 186.480,31.753 185.600 C 32.936 183.812,32.884 183.379,31.693 185.100 M390.584 201.800 C 390.584 211.700,390.636 215.693,390.700 210.673 C 390.763 205.653,390.763 197.553,390.700 192.673 C 390.636 187.793,390.584 191.900,390.584 201.800 M21.293 200.700 C 20.257 202.196,19.921 202.800,20.123 202.800 C 20.217 202.800,20.770 202.080,21.353 201.200 C 22.536 199.412,22.484 198.979,21.293 200.700 M16.185 208.500 C 15.568 209.435,15.320 209.989,15.632 209.731 C 16.233 209.234,17.764 206.800,17.476 206.800 C 17.383 206.800,16.802 207.565,16.185 208.500 M14.123 211.500 C 13.741 212.105,12.836 213.391,12.114 214.358 C 11.391 215.324,10.805 216.314,10.812 216.558 C 10.819 216.801,11.027 216.640,11.274 216.200 C 11.522 215.760,12.209 214.770,12.801 214.000 C 14.309 212.040,15.335 210.400,15.055 210.400 C 14.925 210.400,14.506 210.895,14.123 211.500 M9.724 223.000 C 9.726 224.320,9.801 224.812,9.890 224.093 C 9.979 223.374,9.977 222.294,9.886 221.693 C 9.795 221.092,9.722 221.680,9.724 223.000 M390.554 233.200 C 390.554 235.950,390.618 237.075,390.696 235.700 C 390.774 234.325,390.774 232.075,390.696 230.700 C 390.618 229.325,390.554 230.450,390.554 233.200 M10.805 230.421 C 10.798 231.264,13.807 237.433,14.405 237.803 C 14.668 237.965,14.579 237.635,14.208 237.069 C 13.837 236.503,12.921 234.635,12.172 232.920 C 11.423 231.204,10.808 230.080,10.805 230.421 M17.793 242.402 C 19.252 244.113,47.777 272.893,53.600 278.530 C 55.910 280.766,48.621 273.326,37.403 261.998 C 26.185 250.669,16.915 241.311,16.803 241.202 C 16.691 241.093,17.137 241.633,17.793 242.402 M390.554 252.400 C 390.554 255.150,390.618 256.275,390.696 254.900 C 390.774 253.525,390.774 251.275,390.696 249.900 C 390.618 248.525,390.554 249.650,390.554 252.400 M390.554 271.200 C 390.554 273.950,390.618 275.075,390.696 273.700 C 390.774 272.325,390.774 270.075,390.696 268.700 C 390.618 267.325,390.554 268.450,390.554 271.200 M58.000 283.068 C 58.000 283.579,59.535 284.998,59.801 284.732 C 59.909 284.625,59.548 284.114,58.998 283.599 C 58.449 283.083,58.000 282.844,58.000 283.068 M61.017 286.000 C 61.268 286.572,64.400 289.470,64.400 289.130 C 64.400 289.040,63.580 288.164,62.577 287.183 C 61.575 286.202,60.873 285.670,61.017 286.000 M390.267 285.867 C 389.827 286.307,389.954 295.200,390.400 295.200 C 390.644 295.200,390.800 293.333,390.800 290.400 C 390.800 287.760,390.740 285.600,390.667 285.600 C 390.593 285.600,390.413 285.720,390.267 285.867 M68.000 290.520 C 68.000 290.792,72.893 292.441,73.095 292.238 C 73.181 292.152,72.295 291.767,71.126 291.382 C 69.957 290.998,68.775 290.600,68.500 290.499 C 68.225 290.397,68.000 290.407,68.000 290.520 M83.800 296.155 C 84.460 296.455,85.450 296.811,86.000 296.946 C 86.803 297.143,86.764 297.084,85.800 296.645 C 85.140 296.345,84.150 295.989,83.600 295.854 C 82.797 295.657,82.836 295.716,83.800 296.155 M91.300 298.832 C 91.685 299.056,92.014 299.546,92.032 299.920 C 92.052 300.358,92.137 300.417,92.269 300.087 C 92.509 299.491,91.711 298.394,91.051 298.412 C 90.803 298.419,90.915 298.608,91.300 298.832 M92.400 301.038 C 92.400 302.725,97.466 315.515,99.910 320.000 C 106.556 332.196,106.050 331.632,144.955 370.200 L 176.428 401.400 179.314 401.663 C 180.901 401.808,213.042 401.898,250.738 401.863 L 319.276 401.800 321.423 395.200 C 322.604 391.570,324.832 384.730,326.375 380.000 C 329.335 370.921,329.827 369.200,329.460 369.200 C 329.336 369.200,328.846 370.505,328.372 372.100 C 327.898 373.695,326.743 377.340,325.805 380.200 C 324.868 383.060,323.076 388.640,321.823 392.600 C 320.570 396.560,319.377 400.215,319.171 400.721 L 318.798 401.642 273.699 401.561 C 248.895 401.517,216.900 401.396,202.600 401.293 L 176.600 401.106 147.418 372.053 C 131.369 356.074,116.969 341.740,115.418 340.200 C 105.455 330.300,97.664 317.247,93.624 303.682 C 92.889 301.212,92.400 300.157,92.400 301.038 M390.006 309.476 C 390.010 312.622,390.150 314.383,390.368 314.038 C 390.875 313.237,390.911 304.916,390.409 304.606 C 390.138 304.438,390.002 306.086,390.006 309.476 M390.000 323.130 L 390.000 329.060 388.100 329.725 C 387.055 330.091,386.687 330.301,387.282 330.192 C 387.878 330.083,388.823 329.820,389.382 329.607 L 390.400 329.220 390.400 323.210 C 390.400 319.904,390.310 317.200,390.200 317.200 C 390.090 317.200,390.000 319.868,390.000 323.130 M382.856 331.259 C 382.117 331.472,381.587 331.720,381.679 331.812 C 381.881 332.014,384.800 331.237,384.800 330.981 C 384.800 330.746,384.482 330.791,382.856 331.259 M374.666 333.874 C 373.603 334.200,372.807 334.540,372.898 334.631 C 373.100 334.833,377.200 333.645,377.200 333.385 C 377.200 333.133,376.904 333.190,374.666 333.874 M366.600 336.577 C 364.400 337.318,362.787 337.941,363.016 337.962 C 363.586 338.014,371.200 335.618,371.200 335.386 C 371.200 335.066,370.709 335.193,366.600 336.577 M358.800 339.000 C 357.370 339.516,356.390 339.952,356.622 339.969 C 356.854 339.986,358.294 339.563,359.822 339.030 C 361.350 338.496,362.330 338.060,362.000 338.061 C 361.670 338.062,360.230 338.484,358.800 339.000 M350.000 341.800 C 348.570 342.316,347.595 342.752,347.834 342.769 C 348.300 342.802,353.289 341.229,353.567 340.961 C 353.977 340.565,352.388 340.939,350.000 341.800 M342.600 344.186 C 340.982 344.926,341.953 344.954,343.654 344.216 C 344.394 343.894,344.730 343.632,344.400 343.634 C 344.070 343.635,343.260 343.883,342.600 344.186 M337.940 345.651 C 336.839 346.055,336.733 346.261,335.076 351.200 C 333.488 355.933,332.327 360.060,332.526 360.260 C 332.627 360.360,333.104 359.128,333.586 357.521 C 336.531 347.704,337.123 346.398,338.929 345.730 C 339.628 345.472,339.930 345.261,339.600 345.262 C 339.270 345.263,338.523 345.438,337.940 345.651 M331.687 361.887 C 330.892 363.990,330.000 366.943,330.030 367.371 C 330.047 367.607,330.585 366.283,331.226 364.429 C 332.295 361.340,332.665 359.300,331.687 361.887 " stroke="none" fill="#96e2e4" fill-rule="evenodd"></path></g></svg>