<svg id="svg" version="1.1" xmlns="http://www.w3.org/2000/svg" xmlns:xlink="http://www.w3.org/1999/xlink" width="400" height="375" viewBox="0, 0, 400,375"><g id="svgg"><path id="path0" d="M179.083 1.179 C 84.604 5.438,8.119 79.063,0.760 172.833 C -7.714 280.812,76.808 372.984,185.333 374.112 C 194.233 374.205,195.644 374.104,192.469 373.604 C 91.282 357.664,20.459 264.836,32.932 164.500 C 43.108 82.643,107.434 16.259,190.400 1.996 C 192.498 1.635,194.243 1.312,194.277 1.279 C 194.547 1.009,184.344 0.942,179.083 1.179 " stroke="none" fill="#f4941c" fill-rule="evenodd"></path><path id="path1" d="M48.434 137.083 C 47.086 141.885,44.819 152.131,44.405 155.292 L 44.290 156.167 219.802 156.167 C 318.454 156.167,395.353 156.103,395.403 156.022 C 395.636 155.646,393.305 145.329,391.624 139.292 L 390.753 136.167 219.734 136.125 L 48.715 136.083 48.434 137.083 M41.777 180.292 C 41.636 183.684,41.635 193.599,41.775 195.891 L 41.884 197.667 220.265 197.667 L 398.646 197.667 398.773 196.875 C 398.948 195.787,398.950 181.669,398.776 179.458 L 398.635 177.667 220.260 177.667 L 41.886 177.667 41.777 180.292 M44.333 219.453 C 44.333 220.700,46.580 231.193,47.868 235.958 L 48.735 239.167 220.312 239.125 L 391.889 239.083 392.444 237.167 C 393.810 232.452,396.500 220.724,396.500 219.481 C 396.500 219.173,392.886 219.167,220.417 219.167 C 54.000 219.167,44.333 219.182,44.333 219.453 " stroke="none" fill="#fbfbfb" fill-rule="evenodd"></path><path id="path2" d="M111.897 242.792 C 119.686 258.344,131.374 272.588,145.407 283.627 C 145.952 284.056,146.342 284.315,146.273 284.203 C 146.174 284.043,162.083 284.000,220.584 284.000 L 295.020 284.000 296.718 282.633 C 308.440 273.197,318.585 261.338,326.001 248.400 C 327.356 246.036,330.500 239.998,330.500 239.759 C 330.500 239.708,280.962 239.667,220.416 239.667 L 110.332 239.667 111.897 242.792 M216.625 309.454 C 216.923 309.491,217.410 309.491,217.708 309.454 C 218.006 309.417,217.762 309.387,217.167 309.387 C 216.571 309.387,216.327 309.417,216.625 309.454 M223.125 309.454 C 223.423 309.491,223.910 309.491,224.208 309.454 C 224.506 309.417,224.262 309.387,223.667 309.387 C 223.071 309.387,222.827 309.417,223.125 309.454 " stroke="none" fill="#40347a" fill-rule="evenodd"></path><path id="path3" d="M134.305 136.125 C 181.361 136.148,258.311 136.148,305.305 136.125 C 352.300 136.102,313.800 136.083,219.750 136.083 C 125.700 136.083,87.250 136.102,134.305 136.125 M131.139 177.625 C 180.211 177.648,260.461 177.648,309.472 177.625 C 358.483 177.602,318.333 177.583,220.250 177.583 C 122.167 177.583,82.067 177.602,131.139 177.625 M132.278 219.125 C 180.693 219.148,259.968 219.148,308.445 219.125 C 356.921 219.102,317.308 219.083,220.417 219.083 C 123.525 219.083,83.863 219.102,132.278 219.125 M146.167 284.070 C 146.167 284.108,147.148 284.863,148.348 285.748 C 191.250 317.390,249.932 317.331,292.746 285.603 L 294.909 284.000 220.538 284.000 C 179.634 284.000,146.167 284.031,146.167 284.070 " stroke="none" fill="#453684" fill-rule="evenodd"></path><path id="path4" d="M212.000 9.003 C 175.083 10.638,142.682 22.037,114.316 43.369 C 84.941 65.459,62.942 94.873,51.586 127.243 C 50.305 130.895,48.765 135.820,48.870 135.926 C 48.910 135.966,126.158 136.018,220.532 136.041 L 392.120 136.083 391.989 135.667 C 391.916 135.438,391.431 133.900,390.911 132.250 C 375.238 82.544,332.879 38.128,283.725 19.857 C 261.827 11.718,236.667 7.911,212.000 9.003 M43.927 158.000 C 43.056 163.789,42.302 170.794,42.066 175.292 L 41.950 177.500 220.433 177.542 C 318.599 177.565,398.934 177.579,398.954 177.573 C 399.013 177.558,398.692 173.049,398.402 169.833 C 398.102 166.493,397.505 161.634,396.990 158.343 L 396.636 156.083 220.426 156.083 L 44.216 156.083 43.927 158.000 M220.375 197.625 L 42.000 197.667 42.000 198.654 C 42.000 201.211,42.881 210.031,43.674 215.417 C 43.944 217.250,44.165 218.825,44.166 218.917 C 44.166 219.028,103.028 219.083,220.417 219.083 C 317.354 219.083,396.667 219.074,396.667 219.062 C 396.667 219.050,396.888 217.550,397.158 215.728 C 397.971 210.247,398.399 206.158,398.913 198.958 C 398.971 198.156,398.957 197.519,398.884 197.542 C 398.810 197.564,318.481 197.602,220.375 197.625 M220.375 239.125 C 126.027 239.148,48.833 239.215,48.833 239.275 C 48.833 239.704,50.936 246.166,52.298 249.924 C 67.987 293.197,105.180 332.633,148.333 351.751 C 191.224 370.753,245.445 371.317,289.000 353.213 C 329.831 336.241,366.856 299.888,384.799 259.149 C 387.530 252.948,392.177 240.054,391.965 239.265 C 391.930 239.134,344.002 239.095,220.375 239.125 M330.500 239.759 C 330.500 240.375,325.376 249.660,322.971 253.400 C 289.539 305.410,222.963 324.159,167.235 297.259 C 143.617 285.858,123.596 266.152,111.897 242.792 L 110.332 239.667 220.416 239.667 C 280.962 239.667,330.500 239.708,330.500 239.759 " stroke="none" fill="#342967" fill-rule="evenodd"></path></g></svg>