<svg id="svg" version="1.1" xmlns="http://www.w3.org/2000/svg" xmlns:xlink="http://www.w3.org/1999/xlink" width="400" height="461.26126126126127" viewBox="0, 0, 400,461.26126126126127"><g id="svgg"><path id="path0" d="M399.133 115.534 C 399.025 115.805,376.865 128.868,370.000 132.708 C 369.010 133.261,367.722 134.049,367.138 134.457 C 366.554 134.866,365.976 135.200,365.854 135.200 C 365.731 135.200,363.981 136.190,361.964 137.400 C 359.948 138.610,358.227 139.600,358.141 139.600 C 358.055 139.600,357.223 140.081,356.292 140.668 C 355.361 141.256,353.610 142.275,352.400 142.932 C 351.190 143.590,349.252 144.730,348.092 145.464 C 346.933 146.199,345.894 146.800,345.784 146.800 C 345.674 146.800,344.856 147.260,343.966 147.821 C 342.355 148.838,341.028 149.608,337.600 151.514 C 336.610 152.064,335.350 152.819,334.800 153.192 C 334.250 153.565,333.530 153.980,333.200 154.114 C 332.870 154.248,330.350 155.683,327.600 157.302 L 322.600 160.246 322.499 230.462 C 322.403 296.715,322.358 300.713,321.699 301.298 C 321.314 301.640,320.325 302.297,319.500 302.759 C 316.166 304.628,315.182 305.201,313.634 306.179 C 312.744 306.740,311.905 307.200,311.770 307.200 C 311.634 307.200,311.046 307.534,310.462 307.943 C 309.878 308.351,308.590 309.136,307.600 309.686 C 304.172 311.592,302.845 312.362,301.234 313.379 C 300.344 313.940,299.526 314.400,299.416 314.400 C 299.306 314.400,298.267 315.001,297.108 315.735 C 295.948 316.470,293.740 317.754,292.200 318.589 C 290.660 319.424,288.922 320.443,288.338 320.854 C 287.754 321.264,287.173 321.600,287.046 321.600 C 286.919 321.600,285.867 322.201,284.708 322.936 C 283.548 323.670,281.610 324.810,280.400 325.468 C 279.190 326.125,277.439 327.144,276.508 327.732 C 275.577 328.319,274.735 328.800,274.635 328.800 C 274.536 328.800,271.730 330.420,268.400 332.400 C 265.070 334.380,262.250 336.000,262.134 336.000 C 262.018 336.000,261.446 336.334,260.862 336.743 C 260.278 337.151,258.990 337.939,258.000 338.493 C 257.010 339.048,255.030 340.176,253.600 341.000 C 252.170 341.824,250.370 342.855,249.600 343.292 C 248.830 343.728,248.020 344.222,247.800 344.389 C 247.580 344.556,246.545 345.167,245.500 345.746 C 240.473 348.534,239.728 348.965,238.738 349.657 C 238.154 350.066,237.592 350.400,237.489 350.400 C 237.386 350.400,235.652 351.390,233.636 352.600 C 231.619 353.810,229.877 354.800,229.765 354.800 C 229.653 354.800,228.577 355.430,227.373 356.200 C 226.169 356.970,225.110 357.600,225.019 357.600 C 224.928 357.600,223.986 358.123,222.927 358.763 C 218.058 361.702,212.755 364.800,212.594 364.800 C 212.496 364.800,211.431 365.430,210.227 366.200 C 209.023 366.970,207.936 367.600,207.811 367.600 C 207.685 367.600,206.912 368.022,206.091 368.538 C 205.271 369.053,203.565 370.081,202.300 370.822 L 200.000 372.169 200.000 416.739 L 200.000 461.309 201.824 461.059 C 202.828 460.921,203.901 460.582,204.210 460.304 C 205.536 459.115,205.990 458.800,206.383 458.800 C 206.612 458.800,206.800 458.620,206.800 458.400 C 206.800 458.180,207.160 458.000,207.600 458.000 C 208.040 458.000,208.400 457.820,208.400 457.600 C 208.400 457.380,208.698 457.200,209.062 457.200 C 209.426 457.200,210.314 456.750,211.036 456.200 C 211.757 455.650,212.539 455.200,212.773 455.200 C 213.008 455.200,213.200 455.020,213.200 454.800 C 213.200 454.580,213.560 454.400,214.000 454.400 C 214.440 454.400,214.800 454.220,214.800 454.000 C 214.800 453.780,215.160 453.600,215.600 453.600 C 216.040 453.600,216.400 453.420,216.400 453.200 C 216.400 452.980,216.651 452.800,216.957 452.800 C 217.264 452.800,217.618 452.530,217.745 452.200 C 217.871 451.870,218.251 451.600,218.587 451.600 C 218.924 451.600,219.200 451.420,219.200 451.200 C 219.200 450.980,219.650 450.800,220.200 450.800 C 220.750 450.800,221.200 450.653,221.200 450.474 C 221.200 450.295,221.830 449.848,222.600 449.481 C 223.370 449.113,224.000 448.630,224.000 448.406 C 224.000 448.183,224.360 448.000,224.800 448.000 C 225.240 448.000,225.600 447.820,225.600 447.600 C 225.600 447.380,225.825 447.200,226.100 447.201 C 226.978 447.203,230.000 445.420,230.000 444.901 C 230.000 444.625,230.450 444.400,231.000 444.400 C 231.550 444.400,232.000 444.220,232.000 444.000 C 232.000 443.780,232.360 443.600,232.800 443.600 C 233.240 443.600,233.600 443.454,233.600 443.275 C 233.600 443.096,234.230 442.702,235.000 442.400 C 235.770 442.098,236.400 441.614,236.400 441.325 C 236.400 441.032,236.841 440.800,237.400 440.800 C 237.950 440.800,238.400 440.620,238.400 440.400 C 238.400 440.180,238.760 440.000,239.200 440.000 C 239.640 440.000,240.000 439.841,240.000 439.646 C 240.000 439.451,240.630 438.992,241.400 438.627 C 242.170 438.261,242.800 437.791,242.800 437.581 C 242.800 437.372,243.160 437.200,243.600 437.200 C 244.040 437.200,244.400 437.020,244.400 436.800 C 244.400 436.580,244.726 436.400,245.125 436.400 C 245.523 436.400,246.236 436.040,246.708 435.600 C 247.180 435.160,247.850 434.800,248.196 434.800 C 248.542 434.800,248.929 434.530,249.055 434.200 C 249.182 433.870,249.626 433.600,250.043 433.600 C 250.459 433.600,250.800 433.454,250.800 433.275 C 250.800 433.096,251.430 432.702,252.200 432.400 C 252.970 432.098,253.600 431.704,253.600 431.525 C 253.600 431.346,253.966 431.200,254.413 431.200 C 254.859 431.200,255.329 430.930,255.455 430.600 C 255.582 430.270,256.026 430.000,256.443 430.000 C 256.859 430.000,257.200 429.854,257.200 429.675 C 257.200 429.496,257.830 429.102,258.600 428.800 C 259.370 428.498,260.000 428.104,260.000 427.925 C 260.000 427.746,260.276 427.600,260.613 427.600 C 260.949 427.600,261.329 427.330,261.455 427.000 C 261.582 426.670,262.116 426.400,262.643 426.400 C 263.169 426.400,263.600 426.250,263.600 426.067 C 263.600 425.883,264.590 425.215,265.800 424.582 C 267.010 423.949,268.000 423.289,268.000 423.116 C 268.000 422.942,268.360 422.800,268.800 422.800 C 269.240 422.800,269.600 422.620,269.600 422.400 C 269.600 422.180,269.870 422.000,270.200 422.000 C 270.530 422.000,270.800 421.820,270.800 421.600 C 270.800 421.380,271.160 421.200,271.600 421.200 C 272.040 421.200,272.400 421.040,272.400 420.843 C 272.400 420.647,272.850 420.374,273.400 420.236 C 273.950 420.098,274.400 419.808,274.400 419.592 C 274.400 419.377,274.760 419.200,275.200 419.200 C 275.640 419.200,276.000 419.020,276.000 418.800 C 276.000 418.580,276.270 418.400,276.600 418.400 C 276.930 418.400,277.200 418.220,277.200 418.000 C 277.200 417.780,277.483 417.600,277.829 417.600 C 278.174 417.600,278.708 417.375,279.015 417.100 C 280.383 415.873,280.800 415.600,281.308 415.600 C 281.605 415.600,282.236 415.240,282.708 414.800 C 283.180 414.360,283.857 414.000,284.212 414.000 C 284.567 414.000,285.108 413.775,285.415 413.500 C 286.621 412.418,287.048 412.134,288.300 411.580 C 289.015 411.264,289.600 410.869,289.600 410.702 C 289.600 410.536,289.960 410.400,290.400 410.400 C 290.840 410.400,291.200 410.220,291.200 410.000 C 291.200 409.780,291.462 409.600,291.782 409.600 C 292.102 409.600,292.814 409.150,293.364 408.600 C 293.914 408.050,294.732 407.600,295.182 407.600 C 295.632 407.600,296.000 407.420,296.000 407.200 C 296.000 406.980,296.360 406.800,296.800 406.800 C 297.240 406.800,297.600 406.661,297.600 406.491 C 297.600 406.321,298.230 405.843,299.000 405.428 C 299.770 405.013,300.400 404.522,300.400 404.337 C 300.400 404.152,300.850 404.000,301.400 404.000 C 301.950 404.000,302.400 403.820,302.400 403.600 C 302.400 403.380,302.760 403.200,303.200 403.200 C 303.644 403.200,304.000 402.933,304.000 402.600 C 304.000 402.267,304.356 402.000,304.800 402.000 C 305.240 402.000,305.600 401.820,305.600 401.600 C 305.600 401.380,305.870 401.200,306.200 401.200 C 306.530 401.200,306.800 401.020,306.800 400.800 C 306.800 400.580,307.160 400.400,307.600 400.400 C 308.040 400.400,308.400 400.220,308.400 400.000 C 308.400 399.780,308.766 399.600,309.213 399.600 C 309.659 399.600,310.117 399.361,310.229 399.068 C 310.341 398.776,311.056 398.292,311.817 397.993 C 312.577 397.695,313.200 397.304,313.200 397.125 C 313.200 396.946,313.560 396.800,314.000 396.800 C 314.440 396.800,314.800 396.620,314.800 396.400 C 314.800 396.180,314.992 396.000,315.227 396.000 C 315.461 396.000,316.243 395.550,316.964 395.000 C 317.686 394.450,318.484 394.000,318.738 394.000 C 318.992 394.000,319.200 393.820,319.200 393.600 C 319.200 393.380,319.650 393.200,320.200 393.200 C 320.750 393.200,321.200 393.020,321.200 392.800 C 321.200 392.580,321.476 392.400,321.813 392.400 C 322.149 392.400,322.529 392.130,322.655 391.800 C 322.782 391.470,323.136 391.200,323.443 391.200 C 323.749 391.200,324.000 391.020,324.000 390.800 C 324.000 390.580,324.360 390.400,324.800 390.400 C 325.240 390.400,325.600 390.220,325.600 390.000 C 325.600 389.780,325.876 389.600,326.214 389.600 C 326.944 389.600,328.739 388.507,329.647 387.510 C 330.003 387.120,330.678 386.800,331.147 386.800 C 331.616 386.800,332.000 386.620,332.000 386.400 C 332.000 386.180,332.360 386.000,332.800 386.000 C 333.240 386.000,333.600 385.820,333.600 385.600 C 333.600 385.380,333.827 385.200,334.104 385.200 C 334.381 385.200,335.093 384.750,335.687 384.200 C 336.280 383.650,337.133 383.200,337.583 383.200 C 338.032 383.200,338.400 383.020,338.400 382.800 C 338.400 382.580,338.678 382.400,339.017 382.400 C 339.357 382.400,340.120 381.950,340.713 381.400 C 341.307 380.850,342.019 380.400,342.296 380.400 C 342.573 380.400,342.800 380.220,342.800 380.000 C 342.800 379.780,343.160 379.600,343.600 379.600 C 344.040 379.600,344.400 379.420,344.400 379.200 C 344.400 378.980,344.715 378.794,345.100 378.787 C 345.965 378.772,347.200 377.871,347.200 377.256 C 347.200 377.005,347.650 376.800,348.200 376.800 C 348.750 376.800,349.200 376.620,349.200 376.400 C 349.200 376.180,349.560 376.000,350.000 376.000 C 350.440 376.000,350.800 375.820,350.800 375.600 C 350.800 375.380,351.160 375.200,351.600 375.200 C 352.040 375.200,352.400 375.020,352.400 374.800 C 352.400 374.580,352.670 374.400,353.000 374.400 C 353.330 374.400,353.600 374.130,353.600 373.800 C 353.600 373.427,353.978 373.200,354.600 373.200 C 355.150 373.200,355.600 373.020,355.600 372.800 C 355.600 372.580,355.960 372.400,356.400 372.400 C 356.840 372.400,357.200 372.254,357.200 372.075 C 357.200 371.896,357.830 371.502,358.600 371.200 C 359.370 370.898,360.000 370.414,360.000 370.125 C 360.000 369.836,360.360 369.600,360.800 369.600 C 361.240 369.600,361.600 369.420,361.600 369.200 C 361.600 368.980,361.915 368.796,362.300 368.791 C 362.685 368.786,363.450 368.430,364.000 368.000 C 364.550 367.570,365.231 367.214,365.513 367.209 C 365.794 367.204,366.129 366.930,366.255 366.600 C 366.382 366.270,366.826 366.000,367.243 366.000 C 367.659 366.000,368.000 365.820,368.000 365.600 C 368.000 365.380,368.360 365.200,368.800 365.200 C 369.240 365.200,369.600 365.020,369.600 364.800 C 369.600 364.580,369.870 364.400,370.200 364.400 C 370.530 364.400,370.800 364.220,370.800 364.000 C 370.800 363.780,371.160 363.600,371.600 363.600 C 372.044 363.600,372.400 363.333,372.400 363.000 C 372.400 362.627,372.778 362.400,373.400 362.400 C 373.950 362.400,374.400 362.220,374.400 362.000 C 374.400 361.780,374.678 361.600,375.017 361.600 C 375.356 361.600,376.020 361.240,376.492 360.800 C 376.964 360.360,377.677 360.000,378.075 360.000 C 378.474 360.000,378.800 359.730,378.800 359.400 C 378.800 359.067,379.156 358.800,379.600 358.800 C 380.040 358.800,380.400 358.620,380.400 358.400 C 380.400 358.180,380.726 358.000,381.125 358.000 C 381.523 358.000,382.236 357.640,382.708 357.200 C 383.180 356.760,383.850 356.400,384.196 356.400 C 384.542 356.400,384.929 356.130,385.055 355.800 C 385.182 355.470,385.626 355.200,386.043 355.200 C 386.459 355.200,386.800 355.054,386.800 354.875 C 386.800 354.696,387.430 354.302,388.200 354.000 C 388.970 353.698,389.600 353.304,389.600 353.125 C 389.600 352.946,389.960 352.800,390.400 352.800 C 390.840 352.800,391.200 352.628,391.200 352.419 C 391.200 352.209,391.830 351.739,392.600 351.373 C 393.370 351.008,394.000 350.549,394.000 350.354 C 394.000 350.159,394.450 350.000,395.000 350.000 C 395.550 350.000,396.000 349.820,396.000 349.600 C 396.000 349.380,396.276 349.200,396.613 349.200 C 396.949 349.200,397.329 348.930,397.455 348.600 C 397.582 348.270,397.949 348.000,398.271 348.000 C 400.092 348.000,400.000 354.236,400.000 231.029 C 400.000 161.096,399.855 115.200,399.633 115.200 C 399.432 115.200,399.207 115.350,399.133 115.534 " stroke="none" fill="#2080d8" fill-rule="evenodd"></path><path id="path1" d="M197.039 0.264 C 196.315 0.472,195.881 0.765,194.615 1.900 C 194.308 2.175,193.864 2.400,193.629 2.400 C 193.393 2.400,193.200 2.580,193.200 2.800 C 193.200 3.020,192.840 3.200,192.400 3.200 C 191.960 3.200,191.600 3.380,191.600 3.600 C 191.600 3.820,191.274 4.000,190.875 4.000 C 190.477 4.000,189.717 4.405,189.188 4.900 C 188.054 5.959,186.534 6.800,185.754 6.800 C 185.449 6.800,185.200 6.946,185.200 7.125 C 185.200 7.304,184.570 7.698,183.800 8.000 C 183.030 8.302,182.400 8.786,182.400 9.075 C 182.400 9.364,182.040 9.600,181.600 9.600 C 181.160 9.600,180.800 9.780,180.800 10.000 C 180.800 10.220,180.350 10.400,179.800 10.400 C 179.250 10.400,178.800 10.580,178.800 10.800 C 178.800 11.020,178.530 11.200,178.200 11.200 C 177.870 11.200,177.600 11.380,177.600 11.600 C 177.600 11.820,177.324 12.000,176.987 12.000 C 176.651 12.000,176.271 12.270,176.145 12.600 C 176.018 12.930,175.574 13.200,175.157 13.200 C 174.741 13.200,174.400 13.380,174.400 13.600 C 174.400 13.820,174.085 14.004,173.700 14.009 C 173.315 14.014,172.550 14.370,172.000 14.800 C 171.450 15.230,170.775 15.586,170.500 15.591 C 170.225 15.596,170.000 15.870,170.000 16.200 C 170.000 16.573,169.622 16.800,169.000 16.800 C 168.450 16.800,168.000 16.946,168.000 17.125 C 168.000 17.304,167.370 17.698,166.600 18.000 C 165.830 18.302,165.200 18.696,165.200 18.875 C 165.200 19.054,164.924 19.200,164.587 19.200 C 164.251 19.200,163.871 19.470,163.745 19.800 C 163.618 20.130,163.084 20.400,162.557 20.400 C 162.031 20.400,161.600 20.580,161.600 20.800 C 161.600 21.020,161.280 21.200,160.888 21.200 C 160.497 21.200,159.917 21.560,159.600 22.000 C 159.283 22.440,158.697 22.800,158.299 22.800 C 157.901 22.800,157.471 23.070,157.345 23.400 C 157.218 23.730,156.774 24.000,156.357 24.000 C 155.941 24.000,155.600 24.180,155.600 24.400 C 155.600 24.620,155.274 24.800,154.875 24.800 C 154.477 24.800,153.764 25.160,153.292 25.600 C 152.820 26.040,152.150 26.400,151.804 26.400 C 151.458 26.400,151.071 26.670,150.945 27.000 C 150.818 27.330,150.374 27.600,149.957 27.600 C 149.541 27.600,149.200 27.768,149.200 27.974 C 149.200 28.180,148.570 28.576,147.800 28.854 C 147.030 29.133,146.400 29.505,146.400 29.680 C 146.400 29.856,146.124 30.000,145.787 30.000 C 145.451 30.000,145.071 30.270,144.945 30.600 C 144.818 30.930,144.366 31.200,143.940 31.200 C 143.515 31.200,142.780 31.560,142.308 32.000 C 141.836 32.440,141.200 32.800,140.896 32.800 C 140.592 32.800,140.092 33.025,139.785 33.300 C 138.417 34.527,138.000 34.800,137.492 34.800 C 137.195 34.800,136.564 35.160,136.092 35.600 C 135.620 36.040,134.956 36.400,134.617 36.400 C 134.278 36.400,134.000 36.560,134.000 36.757 C 134.000 36.953,133.550 37.226,133.000 37.364 C 132.450 37.502,132.000 37.792,132.000 38.008 C 132.000 38.223,131.640 38.400,131.200 38.400 C 130.760 38.400,130.400 38.580,130.400 38.800 C 130.400 39.020,130.130 39.200,129.800 39.200 C 129.470 39.200,129.200 39.380,129.200 39.600 C 129.200 39.820,128.840 40.000,128.400 40.000 C 127.960 40.000,127.600 40.177,127.600 40.392 C 127.600 40.608,127.150 40.898,126.600 41.036 C 126.050 41.174,125.600 41.447,125.600 41.643 C 125.600 41.840,125.375 42.004,125.100 42.009 C 124.825 42.014,124.150 42.370,123.600 42.800 C 123.050 43.230,122.304 43.586,121.943 43.591 C 121.581 43.596,121.182 43.870,121.055 44.200 C 120.929 44.530,120.549 44.800,120.213 44.800 C 119.876 44.800,119.600 44.946,119.600 45.125 C 119.600 45.304,118.970 45.698,118.200 46.000 C 117.430 46.302,116.800 46.696,116.800 46.875 C 116.800 47.054,116.462 47.200,116.049 47.200 C 115.636 47.200,115.074 47.470,114.800 47.800 C 114.526 48.130,114.054 48.400,113.751 48.400 C 113.448 48.400,113.200 48.580,113.200 48.800 C 113.200 49.020,112.930 49.200,112.600 49.200 C 112.270 49.200,112.000 49.380,112.000 49.600 C 112.000 49.820,111.640 50.000,111.200 50.000 C 110.760 50.000,110.400 50.180,110.400 50.400 C 110.400 50.620,110.034 50.800,109.587 50.800 C 109.141 50.800,108.671 51.070,108.545 51.400 C 108.418 51.730,108.013 52.000,107.646 52.000 C 107.278 52.000,106.717 52.360,106.400 52.800 C 106.083 53.240,105.413 53.600,104.912 53.600 C 104.410 53.600,104.000 53.780,104.000 54.000 C 104.000 54.220,103.640 54.400,103.200 54.400 C 102.760 54.400,102.400 54.634,102.400 54.920 C 102.400 55.205,101.770 55.667,101.000 55.946 C 100.230 56.224,99.600 56.620,99.600 56.826 C 99.600 57.032,99.358 57.200,99.061 57.200 C 98.334 57.200,96.000 58.385,96.000 58.755 C 96.000 58.917,95.370 59.298,94.600 59.600 C 93.830 59.902,93.200 60.296,93.200 60.475 C 93.200 60.654,92.855 60.800,92.433 60.800 C 92.012 60.800,91.603 60.990,91.526 61.222 C 91.449 61.454,91.069 61.690,90.682 61.747 C 90.295 61.804,89.952 62.019,89.920 62.225 C 89.888 62.431,88.453 63.288,86.731 64.129 C 85.009 64.970,83.600 65.825,83.600 66.029 C 83.600 66.233,83.330 66.400,83.000 66.400 C 82.670 66.400,82.400 66.580,82.400 66.800 C 82.400 67.020,82.040 67.200,81.600 67.200 C 81.160 67.200,80.800 67.380,80.800 67.600 C 80.800 67.820,80.427 68.000,79.971 68.000 C 79.516 68.000,78.892 68.225,78.585 68.500 C 77.262 69.687,76.809 70.000,76.417 70.000 C 76.188 70.000,76.000 70.180,76.000 70.400 C 76.000 70.620,75.640 70.800,75.200 70.800 C 74.760 70.800,74.400 70.980,74.400 71.200 C 74.400 71.420,74.102 71.600,73.738 71.600 C 73.085 71.600,70.327 73.466,70.067 74.083 C 69.993 74.258,69.498 74.400,68.967 74.400 C 68.435 74.400,68.000 74.580,68.000 74.800 C 68.000 75.020,67.640 75.200,67.200 75.200 C 66.760 75.200,66.400 75.380,66.400 75.600 C 66.400 75.820,66.149 76.000,65.843 76.000 C 65.536 76.000,65.182 76.270,65.055 76.600 C 64.929 76.930,64.549 77.200,64.213 77.200 C 63.876 77.200,63.600 77.380,63.600 77.600 C 63.600 77.820,63.150 78.000,62.600 78.000 C 62.050 78.000,61.600 78.158,61.600 78.351 C 61.600 78.545,61.060 78.927,60.400 79.200 C 59.740 79.473,59.200 79.945,59.200 80.249 C 59.200 80.570,58.783 80.800,58.200 80.800 C 57.650 80.800,57.200 80.980,57.200 81.200 C 57.200 81.420,56.840 81.600,56.400 81.600 C 55.960 81.600,55.600 81.780,55.600 82.000 C 55.600 82.220,55.285 82.406,54.900 82.413 C 54.035 82.428,52.800 83.329,52.800 83.944 C 52.800 84.195,52.350 84.400,51.800 84.400 C 51.250 84.400,50.800 84.580,50.800 84.800 C 50.800 85.020,50.440 85.200,50.000 85.200 C 49.560 85.200,49.200 85.380,49.200 85.600 C 49.200 85.820,48.930 86.000,48.600 86.000 C 48.270 86.000,48.000 86.180,48.000 86.400 C 48.000 86.620,47.640 86.800,47.200 86.800 C 46.756 86.800,46.400 87.067,46.400 87.400 C 46.400 87.733,46.044 88.000,45.600 88.000 C 45.160 88.000,44.800 88.180,44.800 88.400 C 44.800 88.620,44.350 88.800,43.800 88.800 C 43.250 88.800,42.800 88.959,42.800 89.154 C 42.800 89.349,42.170 89.808,41.400 90.173 C 40.630 90.539,40.000 91.009,40.000 91.219 C 40.000 91.428,39.640 91.600,39.200 91.600 C 38.760 91.600,38.400 91.780,38.400 92.000 C 38.400 92.220,38.074 92.400,37.675 92.400 C 37.277 92.400,36.564 92.760,36.092 93.200 C 35.620 93.640,34.975 94.000,34.660 94.000 C 34.344 94.000,33.982 94.270,33.855 94.600 C 33.729 94.930,33.274 95.200,32.846 95.200 C 32.417 95.200,32.007 95.367,31.933 95.570 C 31.860 95.774,31.537 95.999,31.216 96.070 C 30.894 96.142,30.275 96.515,29.840 96.900 C 29.405 97.285,28.723 97.600,28.325 97.600 C 27.926 97.600,27.600 97.870,27.600 98.200 C 27.600 98.573,27.222 98.800,26.600 98.800 C 26.050 98.800,25.600 98.980,25.600 99.200 C 25.600 99.420,25.375 99.604,25.100 99.609 C 24.825 99.614,24.150 99.970,23.600 100.400 C 23.050 100.830,22.285 101.186,21.900 101.191 C 21.515 101.196,21.200 101.470,21.200 101.800 C 21.200 102.133,20.844 102.400,20.400 102.400 C 19.960 102.400,19.600 102.546,19.600 102.725 C 19.600 102.904,18.970 103.298,18.200 103.600 C 17.430 103.902,16.800 104.296,16.800 104.475 C 16.800 104.654,16.434 104.800,15.987 104.800 C 15.541 104.800,15.083 105.039,14.971 105.332 C 14.859 105.624,14.144 106.108,13.383 106.407 C 12.623 106.705,12.000 107.096,12.000 107.275 C 12.000 107.454,11.640 107.600,11.200 107.600 C 10.760 107.600,10.400 107.780,10.400 108.000 C 10.400 108.220,10.059 108.400,9.643 108.400 C 9.226 108.400,8.782 108.670,8.655 109.000 C 8.529 109.330,8.099 109.600,7.701 109.600 C 7.303 109.600,6.717 109.960,6.400 110.400 C 6.083 110.840,5.413 111.200,4.912 111.200 C 4.410 111.200,4.000 111.380,4.000 111.600 C 4.000 111.820,3.739 112.000,3.420 112.000 C 3.101 112.000,2.696 112.229,2.520 112.508 C 2.344 112.788,1.705 113.234,1.100 113.500 C -0.235 114.086,-0.304 114.811,0.900 115.590 C 2.496 116.623,6.094 118.800,6.205 118.800 C 6.264 118.800,8.807 120.265,11.856 122.056 C 14.905 123.846,18.210 125.762,19.200 126.313 C 20.190 126.864,21.478 127.649,22.062 128.057 C 22.646 128.466,23.234 128.800,23.370 128.800 C 23.505 128.800,24.377 129.281,25.308 129.868 C 26.239 130.456,27.990 131.475,29.200 132.132 C 30.410 132.790,32.348 133.930,33.508 134.664 C 34.667 135.399,35.706 136.000,35.816 136.000 C 35.926 136.000,36.750 136.464,37.648 137.030 C 38.545 137.597,40.117 138.520,41.140 139.082 C 42.163 139.643,44.914 141.241,47.253 142.632 C 51.501 145.158,53.009 146.029,56.400 147.914 C 57.390 148.464,58.678 149.249,59.262 149.657 C 59.846 150.066,60.434 150.400,60.570 150.400 C 60.705 150.400,61.544 150.860,62.434 151.421 C 64.045 152.438,65.372 153.208,68.800 155.114 C 69.790 155.664,71.078 156.449,71.662 156.857 C 72.246 157.266,72.839 157.600,72.981 157.600 C 73.123 157.600,74.223 158.230,75.427 159.000 L 77.616 160.401 79.108 159.457 C 81.993 157.634,89.592 153.200,89.833 153.200 C 89.967 153.200,90.554 152.866,91.138 152.457 C 91.722 152.049,93.010 151.264,94.000 150.713 C 94.990 150.162,96.430 149.336,97.200 148.877 C 98.543 148.077,99.417 147.574,101.600 146.347 C 102.150 146.038,104.760 144.508,107.400 142.949 C 110.040 141.389,113.010 139.659,114.000 139.104 C 114.990 138.549,118.296 136.633,121.347 134.847 C 124.399 133.061,126.981 131.600,127.086 131.600 C 127.191 131.600,127.754 131.266,128.338 130.857 C 128.922 130.449,130.210 129.663,131.200 129.111 C 132.932 128.146,146.369 120.373,147.600 119.625 C 148.506 119.074,167.194 108.210,168.800 107.301 C 169.570 106.865,172.236 105.314,174.724 103.853 C 177.212 102.393,180.002 100.770,180.924 100.247 C 181.846 99.723,185.096 97.833,188.147 96.047 C 191.199 94.261,193.746 92.800,193.810 92.800 C 193.873 92.800,195.238 91.990,196.844 91.000 C 200.397 88.809,199.648 88.767,204.036 91.400 C 206.052 92.610,207.778 93.600,207.870 93.600 C 207.963 93.600,209.023 94.230,210.227 95.000 C 211.431 95.770,212.482 96.400,212.564 96.400 C 212.645 96.400,215.207 97.865,218.256 99.656 C 221.305 101.446,224.610 103.362,225.600 103.913 C 226.590 104.464,227.878 105.249,228.462 105.657 C 229.046 106.066,229.624 106.400,229.746 106.400 C 229.869 106.400,231.619 107.390,233.636 108.600 C 235.652 109.810,237.386 110.800,237.489 110.800 C 237.592 110.800,238.154 111.134,238.738 111.543 C 239.322 111.951,240.610 112.739,241.600 113.292 C 242.590 113.846,245.200 115.335,247.400 116.602 C 249.600 117.869,252.480 119.528,253.800 120.287 C 255.120 121.047,256.380 121.809,256.600 121.981 C 256.820 122.153,257.855 122.767,258.900 123.346 C 263.424 125.855,264.867 126.687,269.510 129.464 C 272.211 131.079,274.515 132.400,274.630 132.400 C 274.744 132.400,275.823 133.030,277.027 133.800 C 278.231 134.570,279.295 135.200,279.392 135.200 C 279.489 135.200,281.219 136.190,283.236 137.400 C 285.252 138.610,286.978 139.600,287.070 139.600 C 287.163 139.600,288.223 140.230,289.427 141.000 C 290.631 141.770,291.695 142.400,291.792 142.400 C 291.889 142.400,293.619 143.390,295.636 144.600 C 297.652 145.810,299.373 146.800,299.459 146.800 C 299.545 146.800,300.344 147.260,301.234 147.821 C 302.845 148.838,304.172 149.608,307.600 151.514 C 308.590 152.064,309.878 152.849,310.462 153.257 C 311.046 153.666,311.616 154.000,311.729 154.000 C 311.842 154.000,313.344 154.836,315.067 155.858 C 316.790 156.880,319.010 158.162,320.000 158.708 C 320.990 159.253,321.954 159.839,322.142 160.011 C 322.330 160.183,324.456 159.171,326.866 157.761 C 329.276 156.352,332.092 154.730,333.124 154.158 C 334.156 153.585,335.180 152.979,335.400 152.812 C 335.620 152.644,336.610 152.058,337.600 151.510 C 340.908 149.678,342.336 148.851,343.966 147.821 C 344.856 147.260,345.674 146.800,345.784 146.800 C 345.894 146.800,346.933 146.199,348.092 145.464 C 349.252 144.730,351.190 143.590,352.400 142.932 C 353.610 142.275,355.361 141.256,356.292 140.668 C 357.223 140.081,358.055 139.600,358.141 139.600 C 358.227 139.600,359.948 138.610,361.964 137.400 C 363.981 136.190,365.731 135.200,365.854 135.200 C 365.976 135.200,366.554 134.866,367.138 134.457 C 367.722 134.049,369.010 133.261,370.000 132.708 C 375.879 129.419,399.083 115.770,399.500 115.355 C 400.326 114.533,399.539 113.200,398.229 113.200 C 397.883 113.200,397.600 113.033,397.600 112.829 C 397.600 112.626,396.610 111.974,395.400 111.382 C 394.190 110.790,393.200 110.147,393.200 109.953 C 393.200 109.759,392.859 109.600,392.443 109.600 C 392.026 109.600,391.582 109.330,391.455 109.000 C 391.329 108.670,390.859 108.400,390.413 108.400 C 389.966 108.400,389.600 108.254,389.600 108.075 C 389.600 107.896,388.970 107.502,388.200 107.200 C 387.430 106.898,386.800 106.504,386.800 106.325 C 386.800 106.146,386.459 106.000,386.043 106.000 C 385.626 106.000,385.182 105.730,385.055 105.400 C 384.929 105.070,384.459 104.800,384.013 104.800 C 383.566 104.800,383.200 104.654,383.200 104.475 C 383.200 104.296,382.570 103.902,381.800 103.600 C 381.030 103.298,380.400 102.904,380.400 102.725 C 380.400 102.546,380.040 102.400,379.600 102.400 C 379.156 102.400,378.800 102.133,378.800 101.800 C 378.800 101.470,378.474 101.200,378.075 101.200 C 377.677 101.200,376.964 100.840,376.492 100.400 C 376.020 99.960,375.356 99.600,375.017 99.600 C 374.678 99.600,374.400 99.420,374.400 99.200 C 374.400 98.980,373.969 98.800,373.443 98.800 C 372.916 98.800,372.382 98.530,372.255 98.200 C 372.129 97.870,371.749 97.600,371.413 97.600 C 371.076 97.600,370.800 97.454,370.800 97.275 C 370.800 97.096,370.170 96.702,369.400 96.400 C 368.630 96.098,368.000 95.704,368.000 95.525 C 368.000 95.346,367.659 95.200,367.243 95.200 C 366.826 95.200,366.382 94.930,366.255 94.600 C 366.129 94.270,365.794 93.996,365.513 93.991 C 365.231 93.986,364.550 93.630,364.000 93.200 C 363.450 92.770,362.685 92.414,362.300 92.409 C 361.915 92.404,361.600 92.220,361.600 92.000 C 361.600 91.780,361.240 91.600,360.800 91.600 C 360.360 91.600,360.000 91.417,360.000 91.194 C 360.000 90.970,359.370 90.487,358.600 90.119 C 357.830 89.752,357.200 89.305,357.200 89.126 C 357.200 88.947,356.851 88.800,356.424 88.800 C 355.997 88.800,355.536 88.620,355.400 88.400 C 355.264 88.180,354.885 88.000,354.557 88.000 C 354.230 88.000,353.545 87.550,353.035 87.000 C 352.525 86.450,351.814 86.000,351.454 86.000 C 351.094 86.000,350.800 85.820,350.800 85.600 C 350.800 85.380,350.440 85.200,350.000 85.200 C 349.560 85.200,349.200 85.020,349.200 84.800 C 349.200 84.580,348.750 84.400,348.200 84.400 C 347.598 84.400,347.200 84.172,347.200 83.826 C 347.200 83.510,346.570 83.024,345.800 82.746 C 345.030 82.467,344.400 82.095,344.400 81.920 C 344.400 81.744,344.040 81.600,343.600 81.600 C 343.160 81.600,342.800 81.420,342.800 81.200 C 342.800 80.980,342.573 80.800,342.296 80.800 C 342.019 80.800,341.307 80.350,340.713 79.800 C 340.120 79.250,339.357 78.800,339.017 78.800 C 338.678 78.800,338.400 78.620,338.400 78.400 C 338.400 78.180,337.950 78.000,337.400 78.000 C 336.850 78.000,336.400 77.820,336.400 77.600 C 336.400 77.380,336.208 77.200,335.973 77.200 C 335.739 77.200,334.957 76.750,334.236 76.200 C 333.514 75.650,332.716 75.200,332.462 75.200 C 332.208 75.200,332.000 75.020,332.000 74.800 C 332.000 74.580,331.550 74.400,331.000 74.400 C 330.450 74.400,330.000 74.220,330.000 74.000 C 330.000 73.780,329.829 73.600,329.621 73.600 C 329.412 73.600,328.756 73.150,328.162 72.600 C 327.569 72.050,326.749 71.600,326.342 71.600 C 325.934 71.600,325.600 71.420,325.600 71.200 C 325.600 70.980,325.240 70.800,324.800 70.800 C 324.360 70.800,324.000 70.620,324.000 70.400 C 324.000 70.180,323.730 70.000,323.400 70.000 C 323.070 70.000,322.800 69.833,322.800 69.629 C 322.800 69.202,320.541 68.000,319.739 68.000 C 319.442 68.000,319.200 67.854,319.200 67.675 C 319.200 67.496,318.577 67.105,317.817 66.807 C 317.056 66.508,316.341 66.024,316.229 65.732 C 316.117 65.439,315.749 65.200,315.413 65.200 C 315.076 65.200,314.800 65.020,314.800 64.800 C 314.800 64.580,314.440 64.400,314.000 64.400 C 313.560 64.400,313.200 64.254,313.200 64.075 C 313.200 63.896,312.577 63.505,311.817 63.207 C 311.056 62.908,310.341 62.424,310.229 62.132 C 310.117 61.839,309.659 61.600,309.213 61.600 C 308.766 61.600,308.400 61.420,308.400 61.200 C 308.400 60.980,308.040 60.800,307.600 60.800 C 307.160 60.800,306.800 60.620,306.800 60.400 C 306.800 60.180,306.485 59.994,306.100 59.987 C 305.235 59.972,304.000 59.071,304.000 58.456 C 304.000 58.205,303.651 58.000,303.224 58.000 C 302.797 58.000,302.336 57.820,302.200 57.600 C 302.064 57.380,301.603 57.200,301.176 57.200 C 300.749 57.200,300.400 57.020,300.400 56.800 C 300.400 56.580,300.130 56.400,299.800 56.400 C 299.470 56.400,299.200 56.220,299.200 56.000 C 299.200 55.780,298.840 55.600,298.400 55.600 C 297.956 55.600,297.600 55.333,297.600 55.000 C 297.600 54.667,297.244 54.400,296.800 54.400 C 296.360 54.400,296.000 54.220,296.000 54.000 C 296.000 53.780,295.685 53.596,295.300 53.591 C 294.915 53.586,294.150 53.230,293.600 52.800 C 293.050 52.370,292.394 52.014,292.143 52.009 C 291.891 52.004,291.582 51.730,291.455 51.400 C 291.329 51.070,290.859 50.800,290.413 50.800 C 289.966 50.800,289.600 50.654,289.600 50.475 C 289.600 50.296,288.970 49.902,288.200 49.600 C 287.430 49.298,286.800 48.904,286.800 48.725 C 286.800 48.546,286.552 48.400,286.249 48.400 C 285.946 48.400,285.474 48.130,285.200 47.800 C 284.926 47.470,284.364 47.200,283.951 47.200 C 283.538 47.200,283.200 47.064,283.200 46.898 C 283.200 46.731,282.615 46.337,281.900 46.022 C 281.185 45.707,280.381 45.258,280.114 45.025 C 278.741 43.825,278.390 43.600,277.892 43.600 C 277.595 43.600,276.964 43.240,276.492 42.800 C 276.020 42.360,275.356 42.000,275.017 42.000 C 274.678 42.000,274.400 41.840,274.400 41.643 C 274.400 41.447,273.950 41.174,273.400 41.036 C 272.850 40.898,272.400 40.608,272.400 40.392 C 272.400 40.177,272.040 40.000,271.600 40.000 C 271.160 40.000,270.800 39.820,270.800 39.600 C 270.800 39.380,270.530 39.200,270.200 39.200 C 269.870 39.200,269.600 39.020,269.600 38.800 C 269.600 38.580,269.240 38.400,268.800 38.400 C 268.360 38.400,268.000 38.261,268.000 38.091 C 268.000 37.921,267.325 37.434,266.500 37.008 C 265.675 36.582,264.522 35.911,263.938 35.517 C 263.354 35.123,262.666 34.800,262.410 34.800 C 262.153 34.800,261.692 34.575,261.385 34.300 C 260.029 33.084,259.602 32.799,259.117 32.791 C 258.833 32.786,258.150 32.430,257.600 32.000 C 257.050 31.570,256.397 31.214,256.149 31.209 C 255.901 31.204,255.476 30.932,255.204 30.604 C 254.932 30.277,254.548 30.108,254.352 30.230 C 254.155 30.351,253.886 30.169,253.754 29.825 C 253.622 29.481,253.264 29.200,252.957 29.200 C 252.651 29.200,252.400 29.020,252.400 28.800 C 252.400 28.580,252.040 28.400,251.600 28.400 C 251.160 28.400,250.800 28.220,250.800 28.000 C 250.800 27.780,250.459 27.600,250.043 27.600 C 249.626 27.600,249.182 27.330,249.055 27.000 C 248.929 26.670,248.542 26.400,248.196 26.400 C 247.850 26.400,247.180 26.040,246.708 25.600 C 246.236 25.160,245.523 24.800,245.125 24.800 C 244.726 24.800,244.400 24.620,244.400 24.400 C 244.400 24.180,244.040 24.000,243.600 24.000 C 243.160 24.000,242.800 23.833,242.800 23.629 C 242.800 23.295,241.984 22.786,239.303 21.448 C 238.810 21.201,238.405 20.865,238.403 20.700 C 238.401 20.535,237.950 20.400,237.400 20.400 C 236.778 20.400,236.400 20.173,236.400 19.800 C 236.400 19.467,236.044 19.200,235.600 19.200 C 235.160 19.200,234.800 19.020,234.800 18.800 C 234.800 18.580,234.530 18.400,234.200 18.400 C 233.870 18.400,233.600 18.220,233.600 18.000 C 233.600 17.780,233.240 17.600,232.800 17.600 C 232.360 17.600,232.000 17.420,232.000 17.200 C 232.000 16.980,231.550 16.800,231.000 16.800 C 230.361 16.800,230.000 16.575,230.000 16.176 C 230.000 15.833,229.820 15.664,229.600 15.800 C 229.380 15.936,229.199 15.902,229.197 15.724 C 229.194 15.303,226.903 14.000,226.168 14.000 C 225.855 14.000,225.600 13.820,225.600 13.600 C 225.600 13.380,225.339 13.200,225.021 13.200 C 224.702 13.200,223.956 12.750,223.362 12.200 C 222.769 11.650,222.039 11.200,221.742 11.200 C 221.444 11.200,221.200 11.020,221.200 10.800 C 221.200 10.580,220.750 10.400,220.200 10.400 C 219.650 10.400,219.200 10.220,219.200 10.000 C 219.200 9.780,218.924 9.600,218.587 9.600 C 218.251 9.600,217.871 9.330,217.745 9.000 C 217.618 8.670,217.264 8.400,216.957 8.400 C 216.651 8.400,216.400 8.209,216.400 7.976 C 216.400 7.743,216.235 7.655,216.032 7.780 C 215.830 7.905,215.393 7.736,215.061 7.404 C 214.729 7.072,214.174 6.800,213.829 6.800 C 213.483 6.800,213.200 6.663,213.200 6.495 C 213.200 6.183,212.895 5.992,210.167 4.600 C 209.305 4.160,208.540 3.665,208.467 3.500 C 208.393 3.335,207.988 3.200,207.567 3.200 C 207.145 3.200,206.800 3.020,206.800 2.800 C 206.800 2.580,206.530 2.400,206.200 2.400 C 205.870 2.400,205.600 2.209,205.600 1.976 C 205.600 1.743,205.432 1.656,205.227 1.783 C 205.022 1.910,204.582 1.624,204.249 1.148 C 203.631 0.266,199.010 -0.301,197.039 0.264 " stroke="none" fill="#a7cb34" fill-rule="evenodd"></path><path id="path2" d="M0.000 230.600 C 0.000 302.442,0.142 346.000,0.376 346.000 C 0.583 346.000,0.855 345.834,0.980 345.632 C 1.105 345.430,2.061 344.779,3.104 344.186 C 4.147 343.594,5.754 342.679,6.676 342.155 C 7.598 341.630,10.388 340.006,12.876 338.546 C 15.364 337.086,18.210 335.440,19.200 334.888 C 20.190 334.337,21.478 333.551,22.062 333.143 C 22.646 332.734,23.216 332.400,23.329 332.400 C 23.442 332.400,24.904 331.590,26.578 330.600 C 28.253 329.610,29.706 328.800,29.807 328.800 C 29.909 328.800,31.255 327.990,32.800 327.000 C 34.345 326.010,35.700 325.200,35.812 325.200 C 35.924 325.200,36.750 324.736,37.648 324.170 C 38.545 323.603,40.117 322.680,41.140 322.118 C 42.163 321.557,44.979 319.920,47.399 318.481 C 49.818 317.042,52.788 315.326,53.999 314.668 C 55.209 314.010,57.148 312.870,58.308 312.136 C 59.467 311.401,60.506 310.800,60.616 310.800 C 60.726 310.800,61.544 310.340,62.434 309.779 C 64.045 308.762,65.372 307.992,68.800 306.086 C 69.790 305.536,71.078 304.751,71.662 304.343 C 72.246 303.934,72.828 303.600,72.956 303.600 C 73.083 303.600,74.091 303.045,75.194 302.366 L 77.200 301.131 77.200 230.600 L 77.200 160.069 75.194 158.834 C 74.091 158.155,73.083 157.600,72.956 157.600 C 72.828 157.600,72.246 157.266,71.662 156.857 C 71.078 156.449,69.790 155.664,68.800 155.114 C 65.372 153.208,64.045 152.438,62.434 151.421 C 61.544 150.860,60.705 150.400,60.570 150.400 C 60.434 150.400,59.846 150.066,59.262 149.657 C 58.678 149.249,57.390 148.464,56.400 147.914 C 53.009 146.029,51.501 145.158,47.253 142.632 C 44.914 141.241,42.163 139.643,41.140 139.082 C 40.117 138.520,38.545 137.597,37.648 137.030 C 36.750 136.464,35.926 136.000,35.816 136.000 C 35.706 136.000,34.667 135.399,33.508 134.664 C 32.348 133.930,30.410 132.790,29.200 132.132 C 27.990 131.475,26.239 130.456,25.308 129.868 C 24.377 129.281,23.505 128.800,23.370 128.800 C 23.234 128.800,22.646 128.466,22.062 128.057 C 21.478 127.649,20.190 126.863,19.200 126.312 C 18.210 125.760,15.364 124.114,12.876 122.654 C 10.388 121.194,7.598 119.570,6.676 119.045 C 5.754 118.521,4.147 117.606,3.104 117.014 C 2.061 116.421,1.105 115.770,0.980 115.568 C 0.855 115.366,0.583 115.200,0.376 115.200 C 0.142 115.200,0.000 158.758,0.000 230.600 " stroke="none" fill="#a4043c" fill-rule="evenodd"></path><path id="path3" d="M77.298 230.666 L 77.200 301.131 75.194 302.366 C 74.091 303.045,73.083 303.600,72.956 303.600 C 72.828 303.600,72.246 303.934,71.662 304.343 C 71.078 304.751,69.790 305.536,68.800 306.086 C 65.372 307.992,64.045 308.762,62.434 309.779 C 61.544 310.340,60.726 310.800,60.616 310.800 C 60.506 310.800,59.467 311.401,58.308 312.136 C 57.148 312.870,55.209 314.010,53.999 314.668 C 52.788 315.326,49.818 317.042,47.399 318.481 C 44.979 319.920,42.163 321.557,41.140 322.118 C 40.117 322.680,38.545 323.603,37.648 324.170 C 36.750 324.736,35.924 325.200,35.812 325.200 C 35.700 325.200,34.345 326.010,32.800 327.000 C 31.255 327.990,29.909 328.800,29.807 328.800 C 29.706 328.800,28.253 329.610,26.578 330.600 C 24.904 331.590,23.442 332.400,23.329 332.400 C 23.216 332.400,22.646 332.734,22.062 333.143 C 21.478 333.551,20.190 334.336,19.200 334.887 C 18.210 335.438,14.905 337.354,11.856 339.144 C 8.807 340.935,6.264 342.400,6.205 342.400 C 6.033 342.400,1.901 344.929,0.805 345.705 C -0.314 346.496,0.026 347.683,1.443 347.934 C 1.859 348.007,2.380 348.295,2.600 348.573 C 3.006 349.087,3.263 349.200,4.024 349.200 C 4.257 349.200,4.336 349.380,4.200 349.600 C 4.062 349.823,4.366 350.000,4.888 350.000 C 5.403 350.000,6.083 350.360,6.400 350.800 C 6.717 351.240,7.278 351.600,7.646 351.600 C 8.013 351.600,8.418 351.870,8.545 352.200 C 8.671 352.530,9.141 352.800,9.587 352.800 C 10.034 352.800,10.400 352.980,10.400 353.200 C 10.400 353.420,10.760 353.600,11.200 353.600 C 11.640 353.600,12.000 353.780,12.000 354.000 C 12.000 354.220,12.270 354.400,12.600 354.400 C 12.930 354.400,13.200 354.580,13.200 354.800 C 13.200 355.020,13.541 355.200,13.957 355.200 C 14.374 355.200,14.818 355.470,14.945 355.800 C 15.071 356.130,15.496 356.404,15.887 356.409 C 16.279 356.414,17.050 356.770,17.600 357.200 C 18.150 357.630,18.825 357.986,19.100 357.991 C 19.375 357.996,19.600 358.167,19.600 358.372 C 19.600 358.577,20.005 358.806,20.500 358.882 C 20.995 358.957,21.351 359.253,21.290 359.539 C 21.230 359.825,21.335 359.964,21.523 359.847 C 21.712 359.731,22.517 360.077,23.312 360.618 C 24.107 361.158,24.947 361.600,25.179 361.600 C 25.410 361.600,25.600 361.780,25.600 362.000 C 25.600 362.220,26.050 362.400,26.600 362.400 C 27.222 362.400,27.600 362.627,27.600 363.000 C 27.600 363.333,27.956 363.600,28.400 363.600 C 28.840 363.600,29.200 363.780,29.200 364.000 C 29.200 364.220,29.470 364.400,29.800 364.400 C 30.130 364.400,30.400 364.580,30.400 364.800 C 30.400 365.020,30.824 365.200,31.342 365.200 C 31.859 365.200,32.769 365.650,33.362 366.200 C 33.956 366.750,34.610 367.200,34.816 367.200 C 35.022 367.200,35.545 367.503,35.978 367.874 C 36.411 368.245,37.085 368.595,37.475 368.652 C 37.866 368.710,38.249 368.946,38.326 369.178 C 38.403 369.410,38.812 369.600,39.233 369.600 C 39.655 369.600,40.000 369.772,40.000 369.981 C 40.000 370.191,40.630 370.661,41.400 371.027 C 42.170 371.392,42.803 371.896,42.806 372.146 C 42.809 372.396,42.987 372.330,43.200 372.000 C 43.458 371.600,43.590 371.567,43.594 371.900 C 43.597 372.175,43.870 372.400,44.200 372.400 C 44.530 372.400,44.800 372.580,44.800 372.800 C 44.800 373.020,45.160 373.200,45.600 373.200 C 46.058 373.200,46.400 373.467,46.400 373.824 C 46.400 374.167,46.560 374.349,46.755 374.228 C 46.950 374.107,47.332 374.277,47.604 374.604 C 47.876 374.932,48.346 375.200,48.649 375.200 C 48.952 375.200,49.200 375.380,49.200 375.600 C 49.200 375.820,49.650 376.000,50.200 376.000 C 50.750 376.000,51.200 376.180,51.200 376.400 C 51.200 376.620,51.560 376.800,52.000 376.800 C 52.440 376.800,52.800 377.040,52.800 377.332 C 52.800 377.863,53.428 378.254,55.900 379.264 C 56.615 379.556,57.200 379.931,57.200 380.098 C 57.200 380.264,57.650 380.400,58.200 380.400 C 58.750 380.400,59.200 380.593,59.200 380.829 C 59.200 381.466,60.253 382.400,60.971 382.400 C 61.317 382.400,61.600 382.542,61.600 382.715 C 61.600 382.888,62.002 383.060,62.494 383.097 C 62.986 383.134,63.451 383.352,63.527 383.582 C 63.604 383.812,63.913 384.000,64.213 384.000 C 64.514 384.000,64.904 384.225,65.080 384.500 C 65.423 385.036,68.625 386.800,69.255 386.800 C 69.464 386.800,70.106 387.237,70.682 387.771 C 71.258 388.305,72.690 389.157,73.865 389.664 C 75.039 390.171,76.000 390.724,76.000 390.893 C 76.000 391.062,76.270 391.200,76.600 391.200 C 76.930 391.200,77.200 391.380,77.200 391.600 C 77.200 391.820,77.476 392.000,77.813 392.000 C 78.149 392.000,78.514 392.232,78.623 392.516 C 78.732 392.799,79.219 393.061,79.705 393.098 C 80.191 393.135,80.651 393.352,80.727 393.582 C 80.804 393.812,81.212 394.000,81.633 394.000 C 82.055 394.000,82.400 394.180,82.400 394.400 C 82.400 394.620,82.651 394.800,82.957 394.800 C 83.264 394.800,83.618 395.070,83.745 395.400 C 83.871 395.730,84.251 396.000,84.587 396.000 C 84.924 396.000,85.200 396.180,85.200 396.400 C 85.200 396.620,85.560 396.800,86.000 396.800 C 86.440 396.800,86.800 396.980,86.800 397.200 C 86.800 397.420,87.135 397.600,87.545 397.600 C 87.955 397.600,88.797 398.095,89.415 398.700 C 90.033 399.305,90.395 399.556,90.220 399.259 C 90.015 398.911,90.290 398.972,90.987 399.428 C 92.803 400.618,94.563 401.609,95.300 401.858 C 95.685 401.987,96.000 402.239,96.000 402.417 C 96.000 402.808,98.305 404.000,99.061 404.000 C 99.358 404.000,99.600 404.152,99.600 404.337 C 99.600 404.522,100.230 405.013,101.000 405.428 C 101.770 405.843,102.400 406.321,102.400 406.491 C 102.400 406.661,102.760 406.800,103.200 406.800 C 103.640 406.800,104.000 406.980,104.000 407.200 C 104.000 407.420,104.368 407.600,104.818 407.600 C 105.268 407.600,106.090 408.053,106.644 408.608 C 107.198 409.162,107.801 409.523,107.984 409.410 C 108.167 409.297,108.419 409.474,108.546 409.802 C 108.672 410.131,109.130 410.400,109.564 410.400 C 109.998 410.400,110.464 410.580,110.600 410.800 C 110.736 411.020,111.130 411.200,111.477 411.200 C 111.823 411.200,112.442 411.588,112.853 412.061 C 113.264 412.535,113.600 412.798,113.600 412.646 C 113.600 412.493,113.994 412.736,114.475 413.184 C 114.957 413.633,115.632 414.004,115.975 414.009 C 116.319 414.014,117.050 414.370,117.600 414.800 C 118.150 415.230,118.799 415.586,119.042 415.591 C 119.284 415.596,119.959 416.041,120.542 416.581 C 121.124 417.120,121.600 417.470,121.600 417.358 C 121.600 417.246,122.140 417.474,122.800 417.864 C 123.460 418.254,124.000 418.714,124.000 418.886 C 124.000 419.059,124.461 419.200,125.024 419.200 C 125.587 419.200,125.939 419.375,125.807 419.588 C 125.675 419.802,126.025 420.091,126.584 420.232 C 127.143 420.372,127.600 420.647,127.600 420.843 C 127.600 421.040,127.960 421.200,128.400 421.200 C 128.840 421.200,129.200 421.380,129.200 421.600 C 129.200 421.820,129.470 422.000,129.800 422.000 C 130.130 422.000,130.400 422.180,130.400 422.400 C 130.400 422.620,130.760 422.800,131.200 422.800 C 131.640 422.800,132.000 422.953,132.000 423.139 C 132.000 423.326,132.765 423.816,133.700 424.228 C 134.635 424.641,135.490 425.073,135.600 425.190 C 135.710 425.306,136.340 425.671,137.000 426.000 C 137.660 426.329,138.344 426.824,138.520 427.099 C 138.696 427.375,139.201 427.600,139.643 427.600 C 140.086 427.600,140.336 427.780,140.200 428.000 C 140.064 428.220,140.289 428.400,140.701 428.400 C 141.112 428.400,141.798 428.715,142.225 429.100 C 142.651 429.485,143.360 429.862,143.800 429.938 C 144.240 430.014,144.744 430.329,144.920 430.638 C 145.096 430.947,145.501 431.200,145.820 431.200 C 146.139 431.200,146.400 431.380,146.400 431.600 C 146.400 431.820,146.670 432.000,147.000 432.000 C 147.330 432.000,147.600 432.180,147.600 432.400 C 147.600 432.620,147.960 432.800,148.400 432.800 C 148.840 432.800,149.200 432.980,149.200 433.200 C 149.200 433.420,149.541 433.600,149.957 433.600 C 150.374 433.600,150.818 433.870,150.945 434.200 C 151.071 434.530,151.541 434.800,151.987 434.800 C 152.434 434.800,152.800 434.950,152.800 435.132 C 152.800 435.442,153.487 435.833,156.000 436.953 C 156.550 437.198,157.144 437.624,157.320 437.899 C 157.496 438.175,157.903 438.400,158.225 438.400 C 158.979 438.400,160.412 439.207,161.243 440.100 C 161.601 440.485,162.258 440.800,162.704 440.800 C 163.150 440.800,163.622 441.081,163.754 441.425 C 163.886 441.769,164.177 441.938,164.400 441.800 C 164.623 441.662,164.914 441.831,165.046 442.175 C 165.178 442.519,165.581 442.804,165.943 442.809 C 166.304 442.814,167.050 443.170,167.600 443.600 C 168.150 444.030,168.915 444.386,169.300 444.391 C 169.685 444.396,170.000 444.670,170.000 445.000 C 170.000 445.330,170.225 445.604,170.500 445.609 C 170.775 445.614,171.450 445.970,172.000 446.400 C 172.550 446.830,173.315 447.186,173.700 447.191 C 174.085 447.196,174.400 447.380,174.400 447.600 C 174.400 447.820,174.729 448.000,175.130 448.000 C 175.532 448.000,176.283 448.450,176.800 449.000 C 177.317 449.550,178.068 450.000,178.470 450.000 C 178.871 450.000,179.200 450.180,179.200 450.400 C 179.200 450.620,179.560 450.800,180.000 450.800 C 180.440 450.800,180.800 450.980,180.800 451.200 C 180.800 451.420,181.160 451.600,181.600 451.600 C 182.058 451.600,182.400 451.867,182.400 452.224 C 182.400 452.567,182.560 452.749,182.755 452.628 C 182.950 452.507,183.301 452.640,183.535 452.922 C 183.770 453.205,184.600 453.686,185.381 453.992 C 186.161 454.299,186.800 454.696,186.800 454.875 C 186.800 455.054,187.166 455.200,187.613 455.200 C 188.059 455.200,188.525 455.461,188.648 455.781 C 188.770 456.100,189.485 456.564,190.235 456.812 C 190.986 457.059,191.600 457.428,191.600 457.631 C 191.600 457.834,191.960 458.000,192.400 458.000 C 192.840 458.000,193.200 458.180,193.200 458.400 C 193.200 458.620,193.393 458.800,193.629 458.800 C 193.864 458.800,194.308 459.025,194.615 459.300 C 196.102 460.634,196.479 460.801,198.700 461.108 L 200.000 461.288 200.000 416.732 L 200.000 372.176 194.700 369.086 C 191.785 367.387,188.950 365.731,188.400 365.406 C 185.603 363.755,175.972 358.175,174.400 357.295 C 173.410 356.741,170.440 355.011,167.800 353.451 C 165.160 351.892,162.640 350.415,162.200 350.170 C 158.343 348.021,157.260 347.388,156.338 346.743 C 155.754 346.334,155.184 346.000,155.071 346.000 C 154.958 346.000,153.456 345.161,151.733 344.135 C 150.010 343.109,147.520 341.647,146.200 340.886 C 143.498 339.328,143.729 339.462,135.000 334.399 C 131.480 332.357,127.610 330.115,126.400 329.417 C 125.190 328.718,123.439 327.664,122.508 327.073 C 121.577 326.483,120.731 326.000,120.627 326.000 C 120.524 326.000,117.955 324.537,114.919 322.749 C 111.884 320.961,108.410 318.952,107.200 318.285 C 105.990 317.618,104.052 316.470,102.892 315.736 C 101.733 315.001,100.705 314.400,100.608 314.400 C 100.511 314.400,98.781 313.410,96.764 312.200 C 94.748 310.990,93.051 310.000,92.993 310.000 C 92.935 310.000,90.393 308.534,87.344 306.743 C 84.295 304.952,80.900 302.985,79.800 302.372 L 77.800 301.258 77.598 230.729 L 77.397 160.200 77.298 230.666 " stroke="none" fill="#eb1b5b" fill-rule="evenodd"></path><path id="path4" d="M196.844 91.000 C 195.238 91.990,193.873 92.800,193.810 92.800 C 193.746 92.800,191.199 94.261,188.147 96.047 C 185.096 97.833,181.846 99.723,180.924 100.247 C 180.002 100.770,177.212 102.393,174.724 103.853 C 172.236 105.314,169.570 106.865,168.800 107.301 C 167.194 108.210,148.506 119.074,147.600 119.625 C 146.369 120.373,132.932 128.146,131.200 129.111 C 130.210 129.663,128.922 130.449,128.338 130.857 C 127.754 131.266,127.191 131.600,127.086 131.600 C 126.981 131.600,124.399 133.061,121.347 134.847 C 118.296 136.633,114.990 138.549,114.000 139.104 C 113.010 139.659,110.040 141.389,107.400 142.949 C 104.760 144.508,102.240 145.985,101.800 146.230 C 101.360 146.476,100.370 147.054,99.600 147.517 C 98.830 147.979,97.750 148.608,97.200 148.914 C 93.320 151.074,92.072 151.804,91.138 152.457 C 90.554 152.866,89.967 153.200,89.833 153.200 C 89.591 153.200,81.985 157.638,79.099 159.464 L 77.598 160.413 77.699 230.835 L 77.800 301.258 79.800 302.372 C 80.900 302.985,84.295 304.952,87.344 306.743 C 90.393 308.534,92.935 310.000,92.993 310.000 C 93.051 310.000,94.748 310.990,96.764 312.200 C 98.781 313.410,100.511 314.400,100.608 314.400 C 100.705 314.400,101.733 315.001,102.892 315.736 C 104.052 316.470,105.990 317.618,107.200 318.285 C 108.410 318.952,111.884 320.961,114.919 322.749 C 117.955 324.537,120.524 326.000,120.627 326.000 C 120.731 326.000,121.577 326.483,122.508 327.073 C 123.439 327.664,125.190 328.718,126.400 329.417 C 127.610 330.115,131.480 332.357,135.000 334.399 C 143.729 339.462,143.498 339.328,146.200 340.886 C 147.520 341.647,150.010 343.109,151.733 344.135 C 153.456 345.161,154.958 346.000,155.071 346.000 C 155.184 346.000,155.754 346.334,156.338 346.743 C 157.260 347.388,158.343 348.021,162.200 350.170 C 162.640 350.415,165.160 351.895,167.800 353.459 C 170.440 355.022,173.230 356.644,174.000 357.061 C 174.770 357.479,177.560 359.096,180.200 360.654 C 182.840 362.212,185.810 363.941,186.800 364.495 C 187.790 365.049,191.084 366.965,194.119 368.752 C 199.697 372.034,200.333 372.300,201.020 371.629 C 201.366 371.291,203.510 370.032,208.400 367.293 C 209.390 366.739,210.678 365.951,211.262 365.543 C 211.846 365.134,212.424 364.800,212.548 364.800 C 212.748 364.800,217.632 361.959,222.927 358.763 C 223.986 358.123,224.928 357.600,225.019 357.600 C 225.110 357.600,226.169 356.970,227.373 356.200 C 228.577 355.430,229.653 354.800,229.765 354.800 C 229.877 354.800,231.619 353.810,233.636 352.600 C 235.652 351.390,237.386 350.400,237.489 350.400 C 237.592 350.400,238.154 350.066,238.738 349.657 C 239.322 349.249,240.610 348.464,241.600 347.913 C 242.590 347.362,244.300 346.412,245.400 345.802 C 246.500 345.192,247.580 344.556,247.800 344.389 C 248.020 344.222,248.830 343.728,249.600 343.292 C 250.370 342.855,252.170 341.824,253.600 341.000 C 255.030 340.176,257.010 339.048,258.000 338.493 C 258.990 337.939,260.278 337.151,260.862 336.743 C 261.446 336.334,262.018 336.000,262.134 336.000 C 262.250 336.000,265.070 334.380,268.400 332.400 C 271.730 330.420,274.536 328.800,274.635 328.800 C 274.735 328.800,275.577 328.319,276.508 327.732 C 277.439 327.144,279.190 326.125,280.400 325.468 C 281.610 324.810,283.548 323.670,284.708 322.936 C 285.867 322.201,286.919 321.600,287.046 321.600 C 287.173 321.600,287.754 321.264,288.338 320.854 C 288.922 320.443,290.660 319.424,292.200 318.589 C 293.740 317.754,295.948 316.470,297.108 315.735 C 298.267 315.001,299.306 314.400,299.416 314.400 C 299.526 314.400,300.344 313.940,301.234 313.379 C 302.845 312.362,304.172 311.592,307.600 309.686 C 308.590 309.136,309.878 308.351,310.462 307.943 C 311.046 307.534,311.634 307.200,311.770 307.200 C 311.905 307.200,312.744 306.740,313.634 306.179 C 315.182 305.201,316.166 304.628,319.500 302.759 C 320.325 302.297,321.315 301.639,321.701 301.296 C 322.365 300.707,322.397 296.935,322.301 230.308 L 322.200 159.942 320.200 158.831 C 319.100 158.219,316.790 156.882,315.067 155.859 C 313.344 154.837,311.842 154.000,311.729 154.000 C 311.616 154.000,311.046 153.666,310.462 153.257 C 309.878 152.849,308.590 152.064,307.600 151.514 C 304.172 149.608,302.845 148.838,301.234 147.821 C 300.344 147.260,299.545 146.800,299.459 146.800 C 299.373 146.800,297.652 145.810,295.636 144.600 C 293.619 143.390,291.889 142.400,291.792 142.400 C 291.695 142.400,290.631 141.770,289.427 141.000 C 288.223 140.230,287.163 139.600,287.070 139.600 C 286.978 139.600,285.252 138.610,283.236 137.400 C 281.219 136.190,279.489 135.200,279.392 135.200 C 279.295 135.200,278.231 134.570,277.027 133.800 C 275.823 133.030,274.744 132.400,274.630 132.400 C 274.515 132.400,272.211 131.079,269.510 129.464 C 264.867 126.687,263.424 125.855,258.900 123.346 C 257.855 122.767,256.820 122.153,256.600 121.981 C 256.380 121.809,255.120 121.047,253.800 120.287 C 252.480 119.528,249.600 117.869,247.400 116.602 C 245.200 115.335,242.590 113.846,241.600 113.292 C 240.610 112.739,239.322 111.951,238.738 111.543 C 238.154 111.134,237.592 110.800,237.489 110.800 C 237.386 110.800,235.652 109.810,233.636 108.600 C 231.619 107.390,229.869 106.400,229.746 106.400 C 229.624 106.400,229.046 106.066,228.462 105.657 C 227.878 105.249,226.590 104.464,225.600 103.913 C 224.610 103.362,221.305 101.446,218.256 99.656 C 215.207 97.865,212.645 96.400,212.564 96.400 C 212.482 96.400,211.431 95.770,210.227 95.000 C 209.023 94.230,207.963 93.600,207.870 93.600 C 207.778 93.600,206.052 92.610,204.036 91.400 C 199.648 88.767,200.397 88.809,196.844 91.000 " stroke="none" fill="#e9eeeb" fill-rule="evenodd"></path></g></svg>